<svg width="21" height="21" viewBox="0 0 21 21" fill="none" xmlns="http://www.w3.org/2000/svg">
    <path d="M10.5229 19.9735C11.0501 19.9735 11.5122 19.7638 11.8912 19.3847C12.2703 19.0056 12.48 18.5436 12.48 18.0164L12.48 12.48L18.0164 12.48C18.5436 12.48 19.0056 12.2703 19.3847 11.8912C19.7638 11.5122 19.9735 11.0501 19.9735 10.5229C19.9735 9.99577 19.7638 9.53373 19.3847 9.15465C19.0056 8.77558 18.5436 8.56589 18.0164 8.56589L12.48 8.56589L12.48 3.02948C12.48 2.50231 12.2703 2.04026 11.8912 1.66119C11.5122 1.28211 11.0501 1.07242 10.5229 1.07242C9.99577 1.07242 9.53373 1.28212 9.15466 1.66119C8.77558 2.04026 8.56588 2.5023 8.56588 3.02948L8.56589 8.56589L3.02948 8.56589C2.5023 8.56589 2.04026 8.77558 1.66119 9.15466C1.28211 9.53373 1.07242 9.99577 1.07242 10.5229C1.07242 11.0501 1.28211 11.5122 1.66119 11.8912C2.04026 12.2703 2.5023 12.48 3.02948 12.48L8.56589 12.48L8.56588 18.0164C8.56588 18.5436 8.77558 19.0056 9.15466 19.3847C9.53373 19.7638 9.99577 19.9735 10.5229 19.9735Z" fill="#EB6440" stroke="#F8F8F8"/>
</svg>
