<svg width="184" height="83" viewBox="0 0 184 83" fill="none" xmlns="http://www.w3.org/2000/svg">
    <path d="M76.6902 81.7719L76.6662 79.3479C77.0502 79.4279 77.4502 79.4999 77.8662 79.5639C78.2822 79.6199 78.6662 79.6479 79.0182 79.6479C79.9862 79.6479 80.8422 79.5239 81.5862 79.2759C82.3302 79.0279 82.9102 78.6759 83.3262 78.2199C83.7422 77.7559 83.9502 77.2159 83.9502 76.5999C83.9502 76.1279 83.8422 75.6959 83.6262 75.3039C83.4102 74.9039 83.0582 74.5919 82.5702 74.3679C82.0822 74.1439 81.4302 74.0559 80.6142 74.1039L79.2102 74.4279L78.6582 72.0879C79.1382 71.9999 79.5942 71.8919 80.0262 71.7639C80.4582 71.6279 80.8382 71.4759 81.1662 71.3079C81.8142 70.9959 82.3022 70.6239 82.6302 70.1919C82.9662 69.7519 83.1422 69.2719 83.1582 68.7519C83.1902 68.0719 82.9822 67.5679 82.5342 67.2399C82.0862 66.9119 81.5062 66.7479 80.7942 66.7479C79.9782 66.7479 79.2782 66.8799 78.6942 67.1439C78.1182 67.3999 77.6222 67.6759 77.2062 67.9719L76.0542 65.7279C76.3102 65.4879 76.7182 65.2279 77.2782 64.9479C77.8382 64.6679 78.4822 64.4319 79.2102 64.2399C79.9382 64.0399 80.6782 63.9399 81.4302 63.9399C82.5262 63.9399 83.4822 64.1039 84.2982 64.4319C85.1142 64.7599 85.7462 65.2359 86.1942 65.8599C86.6502 66.4759 86.8782 67.2279 86.8782 68.1159C86.8782 68.8999 86.7102 69.6039 86.3742 70.2279C86.0382 70.8439 85.5822 71.3759 85.0062 71.8239C84.4302 72.2719 83.7862 72.6399 83.0742 72.9279V72.5439C84.1702 72.5599 85.0662 72.7759 85.7622 73.1919C86.4662 73.5999 86.9862 74.1279 87.3222 74.7759C87.6582 75.4159 87.8262 76.0919 87.8262 76.8039C87.8262 77.7719 87.4982 78.6719 86.8422 79.5039C86.1942 80.3279 85.2742 80.9919 84.0822 81.4959C82.8982 81.9999 81.5022 82.2519 79.8942 82.2519C79.2382 82.2519 78.6422 82.1959 78.1062 82.0839C77.5702 81.9799 77.0982 81.8759 76.6902 81.7719Z" fill="#EB6440"/>
    <path d="M98.7559 81.9999V67.0479H93.6799V64.1679H107.612V67.0479H102.536V81.9999H98.7559Z" fill="#EB6440"/>
    <path d="M112.094 73.2879L111.926 70.7199C112.07 70.3359 112.334 69.9719 112.718 69.6279C113.102 69.2759 113.558 68.9919 114.086 68.7759C114.614 68.5519 115.17 68.4399 115.754 68.4399C115.994 68.4399 116.214 68.4519 116.414 68.4759C116.622 68.4999 116.774 68.5399 116.87 68.5959V72.1599C116.758 72.0879 116.586 72.0159 116.354 71.9439C116.122 71.8719 115.77 71.8359 115.298 71.8359C114.722 71.8359 114.226 71.9199 113.81 72.0879C113.394 72.2479 113.042 72.4439 112.754 72.6759C112.474 72.8999 112.254 73.1039 112.094 73.2879ZM108.65 81.9999V68.6439H111.818L112.022 70.7319L112.31 71.3679V81.9999H108.65Z" fill="#EB6440"/>
    <path d="M124.675 82.1919C122.619 82.1919 121.043 81.5799 119.947 80.3559C118.851 79.1319 118.303 77.4399 118.303 75.2799C118.303 73.9839 118.551 72.8239 119.047 71.7999C119.551 70.7759 120.279 69.9679 121.231 69.3759C122.183 68.7759 123.347 68.4719 124.723 68.4639C125.419 68.4559 126.083 68.5439 126.715 68.7279C127.347 68.9119 127.911 69.2119 128.407 69.6279C128.903 70.0359 129.299 70.5799 129.595 71.2599C129.899 71.9319 130.055 72.7559 130.063 73.7319C130.063 74.2199 130.055 74.6719 130.039 75.0879C130.023 75.5039 129.987 75.8599 129.931 76.1559H120.271L120.511 74.1759H126.655C126.695 73.5279 126.659 72.9599 126.547 72.4719C126.443 71.9759 126.235 71.5919 125.923 71.3199C125.611 71.0399 125.171 70.8999 124.603 70.8999C124.051 70.8999 123.567 71.0519 123.151 71.3559C122.743 71.6599 122.427 72.1839 122.203 72.9279C121.987 73.6639 121.895 74.6799 121.927 75.9759C121.959 76.8479 122.127 77.5479 122.431 78.0759C122.743 78.5959 123.163 78.9719 123.691 79.2039C124.227 79.4279 124.847 79.5399 125.551 79.5399C125.935 79.5399 126.355 79.5079 126.811 79.4439C127.267 79.3799 127.699 79.2959 128.107 79.1919C128.515 79.0799 128.827 78.9679 129.043 78.8559L129.655 80.8479C129.359 81.0879 128.951 81.3119 128.431 81.5199C127.919 81.7199 127.335 81.8799 126.679 81.9999C126.031 82.1279 125.363 82.1919 124.675 82.1919Z" fill="#EB6440"/>
    <path d="M136.426 82.1919C135.578 82.1919 134.834 82.0199 134.194 81.6759C133.554 81.3319 133.054 80.8519 132.694 80.2359C132.342 79.6199 132.166 78.9039 132.166 78.0879C132.166 77.2719 132.386 76.5719 132.826 75.9879C133.274 75.4039 133.878 74.9479 134.638 74.6199C135.158 74.4039 135.726 74.2359 136.342 74.1159C136.966 73.9959 137.586 73.9119 138.202 73.8639C138.826 73.8159 139.406 73.7919 139.942 73.7919L140.554 74.5479L139.942 75.7239C139.654 75.7239 139.33 75.7439 138.97 75.7839C138.61 75.8239 138.262 75.8839 137.926 75.9639C137.598 76.0359 137.322 76.1199 137.098 76.2159C136.786 76.3599 136.506 76.5519 136.258 76.7919C136.018 77.0319 135.898 77.3999 135.898 77.8959C135.898 78.5439 136.078 79.0239 136.438 79.3359C136.798 79.6399 137.262 79.7919 137.83 79.7919C138.126 79.7919 138.418 79.7519 138.706 79.6719C139.002 79.5919 139.262 79.4999 139.486 79.3959C139.71 79.2839 139.862 79.1799 139.942 79.0839L140.578 79.8399L140.134 80.8719C139.774 81.1919 139.278 81.4919 138.646 81.7719C138.022 82.0519 137.282 82.1919 136.426 82.1919ZM143.602 81.9999H140.134V80.0079H139.942V72.8079C139.942 72.1279 139.762 71.6839 139.402 71.4759C139.042 71.2599 138.526 71.1519 137.854 71.1519C137.35 71.1519 136.822 71.1959 136.27 71.2839C135.726 71.3719 135.21 71.4879 134.722 71.6319C134.234 71.7759 133.826 71.9319 133.498 72.0999L132.706 69.7959C132.978 69.6359 133.402 69.4479 133.978 69.2319C134.554 69.0159 135.214 68.8279 135.958 68.6679C136.702 68.4999 137.45 68.4159 138.202 68.4159C139.434 68.4159 140.446 68.5599 141.238 68.8479C142.038 69.1359 142.63 69.6239 143.014 70.3119C143.406 70.9999 143.602 71.9519 143.602 73.1679V81.9999Z" fill="#EB6440"/>
    <path d="M159.437 68.6319L150.533 78.0879L150.701 77.3079L150.749 79.6239V81.9999H147.161V74.0559V62.5359H150.749V71.1159L150.605 75.1719L150.041 74.6319L155.225 68.6319H159.437ZM151.937 75.9879L154.361 73.5039L159.857 81.9999H155.765L151.937 75.9879Z" fill="#EB6440"/>
    <mask id="path-2-outside-1_1_2446" maskUnits="userSpaceOnUse" x="51.126" y="0" width="114" height="51" fill="black">
        <rect fill="white" x="51.126" width="114" height="51"/>
        <path d="M58.99 33.104C60.046 29.488 61.694 26.448 63.934 23.984C66.174 21.488 68.254 20.24 70.174 20.24C72.126 20.24 73.502 20.832 74.302 22.016C75.134 23.168 75.55 24.752 75.55 26.768C75.55 28.752 75.23 31.552 74.59 35.168C73.982 38.784 73.678 41.424 73.678 43.088C73.678 44.72 73.886 45.92 74.302 46.688C74.718 47.424 75.422 48.064 76.414 48.608C75.998 48.64 75.406 48.656 74.638 48.656C71.95 48.656 70.03 48.24 68.878 47.408C67.758 46.576 67.198 45.12 67.198 43.04C67.198 41.856 67.518 39.552 68.158 36.128C68.798 32.672 69.118 30.096 69.118 28.4C69.118 26.288 68.478 25.232 67.198 25.232C66.43 25.232 65.582 25.664 64.654 26.528C63.726 27.392 62.83 28.576 61.966 30.08C61.134 31.552 60.43 33.456 59.854 35.792C59.278 38.128 58.99 40.464 58.99 42.8C58.99 45.104 59.086 46.816 59.278 47.936C58.254 48 57.582 48.032 57.262 48.032C55.438 48.032 54.126 47.728 53.326 47.12C52.526 46.48 52.126 45.472 52.126 44.096C52.126 42.72 52.398 40.096 52.942 36.224C54.67 24.32 55.534 15.28 55.534 9.104C55.534 6.32 55.342 4.448 54.958 3.488C57.358 4.128 58.99 5.104 59.854 6.416C60.75 7.696 61.198 9.52 61.198 11.888C61.198 13.488 60.878 16.848 60.238 21.968C59.63 27.088 59.214 30.8 58.99 33.104Z"/>
        <path d="M87.6505 38.24C87.6505 42.048 88.8025 43.952 91.1065 43.952C92.3225 43.952 93.5065 43.296 94.6585 41.984C95.8105 40.672 96.7385 38.912 97.4425 36.704C98.1785 34.496 98.8025 32.144 99.3145 29.648C99.8585 27.12 100.258 24.448 100.514 21.632C100.962 16.192 101.186 11.952 101.186 8.912C101.186 5.84 101.058 3.536 100.802 2C103.106 2.512 104.722 3.6 105.65 5.264C106.578 6.928 107.042 9.024 107.042 11.552C107.042 14.08 106.498 18.784 105.41 25.664C104.354 32.544 103.826 37.568 103.826 40.736C103.826 43.904 103.97 46.592 104.258 48.8C101.986 48.192 100.418 47.104 99.5545 45.536C98.7225 43.936 98.3065 41.936 98.3065 39.536C97.3145 42.288 95.8265 44.464 93.8425 46.064C91.8585 47.664 89.8105 48.464 87.6985 48.464C85.5865 48.464 83.8585 47.664 82.5145 46.064C81.2025 44.432 80.5465 42.048 80.5465 38.912C80.5465 33.952 81.9065 29.696 84.6265 26.144C87.3465 22.56 90.5625 20.768 94.2745 20.768C95.3305 20.768 96.9945 21.024 99.2665 21.536C97.2825 22.048 95.5065 22.944 93.9385 24.224C92.4025 25.472 91.2025 26.912 90.3385 28.544C88.5465 31.776 87.6505 35.008 87.6505 38.24Z"/>
        <path d="M129.901 20.24C131.789 20.24 133.133 20.832 133.933 22.016C134.765 23.168 135.181 24.752 135.181 26.768C135.181 28.752 134.861 31.552 134.221 35.168C133.613 38.784 133.309 41.424 133.309 43.088C133.309 44.72 133.517 45.92 133.933 46.688C134.349 47.424 135.053 48.064 136.045 48.608C135.629 48.64 135.037 48.656 134.269 48.656C131.581 48.656 129.661 48.24 128.509 47.408C127.389 46.576 126.829 45.12 126.829 43.04C126.829 41.856 127.149 39.552 127.789 36.128C128.429 32.672 128.749 30.096 128.749 28.4C128.749 26.288 128.109 25.232 126.829 25.232C126.093 25.232 125.261 25.664 124.333 26.528C123.405 27.392 122.509 28.576 121.645 30.08C120.781 31.552 120.061 33.456 119.485 35.792C118.909 38.128 118.621 40.464 118.621 42.8C118.621 45.104 118.717 46.816 118.909 47.936C117.885 48 117.213 48.032 116.893 48.032C115.069 48.032 113.757 47.712 112.957 47.072C112.157 46.432 111.757 45.376 111.757 43.904C111.757 43.264 112.093 40.8 112.765 36.512C113.437 32.224 113.773 28.816 113.773 26.288C113.773 23.728 113.501 21.376 112.957 19.232C115.293 19.968 116.925 21.024 117.853 22.4C118.781 23.744 119.245 25.296 119.245 27.056C119.245 28.784 119.053 30.8 118.669 33.104C119.725 29.52 121.389 26.48 123.661 23.984C125.933 21.488 128.013 20.24 129.901 20.24Z"/>
        <path d="M152.411 36.128C150.875 36.128 149.371 35.952 147.899 35.6C147.867 35.92 147.851 36.416 147.851 37.088C147.851 39.744 148.347 41.744 149.339 43.088C150.331 44.432 151.515 45.104 152.891 45.104C154.267 45.104 155.579 44.688 156.827 43.856C158.075 43.024 159.163 41.872 160.091 40.4C161.243 40.656 161.819 41.248 161.819 42.176C159.003 46.496 155.371 48.656 150.923 48.656C148.235 48.656 145.883 47.632 143.867 45.584C141.851 43.504 140.843 40.624 140.843 36.944C140.843 34.192 141.371 31.584 142.427 29.12C143.483 26.624 145.163 24.528 147.467 22.832C149.771 21.104 152.315 20.24 155.099 20.24C157.915 20.24 159.979 20.88 161.291 22.16C162.603 23.44 163.259 25.12 163.259 27.2C163.259 30.208 162.203 32.448 160.091 33.92C158.011 35.392 155.451 36.128 152.411 36.128ZM154.427 23.216C152.795 23.216 151.419 24.224 150.299 26.24C149.179 28.256 148.443 30.704 148.091 33.584H148.811C151.595 33.584 153.643 32.864 154.955 31.424C156.299 29.984 156.971 28.256 156.971 26.24C156.971 25.408 156.747 24.704 156.299 24.128C155.883 23.52 155.259 23.216 154.427 23.216Z"/>
    </mask>
    <path d="M58.99 33.104C60.046 29.488 61.694 26.448 63.934 23.984C66.174 21.488 68.254 20.24 70.174 20.24C72.126 20.24 73.502 20.832 74.302 22.016C75.134 23.168 75.55 24.752 75.55 26.768C75.55 28.752 75.23 31.552 74.59 35.168C73.982 38.784 73.678 41.424 73.678 43.088C73.678 44.72 73.886 45.92 74.302 46.688C74.718 47.424 75.422 48.064 76.414 48.608C75.998 48.64 75.406 48.656 74.638 48.656C71.95 48.656 70.03 48.24 68.878 47.408C67.758 46.576 67.198 45.12 67.198 43.04C67.198 41.856 67.518 39.552 68.158 36.128C68.798 32.672 69.118 30.096 69.118 28.4C69.118 26.288 68.478 25.232 67.198 25.232C66.43 25.232 65.582 25.664 64.654 26.528C63.726 27.392 62.83 28.576 61.966 30.08C61.134 31.552 60.43 33.456 59.854 35.792C59.278 38.128 58.99 40.464 58.99 42.8C58.99 45.104 59.086 46.816 59.278 47.936C58.254 48 57.582 48.032 57.262 48.032C55.438 48.032 54.126 47.728 53.326 47.12C52.526 46.48 52.126 45.472 52.126 44.096C52.126 42.72 52.398 40.096 52.942 36.224C54.67 24.32 55.534 15.28 55.534 9.104C55.534 6.32 55.342 4.448 54.958 3.488C57.358 4.128 58.99 5.104 59.854 6.416C60.75 7.696 61.198 9.52 61.198 11.888C61.198 13.488 60.878 16.848 60.238 21.968C59.63 27.088 59.214 30.8 58.99 33.104Z" fill="#EB6440"/>
    <path d="M87.6505 38.24C87.6505 42.048 88.8025 43.952 91.1065 43.952C92.3225 43.952 93.5065 43.296 94.6585 41.984C95.8105 40.672 96.7385 38.912 97.4425 36.704C98.1785 34.496 98.8025 32.144 99.3145 29.648C99.8585 27.12 100.258 24.448 100.514 21.632C100.962 16.192 101.186 11.952 101.186 8.912C101.186 5.84 101.058 3.536 100.802 2C103.106 2.512 104.722 3.6 105.65 5.264C106.578 6.928 107.042 9.024 107.042 11.552C107.042 14.08 106.498 18.784 105.41 25.664C104.354 32.544 103.826 37.568 103.826 40.736C103.826 43.904 103.97 46.592 104.258 48.8C101.986 48.192 100.418 47.104 99.5545 45.536C98.7225 43.936 98.3065 41.936 98.3065 39.536C97.3145 42.288 95.8265 44.464 93.8425 46.064C91.8585 47.664 89.8105 48.464 87.6985 48.464C85.5865 48.464 83.8585 47.664 82.5145 46.064C81.2025 44.432 80.5465 42.048 80.5465 38.912C80.5465 33.952 81.9065 29.696 84.6265 26.144C87.3465 22.56 90.5625 20.768 94.2745 20.768C95.3305 20.768 96.9945 21.024 99.2665 21.536C97.2825 22.048 95.5065 22.944 93.9385 24.224C92.4025 25.472 91.2025 26.912 90.3385 28.544C88.5465 31.776 87.6505 35.008 87.6505 38.24Z" fill="#EB6440"/>
    <path d="M129.901 20.24C131.789 20.24 133.133 20.832 133.933 22.016C134.765 23.168 135.181 24.752 135.181 26.768C135.181 28.752 134.861 31.552 134.221 35.168C133.613 38.784 133.309 41.424 133.309 43.088C133.309 44.72 133.517 45.92 133.933 46.688C134.349 47.424 135.053 48.064 136.045 48.608C135.629 48.64 135.037 48.656 134.269 48.656C131.581 48.656 129.661 48.24 128.509 47.408C127.389 46.576 126.829 45.12 126.829 43.04C126.829 41.856 127.149 39.552 127.789 36.128C128.429 32.672 128.749 30.096 128.749 28.4C128.749 26.288 128.109 25.232 126.829 25.232C126.093 25.232 125.261 25.664 124.333 26.528C123.405 27.392 122.509 28.576 121.645 30.08C120.781 31.552 120.061 33.456 119.485 35.792C118.909 38.128 118.621 40.464 118.621 42.8C118.621 45.104 118.717 46.816 118.909 47.936C117.885 48 117.213 48.032 116.893 48.032C115.069 48.032 113.757 47.712 112.957 47.072C112.157 46.432 111.757 45.376 111.757 43.904C111.757 43.264 112.093 40.8 112.765 36.512C113.437 32.224 113.773 28.816 113.773 26.288C113.773 23.728 113.501 21.376 112.957 19.232C115.293 19.968 116.925 21.024 117.853 22.4C118.781 23.744 119.245 25.296 119.245 27.056C119.245 28.784 119.053 30.8 118.669 33.104C119.725 29.52 121.389 26.48 123.661 23.984C125.933 21.488 128.013 20.24 129.901 20.24Z" fill="#EB6440"/>
    <path d="M152.411 36.128C150.875 36.128 149.371 35.952 147.899 35.6C147.867 35.92 147.851 36.416 147.851 37.088C147.851 39.744 148.347 41.744 149.339 43.088C150.331 44.432 151.515 45.104 152.891 45.104C154.267 45.104 155.579 44.688 156.827 43.856C158.075 43.024 159.163 41.872 160.091 40.4C161.243 40.656 161.819 41.248 161.819 42.176C159.003 46.496 155.371 48.656 150.923 48.656C148.235 48.656 145.883 47.632 143.867 45.584C141.851 43.504 140.843 40.624 140.843 36.944C140.843 34.192 141.371 31.584 142.427 29.12C143.483 26.624 145.163 24.528 147.467 22.832C149.771 21.104 152.315 20.24 155.099 20.24C157.915 20.24 159.979 20.88 161.291 22.16C162.603 23.44 163.259 25.12 163.259 27.2C163.259 30.208 162.203 32.448 160.091 33.92C158.011 35.392 155.451 36.128 152.411 36.128ZM154.427 23.216C152.795 23.216 151.419 24.224 150.299 26.24C149.179 28.256 148.443 30.704 148.091 33.584H148.811C151.595 33.584 153.643 32.864 154.955 31.424C156.299 29.984 156.971 28.256 156.971 26.24C156.971 25.408 156.747 24.704 156.299 24.128C155.883 23.52 155.259 23.216 154.427 23.216Z" fill="#EB6440"/>
    <path d="M58.99 33.104C60.046 29.488 61.694 26.448 63.934 23.984C66.174 21.488 68.254 20.24 70.174 20.24C72.126 20.24 73.502 20.832 74.302 22.016C75.134 23.168 75.55 24.752 75.55 26.768C75.55 28.752 75.23 31.552 74.59 35.168C73.982 38.784 73.678 41.424 73.678 43.088C73.678 44.72 73.886 45.92 74.302 46.688C74.718 47.424 75.422 48.064 76.414 48.608C75.998 48.64 75.406 48.656 74.638 48.656C71.95 48.656 70.03 48.24 68.878 47.408C67.758 46.576 67.198 45.12 67.198 43.04C67.198 41.856 67.518 39.552 68.158 36.128C68.798 32.672 69.118 30.096 69.118 28.4C69.118 26.288 68.478 25.232 67.198 25.232C66.43 25.232 65.582 25.664 64.654 26.528C63.726 27.392 62.83 28.576 61.966 30.08C61.134 31.552 60.43 33.456 59.854 35.792C59.278 38.128 58.99 40.464 58.99 42.8C58.99 45.104 59.086 46.816 59.278 47.936C58.254 48 57.582 48.032 57.262 48.032C55.438 48.032 54.126 47.728 53.326 47.12C52.526 46.48 52.126 45.472 52.126 44.096C52.126 42.72 52.398 40.096 52.942 36.224C54.67 24.32 55.534 15.28 55.534 9.104C55.534 6.32 55.342 4.448 54.958 3.488C57.358 4.128 58.99 5.104 59.854 6.416C60.75 7.696 61.198 9.52 61.198 11.888C61.198 13.488 60.878 16.848 60.238 21.968C59.63 27.088 59.214 30.8 58.99 33.104Z" stroke="#EB6440" stroke-width="2" mask="url(#path-2-outside-1_1_2446)"/>
    <path d="M87.6505 38.24C87.6505 42.048 88.8025 43.952 91.1065 43.952C92.3225 43.952 93.5065 43.296 94.6585 41.984C95.8105 40.672 96.7385 38.912 97.4425 36.704C98.1785 34.496 98.8025 32.144 99.3145 29.648C99.8585 27.12 100.258 24.448 100.514 21.632C100.962 16.192 101.186 11.952 101.186 8.912C101.186 5.84 101.058 3.536 100.802 2C103.106 2.512 104.722 3.6 105.65 5.264C106.578 6.928 107.042 9.024 107.042 11.552C107.042 14.08 106.498 18.784 105.41 25.664C104.354 32.544 103.826 37.568 103.826 40.736C103.826 43.904 103.97 46.592 104.258 48.8C101.986 48.192 100.418 47.104 99.5545 45.536C98.7225 43.936 98.3065 41.936 98.3065 39.536C97.3145 42.288 95.8265 44.464 93.8425 46.064C91.8585 47.664 89.8105 48.464 87.6985 48.464C85.5865 48.464 83.8585 47.664 82.5145 46.064C81.2025 44.432 80.5465 42.048 80.5465 38.912C80.5465 33.952 81.9065 29.696 84.6265 26.144C87.3465 22.56 90.5625 20.768 94.2745 20.768C95.3305 20.768 96.9945 21.024 99.2665 21.536C97.2825 22.048 95.5065 22.944 93.9385 24.224C92.4025 25.472 91.2025 26.912 90.3385 28.544C88.5465 31.776 87.6505 35.008 87.6505 38.24Z" stroke="#EB6440" stroke-width="2" mask="url(#path-2-outside-1_1_2446)"/>
    <path d="M129.901 20.24C131.789 20.24 133.133 20.832 133.933 22.016C134.765 23.168 135.181 24.752 135.181 26.768C135.181 28.752 134.861 31.552 134.221 35.168C133.613 38.784 133.309 41.424 133.309 43.088C133.309 44.72 133.517 45.92 133.933 46.688C134.349 47.424 135.053 48.064 136.045 48.608C135.629 48.64 135.037 48.656 134.269 48.656C131.581 48.656 129.661 48.24 128.509 47.408C127.389 46.576 126.829 45.12 126.829 43.04C126.829 41.856 127.149 39.552 127.789 36.128C128.429 32.672 128.749 30.096 128.749 28.4C128.749 26.288 128.109 25.232 126.829 25.232C126.093 25.232 125.261 25.664 124.333 26.528C123.405 27.392 122.509 28.576 121.645 30.08C120.781 31.552 120.061 33.456 119.485 35.792C118.909 38.128 118.621 40.464 118.621 42.8C118.621 45.104 118.717 46.816 118.909 47.936C117.885 48 117.213 48.032 116.893 48.032C115.069 48.032 113.757 47.712 112.957 47.072C112.157 46.432 111.757 45.376 111.757 43.904C111.757 43.264 112.093 40.8 112.765 36.512C113.437 32.224 113.773 28.816 113.773 26.288C113.773 23.728 113.501 21.376 112.957 19.232C115.293 19.968 116.925 21.024 117.853 22.4C118.781 23.744 119.245 25.296 119.245 27.056C119.245 28.784 119.053 30.8 118.669 33.104C119.725 29.52 121.389 26.48 123.661 23.984C125.933 21.488 128.013 20.24 129.901 20.24Z" stroke="#EB6440" stroke-width="2" mask="url(#path-2-outside-1_1_2446)"/>
    <path d="M152.411 36.128C150.875 36.128 149.371 35.952 147.899 35.6C147.867 35.92 147.851 36.416 147.851 37.088C147.851 39.744 148.347 41.744 149.339 43.088C150.331 44.432 151.515 45.104 152.891 45.104C154.267 45.104 155.579 44.688 156.827 43.856C158.075 43.024 159.163 41.872 160.091 40.4C161.243 40.656 161.819 41.248 161.819 42.176C159.003 46.496 155.371 48.656 150.923 48.656C148.235 48.656 145.883 47.632 143.867 45.584C141.851 43.504 140.843 40.624 140.843 36.944C140.843 34.192 141.371 31.584 142.427 29.12C143.483 26.624 145.163 24.528 147.467 22.832C149.771 21.104 152.315 20.24 155.099 20.24C157.915 20.24 159.979 20.88 161.291 22.16C162.603 23.44 163.259 25.12 163.259 27.2C163.259 30.208 162.203 32.448 160.091 33.92C158.011 35.392 155.451 36.128 152.411 36.128ZM154.427 23.216C152.795 23.216 151.419 24.224 150.299 26.24C149.179 28.256 148.443 30.704 148.091 33.584H148.811C151.595 33.584 153.643 32.864 154.955 31.424C156.299 29.984 156.971 28.256 156.971 26.24C156.971 25.408 156.747 24.704 156.299 24.128C155.883 23.52 155.259 23.216 154.427 23.216Z" stroke="#EB6440" stroke-width="2" mask="url(#path-2-outside-1_1_2446)"/>
    <path d="M23.8906 6.73205C24.2533 7.45738 24.4573 8.13738 24.5026 8.77205C24.5933 9.40672 24.6386 10.5627 24.6386 12.2401C24.6386 13.9174 24.0719 18.6321 22.9386 26.3841L22.3266 30.3281C28.4466 25.2961 33.6146 20.4227 37.8306 15.708C42.0466 10.9481 45.0159 6.91339 46.7386 3.60405C48.2346 6.23338 48.9826 8.81738 48.9826 11.356C48.9826 13.8494 47.6906 16.4107 45.1066 19.04C42.5679 21.6694 38.7146 24.8881 33.5466 28.6961C36.7199 38.7147 40.2786 46.4667 44.2226 51.9521C45.1416 53.2188 46.1967 54.5467 47.3878 55.9359C48.3708 57.0823 49.4384 58.7702 50.6066 59.9999C50.3516 59.8982 47.2599 60.1801 45.5826 60.1801C43.9053 60.1801 42.1826 59.6587 40.4146 58.6161C38.6466 57.5734 37.1053 56.3041 35.7906 54.8081C34.5213 53.3121 33.2066 51.3174 31.8466 48.8241C29.8973 45.1521 27.7893 40.3241 25.5226 34.3401C24.2533 35.2921 22.8706 36.2667 21.3746 37.2641C20.5586 44.0187 20.1506 49.1414 20.1506 52.6321C20.1506 56.0774 20.4679 58.5481 21.1026 60.0441C17.2493 59.0467 14.6199 57.7321 13.2146 56.1001C11.8093 54.4227 11.1066 52.1107 11.1066 49.1641C11.1066 47.4414 11.5826 43.0667 12.5346 36.0401C14.2119 24.3894 14.7786 7.4999 14.7786 7.4999C14.7786 7.4999 14.9599 5.75738 14.7786 3.40005C18.6066 2.5 20.7399 4.12538 22.3266 5.03205C23.0066 5.39472 23.5279 5.96138 23.8906 6.73205Z" fill="#EB6440"/>
    <path d="M181.814 58.7727L167.606 70.5C166.029 71.9863 163.606 69.5 165.106 67.5L169.107 59.9483H54.078C52.9982 59.9483 51.6066 59.9483 51.6066 59.9483L51.5 53.5L54.078 51.9236H169.107L166.106 42.5C165.606 41 168.106 39.5 169.6 41.0622L181.814 53.0992C182.578 53.8517 183.007 54.872 183.007 55.9359C183.007 56.9999 182.578 58.0202 181.814 58.7727Z" fill="#EB6440"/>
    <path d="M51.6066 59.9483L51.5 53.5L47.3878 55.9359L48.1066 58.4999L50.6066 59.9999L51.6066 59.9483Z" fill="#EB6440"/>
    <path d="M14.7786 7.4999C14.7786 7.4999 14.9599 5.75738 14.7786 3.40005C-2.23306 9.08475 -1.5191 26.6954 2.1066 34.3401C3.80127 32.6474 3.10607 31.5 2.60607 30C-0.899427 15.0354 13.0077 6.24965 14.7786 7.4999Z" fill="#EB6440"/>
</svg>
