<svg width="20" height="20" viewBox="0 0 53 24" fill="none" xmlns="http://www.w3.org/2000/svg">
    <mask id="mask0_1_6771" style="mask-type:luminance" maskUnits="userSpaceOnUse" x="0" y="0" width="53" height="21">
        <path d="M0 0H53V20.6111H0V0Z" fill="white"/>
    </mask>
    <g mask="url(#mask0_1_6771)">
        <path d="M46.1585 12.3279L49.7974 15.1954L49.3693 18.1315L47.8049 19.8701L38.096 20.0434L14.4073 20.3166L6.34434 18.883L5.27411 18.6098L7.41456 13.3521L14.3356 11.5084L46.1585 12.3279Z" fill="#272739"/>
        <path d="M29.8204 5.42357C29.8294 5.42713 34.5115 7.03418 38.2896 8.99456C38.2896 8.99456 39.5241 9.93647 39.2031 10.6142L38.0258 11.4705L28.179 6.31543L29.0714 5.65509L29.8204 5.42357Z" fill="#404041"/>
        <path d="M12.1068 5.99576C12.1068 5.99576 6.70207 8.02913 5.43534 8.93881L4.20425 9.33135L3.99023 10.045L5.07859 10.8299L12.3212 6.69127L12.1068 5.99576Z" fill="#404041"/>
        <path d="M52.4255 16.2167C52.8143 15.0852 52.4022 14.2597 52.0128 13.3428C51.4293 11.9683 40.7438 9.3831 38.0839 8.88502C38.0839 8.88502 39.1708 9.41998 38.1375 10.3837C38.1375 10.3837 31.02 6.58432 29.3076 5.88851L29.8425 5.35339C29.8425 5.35339 23.0999 3.21294 12.1298 5.99575V6.31669L5.33375 9.84863C5.33375 9.84863 3.88214 9.63446 5.43402 8.93864C2.44882 9.90008 1.44306 9.95463 1.2667 10.4907L1.32001 13.3806V14.2366C1.32001 14.2366 0.0357668 14.7183 0.196472 15.6281C0.356867 16.5379 0.62419 17.3407 0.62419 17.3407L0.891982 17.5011L0.998756 18.6249C0.998756 18.6249 3.69773 20.1289 5.83834 20.2895C5.25782 17.5792 6.25257 14.8982 10.2934 15.0228C13.7722 15.1296 14.431 18.7322 14.431 18.7322L14.4843 20.2304L14.5379 20.5514L37.9235 20.1232V19.1064V18.7858C37.9235 18.7858 37.9495 15.1855 42.8193 14.9179C47.6891 14.6504 47.5639 19.6234 47.5639 19.6234L47.6708 20.3727C47.6708 20.3727 51.4129 20.3265 52.1125 18.8744C52.1125 18.8744 52.158 16.8587 52.4255 16.2167Z" fill="#EB6440"/>
        <path d="M36.7398 20.1457L37.9242 20.124V19.1073V18.7865C37.9242 18.7865 37.9504 15.1863 42.8202 14.9187C47.6902 14.6511 47.565 19.6244 47.565 19.6244L47.6719 20.3735C47.6719 20.3735 51.4137 20.3272 52.1133 18.8751C52.1133 18.8751 52.1261 18.3158 52.177 17.6928L48.9901 18.1533C48.9901 18.1533 48.4931 16.659 46.9725 15.2503C44.0767 12.5676 39.3724 13.291 37.2231 16.8157C36.6642 17.7324 36.4182 19.4096 36.4182 19.4096C36.4182 19.4096 36.5258 19.703 36.7398 20.1457Z" fill="#EB6440"/>
        <path d="M1.32001 14.2374C1.32001 14.2374 0.0357673 14.7189 0.196472 15.6289C0.356867 16.5387 0.624346 17.3414 0.624346 17.3414L0.89198 17.5018L0.998755 18.6257C0.998755 18.6257 3.69773 20.1297 5.83834 20.2904C5.43665 17.7366 6.25257 14.8989 10.2934 15.0235C13.7722 15.1303 14.4312 18.7329 14.4312 18.7329L14.4643 19.6665C15.3661 19.3495 15.9342 19.1245 15.9342 19.1245C15.0686 15.6814 12.6216 12.6973 8.68933 13.7523C6.85588 14.2442 5.76008 15.8094 5.76008 15.8094C5.76008 15.8094 4.59733 15.6752 3.524 15.2727C2.45068 14.8701 1.32001 14.2374 1.32001 14.2374Z" fill="#C24625"/>
        <path d="M37.988 18.8389L37.881 20.087L14.5847 20.5505L14.5135 20.2299L14.442 18.8384L15.0489 18.8028L15.7979 19.1236L36.6321 19.0881L36.8463 18.8028L37.988 18.8389Z" fill="#EB6440"/>
        <path d="M52.4711 16.0794L52.1771 17.6931C52.1771 17.6931 49.3114 18.2961 48.9902 18.1535L49.2225 16.7634C49.2225 16.7634 52.1145 16.579 52.4711 16.0794Z" fill="#EB6440"/>
        <path d="M51.5632 13.4171C51.5632 13.4171 51.2422 12.8823 50.8675 12.6416C50.8675 12.6416 50.3859 12.6145 49.5563 12.8285C48.7269 13.0426 48.1648 13.1229 48.1648 13.1229C48.1648 13.1229 47.2821 13.3366 48.5664 13.7378C49.8506 14.1394 50.707 14.1127 51.1885 13.872C51.67 13.6311 51.5632 13.4171 51.5632 13.4171Z" fill="#FAF8F6"/>
        <path d="M37.1686 11.2756L26.1449 10.9186C26.1449 10.9186 24.0243 10.8549 21.3446 10.7765C22.1193 7.83173 21.9731 8.27432 22.8448 5.66446C26.5468 5.67469 28.1783 6.31627 28.1783 6.31627C31.5323 7.31521 37.1686 11.2756 37.1686 11.2756ZM20.9725 5.70971C15.9418 5.95952 14.158 6.92267 12.9808 7.49342C12.9808 7.49342 11.1971 8.63525 10.7333 9.06328C10.7333 9.06328 9.2708 10.4902 10.5907 10.4902C11.3471 10.4902 16.3455 10.631 20.4752 10.7511L21.9362 5.67438C21.6274 5.68182 21.3064 5.69313 20.9725 5.70971Z" fill="#404041"/>
        <path d="M24.1918 12.4842C24.1918 12.6098 24.7963 12.7116 25.5427 12.7116C26.289 12.7116 26.8938 12.6098 26.8938 12.4842C26.8938 12.3587 26.289 12.2569 25.5427 12.2569C24.7963 12.2569 24.1918 12.3587 24.1918 12.4842Z" fill="#57585B"/>
        <path d="M11.4009 11.9475C11.4009 12.0734 12.0059 12.1752 12.7521 12.1752C13.4983 12.1752 14.1033 12.0734 14.1033 11.9475C14.1033 11.822 13.4983 11.7202 12.7521 11.7202C12.0059 11.7202 11.4009 11.822 11.4009 11.9475Z" fill="#57585B"/>
        <path d="M1.28653 11.4816C1.01874 12.1598 1.33287 13.4158 1.33287 13.4158C1.65381 13.4868 2.97478 13.6639 3.34904 13.4144C3.89841 13.0484 4.08282 11.8421 3.38732 11.6454C2.86351 11.4979 1.93834 11.4796 1.51263 11.4796C1.37254 11.4796 1.28653 11.4816 1.28653 11.4816ZM0.609619 11.5593L1.13032 14.2379L4.49195 13.5844L3.97125 10.9058L0.609619 11.5593Z" fill="#C21111"/>
        <path d="M34.7397 11.6966C35.2164 11.8306 37.1602 11.7059 37.2725 11.2968C37.3899 10.8692 35.7027 9.79121 34.7307 9.88326L34.7397 11.6966Z" fill="#EB6440"/>
        <path d="M51.7461 13.7521C51.729 14.4146 51.8854 15.9098 52.1236 15.914C52.3616 15.9182 52.5474 15.7768 52.5517 15.7083C52.6594 14.0491 51.9883 13.2979 51.9883 13.2979C51.9883 13.2979 51.9546 13.2669 51.9125 13.2669C51.8454 13.2669 51.7566 13.3453 51.7461 13.7521ZM51.729 13.2669V15.9182H52.6594V13.2669H51.729Z" fill="#7F7F7F"/>
    </g>
    <mask id="mask1_1_6771" style="mask-type:luminance" maskUnits="userSpaceOnUse" x="5" y="14" width="10" height="10">
        <path d="M6.4538 14.6838L14.1553 15.5363L13.3028 23.2378L5.60128 22.3853L6.4538 14.6838Z" fill="white"/>
    </mask>
    <g mask="url(#mask1_1_6771)">
        <path d="M10.1743 16.1928C8.63664 16.0149 7.24556 17.1175 7.06767 18.6551C6.88962 20.193 7.99197 21.5835 9.52971 21.7614C11.0674 21.9396 12.4583 20.8373 12.6361 19.2995C12.8142 17.7618 11.712 16.3709 10.1743 16.1928Z" fill="#57585B"/>
        <path d="M10.1808 16.2099L9.35515 18.0467L7.35397 17.8212L8.84562 19.1741L8.01287 21.0077L9.76051 20.0071L11.2471 21.3657L10.8354 19.3944L12.5869 18.4005L10.585 18.1829L10.1808 16.2099Z" fill="#EB6440"/>
        <path d="M12.167 21.8521C13.7634 20.5868 14.0319 18.267 12.7665 16.6705C11.5013 15.0739 9.18138 14.8056 7.58487 16.0708C5.98849 17.3361 5.72003 19.656 6.98535 21.2525C8.25054 22.849 10.5704 23.1174 12.167 21.8521ZM8.20717 16.856C9.37007 15.9344 11.0597 16.13 11.9814 17.2928C12.903 18.4557 12.7075 20.1454 11.5447 21.0672C10.3818 21.9887 8.69205 21.7931 7.77031 20.6303C6.84872 19.4674 7.04442 17.7775 8.20717 16.856Z" fill="#363638"/>
        <path d="M9.95858 18.2431C10.355 18.289 10.6391 18.6474 10.5932 19.0438C10.5474 19.4402 10.1888 19.7242 9.79241 19.6785C9.39616 19.6326 9.11203 19.2742 9.15797 18.8778C9.20362 18.4815 9.56218 18.1973 9.95858 18.2431Z" fill="#9D9FA4"/>
        <path d="M11.9814 17.2913C12.9029 18.4542 12.7072 20.1439 11.5444 21.0655C10.3815 21.9871 8.69192 21.7917 7.77017 20.6289C6.84858 19.466 7.04418 17.7759 8.20693 16.8544C9.36997 15.9328 11.0596 16.1284 11.9814 17.2913ZM12.7985 19.2834C12.9772 17.6692 11.8136 16.2161 10.1993 16.0374C8.58511 15.8587 7.13173 17.0221 6.95304 18.6364C6.77435 20.2506 7.93808 21.7039 9.5523 21.8826C11.1665 22.0612 12.6198 20.8977 12.7985 19.2834Z" fill="#EB6440"/>
        <path d="M10.463 16.1559C10.4784 16.0818 10.5846 18.1819 10.5846 18.1819L9.29421 18.0389C9.29421 18.0389 9.85787 16.1387 9.85748 16.079C9.85736 16.0193 10.463 16.1559 10.463 16.1559Z" fill="#EB6440"/>
        <path d="M12.6419 18.7072C12.7148 18.7003 10.7989 19.3966 10.7989 19.3966L10.5641 18.1602C10.5641 18.1602 12.4855 18.1417 12.5408 18.1245C12.5959 18.1073 12.6419 18.7072 12.6419 18.7072Z" fill="#EB6440"/>
        <path d="M10.9198 21.5315C10.9474 21.5995 9.72618 19.9678 9.72618 19.9678L10.841 19.385C10.841 19.385 11.4155 21.2181 11.4481 21.2659C11.4805 21.3138 10.9198 21.5315 10.9198 21.5315Z" fill="#EB6440"/>
        <path d="M7.72967 20.85C7.67323 20.9 8.84373 19.1599 8.84373 19.1599L9.78838 20.0452C9.78838 20.0452 8.20248 21.2256 8.16701 21.2734C8.13167 21.3212 7.72967 20.85 7.72967 20.85Z" fill="#EB6440"/>
        <path d="M7.43318 17.5478C7.3687 17.5106 9.36483 18.0581 9.36483 18.0581L8.83414 19.2205C8.83414 19.2205 7.23092 18.1082 7.17504 18.09C7.11913 18.072 7.43318 17.5478 7.43318 17.5478Z" fill="#EB6440"/>
    </g>
    <mask id="mask2_1_6771" style="mask-type:luminance" maskUnits="userSpaceOnUse" x="38" y="14" width="9" height="10">
        <path d="M39.0005 14.6838L46.702 15.5363L45.8495 23.2378L38.148 22.3853L39.0005 14.6838Z" fill="white"/>
    </mask>
    <g mask="url(#mask2_1_6771)">
        <path d="M42.7203 16.1941C41.1827 16.0162 39.7916 17.1188 39.6137 18.6564C39.4356 20.1943 40.538 21.5848 42.0757 21.7627C43.6134 21.9408 45.0044 20.8385 45.1821 19.3008C45.3602 17.763 44.258 16.3721 42.7203 16.1941Z" fill="#57585B"/>
        <path d="M42.723 16.2099L41.8973 18.0467L39.8961 17.8212L41.3877 19.1741L40.555 21.0077L42.3026 20.0071L43.7893 21.3657L43.3776 19.3944L45.129 18.4005L43.1271 18.1829L42.723 16.2099Z" fill="#EB6440"/>
        <path d="M44.7085 21.8521C46.3048 20.5868 46.5733 18.267 45.308 16.6705C44.0428 15.0739 41.7228 14.8056 40.1263 16.0708C38.5299 17.3361 38.2615 19.656 39.5268 21.2525C40.792 22.849 43.1118 23.1174 44.7085 21.8521ZM40.7486 16.856C41.9115 15.9344 43.6011 16.13 44.5229 17.2928C45.4445 18.4557 45.2489 20.1454 44.0861 21.0672C42.9232 21.9887 41.2335 21.7931 40.3118 20.6303C39.3902 19.4674 39.5859 17.7775 40.7486 16.856Z" fill="#363638"/>
        <path d="M42.5045 18.2431C42.9009 18.289 43.1851 18.6474 43.1391 19.0438C43.0933 19.4402 42.7348 19.7242 42.3384 19.6785C41.9421 19.6326 41.658 19.2742 41.7039 18.8778C41.7496 18.4815 42.1081 18.1973 42.5045 18.2431Z" fill="#9D9FA4"/>
        <path d="M44.5259 17.2911C45.4474 18.454 45.2517 20.1437 44.0889 21.0653C42.926 21.9869 41.2364 21.7915 40.3147 20.6287C39.3931 19.4658 39.5887 17.7757 40.7514 16.8542C41.9145 15.9326 43.6041 16.1282 44.5259 17.2911ZM45.343 19.2832C45.5217 17.669 44.3581 16.2159 42.7438 16.0372C41.1296 15.8585 39.6762 17.0219 39.4975 18.6362C39.3188 20.2504 40.4826 21.7037 42.0968 21.8824C43.711 22.061 45.1643 20.8975 45.343 19.2832Z" fill="#EB6440"/>
        <path d="M43.0064 16.1571C43.0218 16.0831 43.128 18.1832 43.128 18.1832L41.8376 18.0402C41.8376 18.0402 42.4013 16.14 42.4009 16.0802C42.4008 16.0205 43.0064 16.1571 43.0064 16.1571Z" fill="#EB6440"/>
        <path d="M45.1833 18.7072C45.2563 18.7003 43.3403 19.3966 43.3403 19.3966L43.1055 18.1602C43.1055 18.1602 45.027 18.1417 45.0822 18.1245C45.1374 18.1073 45.1833 18.7072 45.1833 18.7072Z" fill="#EB6440"/>
        <path d="M43.4632 21.5328C43.4908 21.6008 42.2696 19.9691 42.2696 19.9691L43.3844 19.3863C43.3844 19.3863 43.9589 21.2194 43.9915 21.2672C44.0239 21.3151 43.4632 21.5328 43.4632 21.5328Z" fill="#EB6440"/>
        <path d="M40.2731 20.85C40.2166 20.9 41.3871 19.1599 41.3871 19.1599L42.3318 20.0452C42.3318 20.0452 40.7459 21.2256 40.7104 21.2734C40.6751 21.3212 40.2731 20.85 40.2731 20.85Z" fill="#EB6440"/>
        <path d="M39.9766 17.549C39.9121 17.5118 41.9082 18.0594 41.9082 18.0594L41.3775 19.2218C41.3775 19.2218 39.7743 18.1095 39.7184 18.0912C39.6625 18.0733 39.9766 17.549 39.9766 17.549Z" fill="#EB6440"/>
    </g>
</svg>
