<svg width="16" height="13" viewBox="0 0 16 13" fill="none" xmlns="http://www.w3.org/2000/svg">
    <path fill-rule="evenodd" clip-rule="evenodd" d="M15.3593 5.29266V13H13.4959V11.809H2.50541V13H0.641979V5.29266H0V4.10798H1.56784L2.4416 1.47928C2.69944 0.703758 3.12916 0 3.97037 0H12.3552C13.1964 0 13.6808 0.689909 13.8839 1.47802L14.5598 4.10672H16V5.2914H15.3593V5.29266ZM5.21006 9.43085H10.7144V10.686H5.21006V9.43085ZM1.26573 6.50755C2.66819 6.55036 3.52633 7.11815 3.7464 8.30283H1.26573V6.50755ZM14.5585 6.50755C13.156 6.55036 12.2979 7.11815 12.0778 8.30283H14.5585V6.50755ZM2.23716 4.10672H13.7641L13.2706 1.90229C13.1352 1.29799 12.7458 0.775518 12.1052 0.775518H4.13315C3.49247 0.775518 3.16432 1.31183 2.96769 1.90229L2.23716 4.10672Z" fill="#EB6440"/>
</svg>
