<svg width="20" height="10" viewBox="0 0 20 10" fill="none" xmlns="http://www.w3.org/2000/svg">
    <path fill-rule="evenodd" clip-rule="evenodd" d="M2.91667 2.5H3.75L2.5 4.16667V2.91667C2.5 2.80616 2.5439 2.70018 2.62204 2.62204C2.70018 2.5439 2.80616 2.5 2.91667 2.5ZM3.75 5H2.91667L4.16667 3.33333V4.58333C4.16667 4.69384 4.12277 4.79982 4.04463 4.87796C3.96649 4.9561 3.86051 5 3.75 5Z" fill="#EB6440"/>
    <path fill-rule="evenodd" clip-rule="evenodd" d="M0.833333 0H18.3333C18.7936 0 19.1667 0.373096 19.1667 0.833333V9.16667C19.1667 9.6269 18.7936 10 18.3333 10H0.833333C0.373096 10 0 9.6269 0 9.16667V0.833333C0 0.373096 0.373096 0 0.833333 0ZM2.91667 1.66667H3.75C4.08152 1.66667 4.39946 1.79836 4.63388 2.03278C4.8683 2.2672 5 2.58515 5 2.91667V4.58333C5 4.91485 4.8683 5.2328 4.63388 5.46722C4.39946 5.70164 4.08152 5.83333 3.75 5.83333H2.91667C2.58515 5.83333 2.2672 5.70164 2.03278 5.46722C1.79836 5.2328 1.66667 4.91485 1.66667 4.58333V2.91667C1.66667 2.58515 1.79836 2.2672 2.03278 2.03278C2.2672 1.79836 2.58515 1.66667 2.91667 1.66667ZM7.08333 4.16667H8.33333V5.41667C8.33333 5.52717 8.37723 5.63315 8.45537 5.71129C8.53351 5.78943 8.63949 5.83333 8.75 5.83333C8.86051 5.83333 8.96649 5.78943 9.04463 5.71129C9.12277 5.63315 9.16667 5.52717 9.16667 5.41667V2.08333C9.16667 1.97283 9.12277 1.86685 9.04463 1.78871C8.96649 1.71057 8.86051 1.66667 8.75 1.66667C8.63949 1.66667 8.53351 1.71057 8.45537 1.78871C8.37723 1.86685 8.33333 1.97283 8.33333 2.08333V3.33333H7.08333C6.97283 3.33333 6.86685 3.28943 6.7887 3.21129C6.71057 3.13315 6.66667 3.02717 6.66667 2.91667V2.08333C6.66667 1.97283 6.62277 1.86685 6.54463 1.78871C6.46649 1.71057 6.36051 1.66667 6.25 1.66667C6.13949 1.66667 6.03351 1.71057 5.95537 1.78871C5.87723 1.86685 5.83333 1.97283 5.83333 2.08333V2.91667C5.83333 3.24819 5.96503 3.56613 6.19945 3.80055C6.43387 4.03497 6.75181 4.16667 7.08333 4.16667ZM11.25 1.66667H12.0833C12.4149 1.66667 12.7328 1.79836 12.9672 2.03278C13.2016 2.2672 13.3333 2.58515 13.3333 2.91667V4.58333C13.3333 4.91485 13.2016 5.2328 12.9672 5.46722C12.7328 5.70164 12.4149 5.83333 12.0833 5.83333H11.25C10.9185 5.83333 10.6005 5.70164 10.3661 5.46722C10.1317 5.2328 10 4.91485 10 4.58333V2.91667C10 2.58515 10.1317 2.2672 10.3661 2.03278C10.6005 1.79836 10.9185 1.66667 11.25 1.66667ZM11.25 2.5H12.0833L10.8333 4.16667V2.91667C10.8333 2.80616 10.8772 2.70018 10.9554 2.62204C11.0335 2.5439 11.1395 2.5 11.25 2.5ZM12.0833 5H11.25L12.5 3.33333V4.58333C12.5 4.69384 12.4561 4.79982 12.378 4.87796C12.2998 4.9561 12.1938 5 12.0833 5ZM16.6667 3.33333H15V2.5H17.0833C17.1938 2.5 17.2998 2.4561 17.378 2.37796C17.4561 2.29982 17.5 2.19384 17.5 2.08333C17.5 1.97283 17.4561 1.86685 17.378 1.78871C17.2998 1.71057 17.1938 1.66667 17.0833 1.66667H15C14.779 1.66667 14.567 1.75446 14.4107 1.91074C14.2545 2.06702 14.1667 2.27899 14.1667 2.5V3.33333C14.1667 3.55435 14.2545 3.76631 14.4107 3.92259C14.567 4.07887 14.779 4.16667 15 4.16667H16.6667V5H14.5833C14.4728 5 14.3668 5.0439 14.2887 5.12204C14.2106 5.20018 14.1667 5.30616 14.1667 5.41667C14.1667 5.52717 14.2106 5.63315 14.2887 5.71129C14.3668 5.78943 14.4728 5.83333 14.5833 5.83333H16.6667C16.8877 5.83333 17.0996 5.74554 17.2559 5.58926C17.4122 5.43297 17.5 5.22101 17.5 5V4.16667C17.5 3.94565 17.4122 3.73369 17.2559 3.57741C17.0996 3.42113 16.8877 3.33333 16.6667 3.33333ZM6.66674 7.32917L6.78758 7.20417C6.86604 7.12571 6.97245 7.08163 7.08341 7.08163C7.19437 7.08163 7.30078 7.12571 7.37924 7.20417C7.4577 7.28263 7.50178 7.38904 7.50178 7.5C7.50178 7.61096 7.4577 7.71737 7.37924 7.79583L7.25424 7.91667L7.37924 8.0375C7.4577 8.11596 7.50178 8.22237 7.50178 8.33333C7.50178 8.44429 7.4577 8.55071 7.37924 8.62917C7.30078 8.70763 7.19437 8.75171 7.08341 8.75171C6.97245 8.75171 6.86604 8.70763 6.78758 8.62917L6.66674 8.50417L6.54591 8.62917C6.46745 8.70763 6.36104 8.75171 6.25008 8.75171C6.13912 8.75171 6.0327 8.70763 5.95424 8.62917C5.87578 8.55071 5.83171 8.44429 5.83171 8.33333C5.83171 8.22237 5.87578 8.11596 5.95424 8.0375L6.07924 7.91667L5.95424 7.79583C5.87578 7.71737 5.83171 7.61096 5.83171 7.5C5.83171 7.38904 5.87578 7.28263 5.95424 7.20417C6.0327 7.12571 6.13912 7.08163 6.25008 7.08163C6.36104 7.08163 6.46745 7.12571 6.54591 7.20417L6.66674 7.32917ZM10.4167 7.5H8.75C8.63949 7.5 8.53351 7.5439 8.45537 7.62204C8.37723 7.70018 8.33333 7.80616 8.33333 7.91667C8.33333 8.02717 8.37723 8.13315 8.45537 8.21129C8.53351 8.28943 8.63949 8.33333 8.75 8.33333H10.4167C10.5272 8.33333 10.6332 8.28943 10.7113 8.21129C10.7894 8.13315 10.8333 8.02717 10.8333 7.91667C10.8333 7.80616 10.7894 7.70018 10.7113 7.62204C10.6332 7.5439 10.5272 7.5 10.4167 7.5ZM12.5001 7.32917L12.6209 7.20417C12.6994 7.12571 12.8058 7.08163 12.9167 7.08163C13.0277 7.08163 13.1341 7.12571 13.2126 7.20417C13.291 7.28263 13.3351 7.38904 13.3351 7.5C13.3351 7.61096 13.291 7.71737 13.2126 7.79583L13.0876 7.91667L13.2126 8.0375C13.291 8.11596 13.3351 8.22237 13.3351 8.33333C13.3351 8.44429 13.291 8.55071 13.2126 8.62917C13.1341 8.70763 13.0277 8.75171 12.9167 8.75171C12.8058 8.75171 12.6994 8.70763 12.6209 8.62917L12.5001 8.50417L12.3792 8.62917C12.3008 8.70763 12.1944 8.75171 12.0834 8.75171C11.9725 8.75171 11.866 8.70763 11.7876 8.62917C11.7091 8.55071 11.665 8.44429 11.665 8.33333C11.665 8.22237 11.7091 8.11596 11.7876 8.0375L11.9126 7.91667L11.7876 7.79583C11.7487 7.75698 11.7179 7.71086 11.6969 7.6601C11.6759 7.60934 11.665 7.55494 11.665 7.5C11.665 7.44506 11.6759 7.39066 11.6969 7.3399C11.7179 7.28914 11.7487 7.24302 11.7876 7.20417C11.8264 7.16532 11.8725 7.1345 11.9233 7.11348C11.9741 7.09245 12.0285 7.08163 12.0834 7.08163C12.1384 7.08163 12.1928 7.09245 12.2435 7.11348C12.2943 7.1345 12.3404 7.16532 12.3792 7.20417L12.5001 7.32917Z" fill="#EB6440"/>
</svg>
