<svg width="14" height="14" viewBox="0 0 14 14" fill="none" xmlns="http://www.w3.org/2000/svg">
    <path fill-rule="evenodd" clip-rule="evenodd" d="M7 0C10.8657 0 14 3.13428 14 7C14 10.8657 10.8657 14 7 14C3.13428 14 0 10.8657 0 7C0 3.13428 3.13428 0 7 0ZM6.96924 7.01823C7.16976 7.01823 7.33154 7.18001 7.33154 7.38053C7.33154 7.58105 7.16976 7.74284 6.96924 7.74284C6.76872 7.74284 6.60693 7.58105 6.60693 7.38053C6.60693 7.18115 6.76986 7.01823 6.96924 7.01823ZM6.97266 6.07031C7.69499 6.07031 8.27946 6.65592 8.27946 7.37712C8.27946 8.09945 7.69385 8.68392 6.97266 8.68392C6.25147 8.68392 5.66585 8.09831 5.66585 7.37712C5.66585 6.65479 6.25147 6.07031 6.97266 6.07031ZM1.68392 5.07796C2.19092 3.67546 3.22428 2.4917 4.52083 1.88672C6.3016 1.05615 8.46403 1.00374 10.2961 2.35954C11.3761 3.1582 11.7703 3.81331 12.3092 4.97428C12.7171 6.00309 12.3822 6.33805 11.0708 5.76042C8.36035 4.41943 5.62028 4.47982 2.854 5.76042C1.83317 6.42692 1.26009 5.87093 1.68392 5.07796ZM8.64746 12.4243C10.541 11.8285 11.6462 10.623 12.3241 9.0861C12.765 7.89779 11.383 7.49447 10.8976 8.27718C10.6071 8.85368 10.2607 9.34814 9.80957 9.7321C9.10319 10.3325 8.08008 10.4419 7.92057 11.5732C7.8374 12.1611 7.97184 12.6898 8.64746 12.4243ZM5.38444 12.4243C3.49089 11.8285 2.38574 10.623 1.70785 9.0861C1.26693 7.89779 2.64893 7.49447 3.13428 8.27718C3.4248 8.85368 3.77116 9.34814 4.22233 9.7321C4.92871 10.3325 5.95182 10.4419 6.11133 11.5732C6.1945 12.1611 6.06006 12.6898 5.38444 12.4243Z" fill="#EB6440"/>
</svg>
