<svg width="19" height="19" viewBox="0 0 19 19" fill="none" xmlns="http://www.w3.org/2000/svg">
    <path d="M8.39926 12.6668H6.33301V10.6006L8.39926 12.6668Z" fill="#EB6440"/>
    <path d="M17.8125 12.6667H10.8102L15.7621 7.71479C15.9845 7.49214 16.1094 7.19031 16.1094 6.87563C16.1094 6.56094 15.9845 6.25912 15.7621 6.03646L12.9635 3.23792C12.7409 3.01554 12.4391 2.89063 12.1244 2.89063C11.8097 2.89063 11.5079 3.01554 11.2852 3.23792L6.33333 8.18979V1.1875C6.33333 0.872555 6.20822 0.57051 5.98552 0.347811C5.76282 0.125111 5.46078 0 5.14583 0L1.1875 0C0.872555 0 0.57051 0.125111 0.347811 0.347811C0.125111 0.57051 0 0.872555 0 1.1875L0 15.8333C0 16.6732 0.33363 17.4786 0.927495 18.0725C1.52136 18.6664 2.32681 19 3.16667 19H17.8125C18.1274 19 18.4295 18.8749 18.6522 18.6522C18.8749 18.4295 19 18.1274 19 17.8125V13.8542C19 13.5392 18.8749 13.2372 18.6522 13.0145C18.4295 12.7918 18.1274 12.6667 17.8125 12.6667ZM11.8433 3.79604C11.9175 3.72232 12.0178 3.68094 12.1224 3.68094C12.227 3.68094 12.3273 3.72232 12.4015 3.79604L15.204 6.59854C15.2777 6.67271 15.3191 6.77303 15.3191 6.8776C15.3191 6.98218 15.2777 7.0825 15.204 7.15667L9.69396 12.6667H6.33333V9.30604L11.8433 3.79604ZM0.791667 1.1875C0.791667 1.08252 0.83337 0.981837 0.907604 0.907604C0.981837 0.83337 1.08252 0.791667 1.1875 0.791667H5.14583C5.25081 0.791667 5.3515 0.83337 5.42573 0.907604C5.49996 0.981837 5.54167 1.08252 5.54167 1.1875V12.6667H3.16667C2.71675 12.6677 2.27222 12.7647 1.86269 12.951C1.45317 13.1373 1.08805 13.4088 0.791667 13.7473V1.1875ZM18.2083 17.8125C18.2083 17.9175 18.1666 18.0182 18.0924 18.0924C18.0182 18.1666 17.9175 18.2083 17.8125 18.2083H3.16667C2.53678 18.2083 1.93269 17.9581 1.48729 17.5127C1.04189 17.0673 0.791667 16.4632 0.791667 15.8333C0.791667 15.2034 1.04189 14.5994 1.48729 14.154C1.93269 13.7086 2.53678 13.4583 3.16667 13.4583H17.8125C17.9175 13.4583 18.0182 13.5 18.0924 13.5743C18.1666 13.6485 18.2083 13.7492 18.2083 13.8542V17.8125Z" fill="#EB6440"/>
    <path d="M17.4167 14.25H15.4375V17.4167H17.4167V14.25Z" fill="#EB6440"/>
    <path d="M14.6462 14.25H12.667V17.4167H14.6462V14.25Z" fill="#EB6440"/>
    <path d="M11.8747 14.25H9.89551V17.4167H11.8747V14.25Z" fill="#EB6440"/>
    <path d="M9.10417 14.25H7.125V17.4167H9.10417V14.25Z" fill="#EB6440"/>
    <path d="M12.1241 4.6347L10.7246 6.03418L12.9638 8.27335L14.3633 6.87387L12.1241 4.6347Z" fill="#EB6440"/>
    <path d="M10.1651 6.59466L8.76562 7.99414L11.0048 10.2333L12.4043 8.83383L10.1651 6.59466Z" fill="#EB6440"/>
    <path d="M8.20612 8.55364L6.80664 9.95312L9.04581 12.1923L10.4453 10.7928L8.20612 8.55364Z" fill="#EB6440"/>
    <path d="M4.74967 1.58301H1.58301V3.56217H4.74967V1.58301Z" fill="#EB6440"/>
    <path d="M4.74967 4.35449H1.58301V6.33366H4.74967V4.35449Z" fill="#EB6440"/>
    <path d="M4.74967 7.125H1.58301V9.10417H4.74967V7.125Z" fill="#EB6440"/>
    <path d="M4.74967 9.89551H1.58301V11.8747H4.74967V9.89551Z" fill="#EB6440"/>
    <path d="M3.16667 16.6253C3.60389 16.6253 3.95833 16.2709 3.95833 15.8337C3.95833 15.3964 3.60389 15.042 3.16667 15.042C2.72944 15.042 2.375 15.3964 2.375 15.8337C2.375 16.2709 2.72944 16.6253 3.16667 16.6253Z" fill="#EB6440"/>
</svg>
