<svg width="38" height="25" viewBox="0 0 38 25" fill="none" xmlns="http://www.w3.org/2000/svg">
<path d="M12.4747 20.5932H0L0.701791 19.9004H12.8845L12.4747 20.5932Z" fill="#E0E0E0"/>
<path d="M22.9531 5.97456C23.0315 5.93646 23.1061 5.891 23.176 5.83882C23.3104 5.74917 23.4936 5.62367 23.6882 5.48152L23.7894 5.4098L23.7522 5.40084C23.8598 5.58909 23.9559 5.75429 24.0276 5.87083C24.0634 5.93642 24.1063 5.99784 24.1556 6.05396C24.1326 5.98387 24.1012 5.91679 24.0622 5.85418C23.9994 5.73252 23.9072 5.56348 23.806 5.37522L23.7907 5.34961L23.7676 5.36626L23.6652 5.43797C23.4654 5.58013 23.281 5.71075 23.1529 5.80808C23.0805 5.8562 23.0135 5.91202 22.9531 5.97456Z" fill="#263238"/>
<path d="M37.7064 20.1261C37.8683 17.8126 36.1242 15.8058 33.8107 15.6439C31.4971 15.4819 29.4904 17.2261 29.3284 19.5396C29.1665 21.8531 30.9107 23.8599 33.2242 24.0218C35.5377 24.1838 37.5445 22.4396 37.7064 20.1261Z" fill="#263238"/>
<path d="M29.1465 19.7559V19.7674C29.1417 20.8711 29.5726 21.9322 30.3457 22.72C31.1188 23.5077 32.1716 23.9585 33.2753 23.9744C34.3789 23.9903 35.4442 23.5699 36.2396 22.8047C37.0351 22.0394 37.4963 20.9912 37.5232 19.8878C37.5232 19.8878 37.5232 19.8801 37.5232 19.8775L29.1465 19.7559Z" fill="#263238"/>
<path d="M30.3949 19.785C30.3856 20.3679 30.5494 20.9405 30.8657 21.4302C31.182 21.9199 31.6365 22.3048 32.1716 22.536C32.7068 22.7673 33.2985 22.8345 33.8719 22.7292C34.4453 22.624 34.9745 22.3509 35.3926 21.9447C35.8107 21.5384 36.0989 21.0172 36.2206 20.4471C36.3423 19.877 36.2921 19.2836 36.0763 18.742C35.8605 18.2004 35.4889 17.7351 35.0085 17.4048C34.5281 17.0746 33.9604 16.8944 33.3775 16.887C32.5981 16.877 31.8465 17.1765 31.2874 17.7197C30.7283 18.2629 30.4074 19.0056 30.3949 19.785Z" fill="#FAFAFA"/>
<path d="M33.3771 16.887C32.5977 16.877 31.8461 17.1765 31.287 17.7197C30.7279 18.2629 30.407 19.0056 30.3945 19.785L36.2752 19.8696C36.2852 19.0901 35.9857 18.3385 35.4425 17.7794C34.8993 17.2204 34.1566 16.8994 33.3771 16.887Z" fill="#E0E0E0"/>
<path d="M31.5432 19.8013C31.5379 20.156 31.6379 20.5042 31.8306 20.802C32.0233 21.0998 32.3 21.3338 32.6256 21.4743C32.9513 21.6148 33.3114 21.6555 33.6602 21.5914C34.009 21.5272 34.331 21.361 34.5854 21.1138C34.8398 20.8666 35.0151 20.5495 35.0892 20.2027C35.1633 19.8558 35.1329 19.4947 35.0017 19.1652C34.8706 18.8356 34.6446 18.5524 34.3525 18.3512C34.0603 18.1501 33.7151 18.0402 33.3604 18.0353C32.8853 18.0288 32.4271 18.2112 32.0863 18.5423C31.7456 18.8734 31.5503 19.3263 31.5432 19.8013Z" fill="#263238"/>
<path d="M31.3464 13.6836C31.3464 13.6836 35.6353 12.3863 37.4103 17.0452L28.4355 19.8255L31.3464 13.6836Z" fill="#EB6440"/>
<path d="M3.30121 19.7659C3.28939 20.5944 3.5235 21.4077 3.97393 22.1031C4.42436 22.7985 5.07089 23.3447 5.83175 23.6726C6.59261 24.0005 7.43362 24.0955 8.24844 23.9454C9.06326 23.7954 9.81528 23.407 10.4094 22.8296C11.0035 22.2521 11.4131 21.5114 11.5862 20.7012C11.7594 19.891 11.6884 19.0476 11.3822 18.2777C11.0761 17.5079 10.5485 16.8461 9.86618 16.3761C9.18388 15.906 8.37753 15.6489 7.54909 15.6372C6.99904 15.6292 6.4528 15.7297 5.94159 15.9329C5.43039 16.1361 4.96422 16.438 4.56974 16.8215C4.17526 17.2049 3.86019 17.6623 3.64253 18.1675C3.42487 18.6727 3.30889 19.2159 3.30121 19.7659Z" fill="#263238"/>
<path d="M3.30278 19.7559V19.7674C3.29791 20.8711 3.72887 21.9322 4.50198 22.72C5.27509 23.5077 6.32787 23.9585 7.43152 23.9744C8.53516 23.9903 9.60047 23.5699 10.3959 22.8047C11.1913 22.0394 11.6526 20.9912 11.6794 19.8878C11.6794 19.8878 11.6794 19.8801 11.6794 19.8775L3.30278 19.7559Z" fill="#263238"/>
<path d="M4.54921 19.785C4.53986 20.3681 4.7038 20.9408 5.02024 21.4306C5.33669 21.9204 5.7914 22.3052 6.32677 22.5364C6.86213 22.7675 7.45406 22.8346 8.02756 22.729C8.60106 22.6234 9.13032 22.35 9.54828 21.9434C9.96624 21.5367 10.2541 21.0152 10.3754 20.4448C10.4966 19.8744 10.4459 19.2808 10.2295 18.7393C10.0132 18.1978 9.64094 17.7327 9.16001 17.4029C8.67907 17.0732 8.11107 16.8936 7.52798 16.8869C6.74918 16.878 5.99856 17.1779 5.44032 17.721C4.88209 18.2642 4.56168 19.0063 4.54921 19.785Z" fill="#FAFAFA"/>
<path d="M7.52753 16.887C6.74808 16.877 5.99647 17.1765 5.4374 17.7197C4.87833 18.2629 4.5574 19.0056 4.54492 19.785L10.4256 19.8696C10.4356 19.0901 10.1361 18.3385 9.59287 17.7794C9.04965 17.2204 8.30695 16.8994 7.52753 16.887Z" fill="#E0E0E0"/>
<path d="M5.69746 19.8013C5.69218 20.156 5.7922 20.5042 5.98489 20.802C6.17758 21.0998 6.45426 21.3338 6.77994 21.4743C7.10562 21.6148 7.46565 21.6555 7.8145 21.5914C8.16334 21.5272 8.48531 21.361 8.73968 21.1138C8.99405 20.8666 9.16938 20.5495 9.24349 20.2027C9.3176 19.8558 9.28716 19.4947 9.15602 19.1652C9.02488 18.8356 8.79894 18.5524 8.50677 18.3512C8.21461 18.1501 7.86936 18.0402 7.51469 18.0353C7.03961 18.0288 6.58138 18.2112 6.24064 18.5423C5.89991 18.8734 5.70455 19.3263 5.69746 19.8013Z" fill="#263238"/>
<path d="M13.4477 18.1453C13.4182 18.1569 11.2411 17.8047 11.2411 17.8047C11.1232 17.9588 10.9731 18.0853 10.8012 18.1753C10.6294 18.2654 10.4399 18.3168 10.2461 18.3259C9.3048 18.3707 8.38274 18.413 7.5849 18.454C7.22909 18.4703 6.89414 18.6265 6.65306 18.8887C6.41198 19.1509 6.2843 19.4978 6.29785 19.8537C6.31235 20.1929 6.45375 20.5142 6.69404 20.754C6.93432 20.9938 7.25594 21.1346 7.59514 21.1484L12.2336 21.3303C13.002 21.361 14.0112 20.8974 14.4876 20.3058L13.4477 18.1453Z" fill="#EB6440"/>
<path d="M2.05061 16.2921C2.05061 16.2921 1.85083 12.2107 5.68763 11.3591V10.8366H19.1267V12.0839C19.1267 12.0839 17.1545 14.4595 17.7986 16.4317C18.4428 18.4039 18.6439 18.6088 18.6439 18.6088H26.2931C26.8962 17.7599 27.2324 16.7504 27.2587 15.7094C27.2997 13.9793 26.58 11.0185 26.0434 9.12695C25.5555 7.40576 25.2469 5.9676 25.2469 5.9676L27.5405 5.19922C27.5405 5.19922 31.7871 10.7508 31.96 11.0633C32.1329 11.3758 32.7284 12.1032 32.5849 13.6988C32.4415 15.2945 28.6303 20.2199 27.625 20.7757C26.6197 21.3315 25.7117 21.366 24.8153 21.5056C24.0315 21.626 18.2417 21.5453 16.7267 21.5223C16.2001 21.5194 15.6838 21.3762 15.231 21.1073C14.7776 20.8333 14.437 20.3787 14.0617 19.632L13.2639 18.0709L2.05061 16.2921Z" fill="#EB6440"/>
<path d="M3.08084 16.0117L1.38783 18.6588C1.33933 18.7328 1.3159 18.8204 1.321 18.9087C1.3261 18.997 1.35947 19.0813 1.41616 19.1492C1.47286 19.2171 1.54989 19.265 1.63588 19.2858C1.72186 19.3065 1.81225 19.2991 1.89368 19.2645C2.10428 19.1715 2.29645 19.0414 2.46101 18.8804C3.23579 18.1427 4.61632 16.2025 4.61632 16.2025L3.08084 16.0117Z" fill="#EB6440"/>
<path d="M15.2188 16.4847C15.2207 16.4716 15.2237 16.4588 15.2277 16.4463C15.2363 16.4198 15.2478 16.3827 15.2623 16.3348C15.303 16.1918 15.3326 16.0458 15.3507 15.8981C15.4097 15.3513 15.3212 14.7985 15.0945 14.2973C14.9406 13.9522 14.7298 13.6353 14.4709 13.3599C14.1728 13.0459 13.8271 12.781 13.4464 12.5749C13.0243 12.347 12.5726 12.1789 12.1043 12.0754C11.5994 11.9663 11.084 11.9131 10.5675 11.9166C10.0533 11.9206 9.53996 11.9583 9.03071 12.0293C8.53511 12.0972 8.05871 12.1792 7.61048 12.2855C6.81373 12.4541 6.04581 12.738 5.33094 13.1281C4.85107 13.3947 4.41237 13.7295 4.02853 14.1219C3.89278 14.2615 3.79673 14.378 3.73142 14.4574L3.65843 14.5484C3.6508 14.5589 3.64223 14.5688 3.63281 14.5778C3.74667 14.41 3.87524 14.2528 4.017 14.1078C4.39726 13.7075 4.83542 13.3664 5.31686 13.0961C6.03253 12.698 6.80334 12.4084 7.60408 12.2368C8.05358 12.1331 8.52998 12.0498 9.02687 11.9807C9.54026 11.9078 10.0579 11.8693 10.5764 11.8654C11.0957 11.8617 11.6137 11.9159 12.1209 12.0268C12.5939 12.1344 13.0499 12.3068 13.4758 12.539C13.8617 12.7484 14.2118 13.0177 14.5131 13.3369C14.7745 13.6166 14.9863 13.9388 15.1394 14.2897C15.3666 14.797 15.452 15.3564 15.3865 15.9084C15.3661 16.0569 15.3332 16.2034 15.2879 16.3464L15.2482 16.4565C15.239 16.4665 15.2291 16.4759 15.2188 16.4847Z" fill="#263238"/>
<path d="M14.4426 15.569C14.4362 15.569 14.4643 15.5037 14.4938 15.3872C14.5316 15.219 14.5364 15.045 14.5079 14.8749C14.4687 14.625 14.3845 14.3841 14.2594 14.1642C14.1882 14.0326 14.105 13.9079 14.011 13.7915C13.911 13.6665 13.7981 13.5523 13.6742 13.4509C13.434 13.2541 13.1643 13.0963 12.8751 12.9834C12.6379 12.8921 12.392 12.8252 12.1412 12.7836C11.9716 12.7552 11.8006 12.7355 11.629 12.7247C11.5656 12.7242 11.5023 12.7195 11.4395 12.7106C11.456 12.7084 11.4728 12.7084 11.4894 12.7106C11.5214 12.7106 11.5688 12.7106 11.6303 12.7106C11.8018 12.7133 11.9729 12.7274 12.1425 12.7529C12.397 12.7899 12.6469 12.8539 12.8879 12.9437C13.1834 13.0564 13.4588 13.216 13.7036 13.4163C13.8292 13.5214 13.943 13.64 14.043 13.7697C14.1398 13.8898 14.2255 14.0184 14.2991 14.1539C14.4252 14.38 14.5082 14.6275 14.5437 14.8839C14.5686 15.0572 14.5573 15.2338 14.5104 15.4026C14.4985 15.4468 14.4822 15.4897 14.4618 15.5306C14.4564 15.5439 14.45 15.5568 14.4426 15.569Z" fill="#F5F5F5"/>
<g opacity="0.4">
<path d="M11.8125 11.9902C12.5362 12.1234 13.2249 12.4037 13.8359 12.8137C14.4505 13.2221 14.9241 13.8102 15.1921 14.4977C15.4598 15.188 15.4201 16.1024 15.137 16.6748L16.0873 16.7529C16.4074 15.6874 16.0591 14.3786 15.2907 13.5437C14.8508 13.0572 14.3143 12.6678 13.7154 12.4003C13.1165 12.1328 12.4684 11.9932 11.8125 11.9902Z" fill="black"/>
</g>
<path d="M19.1217 11.3101C19.1217 11.3255 16.1007 11.337 12.3753 11.337C8.64994 11.337 5.62891 11.3255 5.62891 11.3101C5.62891 11.2947 8.64994 11.2832 12.3753 11.2832C16.1007 11.2832 19.1217 11.296 19.1217 11.3101Z" fill="#263238"/>
<path d="M19.1275 10.8354C19.2638 10.6617 19.3481 10.4531 19.3708 10.2335C19.3913 9.89539 19.2427 9.47278 18.8752 9.47278H14.2341C14.0552 9.47278 13.8781 9.50803 13.7129 9.57653C13.5476 9.64502 13.3975 9.7454 13.2711 9.87195C13.1446 9.9985 13.0444 10.1487 12.9761 10.314C12.9077 10.4793 12.8726 10.6565 12.8728 10.8354H19.1275Z" fill="#EB6440"/>
<path d="M25.2481 5.96411L24.44 4.28135C24.3322 4.05041 24.3142 3.78756 24.3898 3.54413C24.4653 3.30069 24.6289 3.09415 24.8486 2.96485L27.2613 1.52541C27.3875 1.44996 27.5317 1.41013 27.6788 1.41016H28.2L28.41 4.81154L27.6045 5.12657L28.1167 5.95387L25.2481 5.96411Z" fill="#EB6440"/>
<path d="M28.2073 1.53302C28.2073 1.53302 29.0333 1.72255 29.137 2.99551C29.2408 4.26847 28.4096 4.66034 28.4096 4.66034L28.2073 1.53302Z" fill="white"/>
<path d="M28.2075 1.53314C28.2131 1.55533 28.2161 1.57811 28.2164 1.60101L28.2318 1.78414C28.2459 1.95063 28.2625 2.17602 28.2843 2.45264C28.3278 3.01612 28.3855 3.79091 28.4418 4.66303L28.3944 4.63485C28.4832 4.58627 28.5646 4.52549 28.6365 4.45428C28.8001 4.29597 28.9246 4.10174 29.0002 3.88696C29.0717 3.6866 29.1102 3.47597 29.1141 3.26329C29.1275 2.90062 29.0579 2.53969 28.9105 2.20803C28.8074 1.98635 28.6469 1.79625 28.4457 1.65736C28.3703 1.60753 28.2906 1.56467 28.2075 1.5293C28.2312 1.53085 28.2545 1.53603 28.2766 1.54466C28.3404 1.56743 28.4018 1.59661 28.4597 1.63175C28.6727 1.76573 28.8436 1.95703 28.9528 2.1837C29.1104 2.5203 29.1867 2.88922 29.1756 3.26072C29.1733 3.479 29.1348 3.69538 29.0616 3.90104C28.9814 4.12584 28.8498 4.32885 28.6774 4.49398C28.6014 4.56955 28.5152 4.6342 28.4213 4.68608L28.3765 4.70913V4.6579C28.3202 3.77042 28.2766 2.98026 28.2484 2.41806C28.2356 2.14529 28.2241 1.92245 28.2164 1.75725L28.2087 1.5818C28.207 1.56564 28.2066 1.54937 28.2075 1.53314Z" fill="#263238"/>
<path d="M25.2342 3.66202C25.2342 3.66202 23.0353 4.70446 22.7664 4.86967C22.5807 4.98877 22.4206 5.19623 22.5666 5.56249C22.8163 6.18488 23.8472 5.59963 23.8472 5.59963L25.8963 4.57512C25.8963 4.57512 26.6826 4.20245 26.3919 3.73886C26.0615 3.22404 25.2342 3.66202 25.2342 3.66202Z" fill="#263238"/>
<path d="M24.9565 2.29747C25.3165 2.29747 25.6084 1.78316 25.6084 1.14873C25.6084 0.514306 25.3165 0 24.9565 0C24.5965 0 24.3047 0.514306 24.3047 1.14873C24.3047 1.78316 24.5965 2.29747 24.9565 2.29747Z" fill="#263238"/>
<path d="M25.0645 1.93993L25.423 3.18087C25.4885 3.14805 25.5407 3.0938 25.571 3.02715C25.6013 2.96051 25.6078 2.88549 25.5895 2.81461C25.4999 2.38943 25.4486 2.0872 25.35 1.71454C25.3385 1.6774 25.0645 1.93993 25.0645 1.93993Z" fill="#263238"/>
<g opacity="0.3">
<path d="M17.9749 16.9602C17.9391 16.8577 17.9032 16.754 17.8686 16.6464C17.8341 16.5389 17.7995 16.4428 17.7726 16.3429C17.7307 16.1897 17.7007 16.0334 17.6829 15.8755C17.0785 18.3356 18.0005 20.0683 19.586 20.19C21.9001 20.368 24.7226 20.4973 25.8611 20.1977C27.9422 19.6521 28.7054 17.9168 28.8873 17.6364C29.0691 17.3559 30.725 14.3246 29.7107 11.4125C28.6965 8.50028 26.9292 5.40625 26.9279 5.40625L25.2438 5.96845C25.2438 5.96845 25.5525 7.40661 26.0404 9.12779C26.577 11.0193 27.2967 13.9801 27.2557 15.7103C27.2294 16.7513 26.8932 17.7607 26.2901 18.6097H18.6434C18.6434 18.6097 18.4795 18.4457 17.9749 16.9653" fill="black"/>
</g>
<path d="M1.74563 15.6504L1.79942 15.0664L15.7584 16.6749C15.945 16.697 16.1252 16.7569 16.2878 16.851C16.4505 16.9452 16.5922 17.0715 16.7043 17.2224C16.8164 17.3732 16.8965 17.5453 16.9398 17.7282C16.983 17.9111 16.9885 18.1009 16.9558 18.2859L16.8931 18.6394L2.44614 16.5391C2.23778 16.5089 2.04898 16.3998 1.91865 16.2345C1.78832 16.0691 1.72639 15.86 1.74563 15.6504Z" fill="#EB6440"/>
<g opacity="0.3">
<path d="M1.74368 15.6504L1.79746 15.0664L15.7564 16.6749C15.9431 16.697 16.1232 16.7569 16.2859 16.851C16.4485 16.9452 16.5903 17.0715 16.7024 17.2224C16.8145 17.3732 16.8946 17.5453 16.9378 17.7282C16.9811 17.9111 16.9865 18.1009 16.9538 18.2859L16.8911 18.6394L2.44419 16.5391C2.23583 16.5089 2.04703 16.3998 1.91669 16.2345C1.78636 16.0691 1.72444 15.86 1.74368 15.6504Z" fill="black"/>
</g>
<g opacity="0.3">
<path d="M28.8906 19.5578C28.8906 19.5578 31.9642 16.1782 32.5981 13.5196C32.9166 13.518 33.2348 13.5416 33.5496 13.59C33.5496 13.59 31.7311 18.5308 28.8906 19.5578Z" fill="black"/>
</g>
<path d="M32.5539 12.3262C32.5623 12.3541 32.5679 12.3829 32.5706 12.412C32.5782 12.4683 32.5949 12.5503 32.6064 12.6591C32.6345 12.9647 32.6264 13.2725 32.5821 13.5761C32.511 14.0269 32.3742 14.4648 32.1761 14.8759C31.933 15.3756 31.6615 15.8609 31.3629 16.3295C30.8273 17.1861 30.2258 17.9996 29.5636 18.7627C29.3139 19.0585 29.1077 19.2941 28.963 19.4555L28.7978 19.6412C28.7792 19.6639 28.7586 19.6849 28.7363 19.7039C28.7517 19.6793 28.7693 19.6562 28.7888 19.6348L28.9476 19.4427L29.5354 18.7383C30.1868 17.9711 30.7822 17.1579 31.3168 16.3051C31.6143 15.8376 31.8866 15.3545 32.1326 14.858C32.3298 14.4527 32.4687 14.0216 32.545 13.5774C32.5929 13.2764 32.6062 12.9709 32.5847 12.6668C32.5783 12.5592 32.5642 12.476 32.5603 12.4197C32.5555 12.3887 32.5534 12.3575 32.5539 12.3262Z" fill="#263238"/>
<path d="M27.2413 19.5327C26.9014 19.2495 26.5849 18.9395 26.2949 18.6055C26.4704 18.7402 26.6349 18.8888 26.7867 19.0499C26.9512 19.1981 27.1032 19.3596 27.2413 19.5327Z" fill="#263238"/>
<path d="M18.1191 19.4285C18.1681 19.2705 18.2444 19.1222 18.3445 18.9905C18.4307 18.8496 18.5398 18.7241 18.6673 18.6191C18.6801 18.6294 18.5392 18.7984 18.3894 19.02C18.2395 19.2415 18.1332 19.4349 18.1191 19.4285Z" fill="#263238"/>
<path d="M12.2143 21.3802C12.3822 21.2268 12.5237 21.0468 12.6331 20.8475C12.748 20.6297 12.8181 20.391 12.8393 20.1457C12.8705 19.8466 12.8184 19.5448 12.6886 19.2735C12.5589 19.0023 12.3566 18.7723 12.1042 18.6089C11.9005 18.4704 11.671 18.3746 11.4293 18.3272C11.2056 18.2863 10.9766 18.2833 10.7518 18.3182C10.7518 18.3182 10.7672 18.3118 10.7979 18.3041C10.8399 18.2925 10.8827 18.2839 10.926 18.2785C11.0937 18.2553 11.2641 18.2592 11.4306 18.29C11.6786 18.3339 11.9149 18.4285 12.1247 18.5679C12.3875 18.7342 12.598 18.9714 12.7319 19.2521C12.8658 19.5329 12.9177 19.8457 12.8815 20.1546C12.8579 20.4056 12.7825 20.6489 12.66 20.8692C12.579 21.0177 12.4753 21.1525 12.3526 21.2688C12.3104 21.3111 12.2707 21.3367 12.2476 21.3572C12.2374 21.3661 12.2263 21.3738 12.2143 21.3802Z" fill="#263238"/>
<path d="M7.11739 20.3096C7.08278 20.148 7.06603 19.9831 7.06745 19.8179C7.05043 19.6531 7.05043 19.487 7.06745 19.3223C7.10212 19.4843 7.11886 19.6496 7.11739 19.8153C7.13511 19.9796 7.13511 20.1453 7.11739 20.3096Z" fill="#263238"/>
<path d="M7.48517 20.3102C7.43823 20.1499 7.40819 19.9851 7.39552 19.8185C7.36614 19.6541 7.3537 19.4872 7.35839 19.3203C7.40621 19.4805 7.43628 19.6454 7.44803 19.8121C7.47895 19.9762 7.4914 20.1433 7.48517 20.3102Z" fill="#263238"/>
<path d="M13.2447 10.8356C13.2447 10.8497 11.5479 10.8625 9.45403 10.8625C7.36018 10.8625 5.66205 10.8497 5.66205 10.8356C5.66205 10.8215 7.36018 10.8087 9.45403 10.8087C11.5479 10.8087 13.2447 10.8202 13.2447 10.8356Z" fill="#263238"/>
<path d="M4.35715 22.6718C4.34057 22.6586 4.32553 22.6436 4.31233 22.627C4.28544 22.5962 4.2419 22.5514 4.19323 22.4887C4.04967 22.3151 3.92114 22.1296 3.80904 21.9341C3.43863 21.2867 3.24516 20.5532 3.24808 19.8073C3.251 19.0614 3.45021 18.3295 3.82569 17.685C3.93763 17.4903 4.06617 17.3056 4.20988 17.133C4.25855 17.0703 4.30337 17.0267 4.33026 16.996C4.34406 16.9795 4.35951 16.9645 4.37636 16.9512C4.36561 16.9694 4.35317 16.9865 4.33923 17.0024C4.31361 17.0357 4.27263 17.0818 4.22653 17.1458C4.09028 17.3218 3.96783 17.5081 3.86027 17.7029C3.49806 18.3451 3.30626 19.0693 3.30312 19.8066C3.29998 20.5439 3.48561 21.2697 3.84234 21.9149C3.94898 22.1107 4.07013 22.2982 4.20476 22.4759C4.24958 22.5412 4.29056 22.586 4.31489 22.6206C4.331 22.6359 4.34519 22.6531 4.35715 22.6718Z" fill="#EB6440"/>
</svg>
