<svg width="9" height="11" viewBox="0 0 9 11" fill="none" xmlns="http://www.w3.org/2000/svg">
    <path fill-rule="evenodd" clip-rule="evenodd" d="M0.602396 4.21652H0.806662V3.62287C0.805187 2.67318 1.19106 1.75962 1.88379 1.0728C2.21926 0.734156 2.6245 0.464238 3.07449 0.279719C3.52447 0.0952001 4.00963 0 4.5 0C4.99037 0 5.47553 0.0952001 5.92551 0.279719C6.3755 0.464238 6.78074 0.734156 7.11621 1.0728C7.80965 1.75998 8.19589 2.67425 8.19428 3.62466V4.21831H8.3976C8.55722 4.21878 8.71015 4.27902 8.82301 4.38589C8.93587 4.49275 8.9995 4.63755 9 4.78867V10.4296C8.9995 10.5808 8.93587 10.7256 8.82301 10.8324C8.71015 10.9393 8.55722 10.9995 8.3976 11H0.602396C0.442947 10.9995 0.290157 10.9394 0.177321 10.8327C0.0644844 10.7261 0.000747814 10.5815 0 10.4305L0 4.78957C0.000498791 4.63844 0.0641255 4.49364 0.176989 4.38678C0.289852 4.27992 0.442784 4.21968 0.602396 4.2192V4.21652ZM1.94715 4.21652H7.0538V3.62287C7.05701 2.95129 6.78594 2.30453 6.29726 1.81776C6.06722 1.5846 5.78903 1.3987 5.47993 1.2716C5.17084 1.1445 4.83746 1.07891 4.50047 1.07891C4.16349 1.07891 3.8301 1.1445 3.52101 1.2716C3.21192 1.3987 2.93372 1.5846 2.70369 1.81776C2.21441 2.30417 1.94324 2.95117 1.94715 3.62287V4.21652Z" fill="#EB6440"/>
</svg>
