<svg width="16" height="15" viewBox="0 0 16 15" fill="none" xmlns="http://www.w3.org/2000/svg">
    <path fill-rule="evenodd" clip-rule="evenodd" d="M0 4.03025C0 3.4812 0.120925 2.95354 0.360403 2.45678C0.602253 1.95764 0.969769 1.57497 1.46532 1.30876C1.95851 1.04256 2.54179 0.907078 3.21992 0.907078C4.2134 0.907078 4.99822 1.18992 5.56965 1.75799C6.14108 2.32605 6.42798 3.08426 6.42798 4.03025C6.42798 4.98574 6.14345 5.74633 5.56965 6.31439C4.99822 6.88246 4.2134 7.1653 3.21992 7.1653C2.54179 7.1653 1.95851 7.02982 1.46532 6.76361C0.97214 6.49503 0.602253 6.11474 0.360403 5.6156C0.118554 5.11884 0 4.5888 0 4.03025ZM2.5987 5.50151C2.38293 5.19965 2.27386 4.71478 2.27386 4.04689C2.27386 3.38137 2.38293 2.89412 2.5987 2.59701C2.73859 2.40211 2.94724 2.30466 3.21755 2.30466C3.48548 2.30466 3.69176 2.40449 3.82691 2.59701C4.04268 2.90125 4.15175 3.38612 4.15175 4.04689C4.15175 4.71715 4.03794 5.19965 3.82691 5.50151C3.68702 5.69879 3.48548 5.80099 3.21755 5.80099C2.94724 5.80099 2.74096 5.70117 2.5987 5.50151Z" fill="#EB6440"/>
    <path d="M10.1838 1.08059C11.1108 -0.934973 13.1429 0.246317 12.4244 1.57259L5.80202 13.8157C4.75637 16.0903 2.86189 14.6143 3.55898 13.3237L10.1838 1.08059Z" fill="#EB6440"/>
    <path fill-rule="evenodd" clip-rule="evenodd" d="M9.56965 11.301C9.56965 10.7424 9.6882 10.2148 9.92768 9.7204C10.1648 9.22364 10.5347 8.8386 11.0302 8.57001C11.5258 8.29905 12.1091 8.16595 12.7825 8.16595C13.7807 8.16595 14.5679 8.45117 15.1417 9.02399C15.7155 9.59443 16 10.355 16 11.3034C16 12.2517 15.7155 13.0123 15.1417 13.5828C14.5702 14.1532 13.783 14.4408 12.7825 14.4408C12.1091 14.4408 11.5282 14.3053 11.0302 14.0367C10.5347 13.7682 10.1672 13.3807 9.92768 12.8864C9.69057 12.3848 9.56965 11.8572 9.56965 11.301ZM12.1707 12.7818C11.9549 12.4799 11.8459 11.9903 11.8459 11.32C11.8459 10.6521 11.9573 10.1649 12.1707 9.86064C12.3082 9.66336 12.5122 9.56116 12.7825 9.56116C13.0504 9.56116 13.2614 9.6586 13.3989 9.85351C13.6171 10.1577 13.7238 10.6521 13.7238 11.32C13.7238 11.9903 13.6147 12.4799 13.3989 12.7818C13.259 12.9767 13.0504 13.0741 12.7825 13.0741C12.5122 13.0741 12.3059 12.9743 12.1707 12.7818Z" fill="#EB6440"/>
</svg>
