<svg width="11" height="13" viewBox="0 0 11 13" fill="none" xmlns="http://www.w3.org/2000/svg">
<path d="M6.49182 8.97004C5.82411 8.60128 5.18266 8.17515 4.59626 7.61975C4.00629 7.06257 3.46774 6.36798 3.00499 5.46685C2.9723 5.40002 2.97174 5.33653 2.99354 5.2792C3.0249 5.19276 3.09459 5.10418 3.17856 5.01728C3.24397 4.94959 3.34849 4.86524 3.46278 4.77717C3.91013 4.42498 4.46558 3.98932 4.18022 3.38322C4.17386 3.36967 4.16663 3.35976 4.16116 3.3462L2.99562 1.32653C2.99199 1.32022 2.98569 1.31302 2.98207 1.30761C2.79869 1.04165 2.51857 0.933437 2.20193 0.93348C1.87996 0.93629 1.51891 1.06007 1.21455 1.23959C0.812571 1.4771 0.548018 1.82406 0.374895 2.22283C0.206955 2.60251 0.118765 3.02412 0.0634319 3.42912C-0.0228909 4.06477 0.0411644 4.65919 0.230201 5.26613C0.416442 5.85949 0.72045 6.45635 1.12394 7.10768L1.15468 7.15548C1.34192 7.45406 1.54186 7.77702 1.77741 8.09331C2.65269 9.25025 3.91256 10.4265 5.29457 11.1881C6.45431 11.8265 7.70334 12.1693 8.88874 11.9658C9.53887 11.8531 10.1286 11.564 10.5149 11.0654C10.8536 10.6308 11.0358 10.0478 10.9633 9.29563C10.9563 9.20953 10.9066 9.13287 10.8331 9.09269L8.65803 7.81015C8.41378 7.62181 8.17277 7.60033 7.93287 7.70673C7.73652 7.79461 7.5561 7.97032 7.38872 8.20941C7.33046 8.27976 7.27144 8.36372 7.20977 8.45224C7.00451 8.74517 6.76748 9.07829 6.48466 8.96738L6.49182 8.97004Z" fill="#EB6440"/>
</svg>
