<svg width="20" height="11" viewBox="0 0 20 11" fill="none" xmlns="http://www.w3.org/2000/svg">
    <path fill-rule="evenodd" clip-rule="evenodd" d="M0.515842 0.325882L19.8802 0.371105L19.904 10.5233L0.539655 10.4781L0.515842 0.325882ZM10.2071 2.44045C11.8451 2.44477 13.1737 3.78233 13.1772 5.43391C13.1807 7.08549 11.8604 8.41873 10.2224 8.41441C8.58443 8.41008 7.25584 7.07252 7.25232 5.42094C7.24628 3.77004 8.56654 2.4368 10.2071 2.44045ZM3.75585 1.87905L16.6311 1.90927C16.6329 2.73506 17.3021 3.4121 18.123 3.41103L18.1334 7.42463C17.3144 7.42247 16.6461 8.09401 16.651 8.92168L3.77322 8.89213C3.77146 8.06634 3.10293 7.39186 2.2814 7.39037L2.27099 3.37677C3.09 3.37893 3.7583 2.70739 3.75585 1.87905Z" fill="#EB6440"/>
</svg>
