<svg width="195" height="123" viewBox="0 0 195 123" fill="none" xmlns="http://www.w3.org/2000/svg">
    <path d="M97.4572 123.001C151.281 123.001 194.914 105.846 194.914 84.6858C194.914 63.5251 151.281 46.371 97.4572 46.371C43.6331 46.371 0 63.5251 0 84.6858C0 105.846 43.6331 123.001 97.4572 123.001Z" fill="#F5F5F5"/>
    <path d="M143.917 95.2173L97.5928 121.964C97.0009 122.263 96.3466 122.42 95.6831 122.42C95.0195 122.42 94.3652 122.263 93.7733 121.964L6.53897 71.6054C5.48564 70.9971 5.48564 70.0046 6.53897 69.3995L52.8631 42.6533C53.455 42.3534 54.1093 42.1971 54.7729 42.1971C55.4364 42.1971 56.0907 42.3534 56.6826 42.6533L143.917 93.0146C144.97 93.6229 144.97 94.609 143.917 95.2173Z" fill="#E0E0E0"/>
    <path d="M133.565 88.885L131.129 87.0531C131.129 87.0531 130.35 80.3844 131.677 74.6267C133.541 66.5304 139.313 64.0973 141.281 65.0528C143.249 66.0082 143.554 68.4664 139.568 72.9387C137.216 75.5799 134.03 81.2821 133.565 88.885Z" fill="#EB6440"/>
    <g opacity="0.15">
        <path d="M133.565 88.8846L131.129 87.0528C131.129 87.0528 130.35 80.3841 131.677 74.6264C133.541 66.5301 139.313 64.097 141.281 65.0524C143.249 66.0079 143.554 68.466 139.568 72.9384C137.216 75.5796 134.03 81.2818 133.565 88.8846Z" fill="black"/>
    </g>
    <path d="M132.865 85.5702L132.89 85.5715C132.914 85.5704 132.938 85.5644 132.959 85.554C132.981 85.5436 133 85.5289 133.016 85.5108C133.032 85.4928 133.044 85.4718 133.052 85.449C133.059 85.4262 133.062 85.4021 133.06 85.3782C132.538 77.6388 136.208 69.4607 139.906 66.3202C139.944 66.2889 139.967 66.2441 139.971 66.1956C139.975 66.1471 139.96 66.0989 139.929 66.0616C139.898 66.0244 139.853 66.001 139.804 65.9968C139.756 65.9925 139.708 66.0077 139.67 66.039C135.902 69.2369 132.164 77.5494 132.697 85.4015C132.7 85.445 132.719 85.486 132.749 85.517C132.78 85.5479 132.821 85.5668 132.865 85.5702Z" fill="white"/>
    <path d="M139.958 93.6803C140.349 93.9404 141.563 93.1203 141.896 92.9384C142.471 92.6039 142.95 92.1269 143.287 91.5533C143.663 90.9017 143.828 90.1495 143.758 89.4004C143.721 89.0053 143.656 88.6131 143.564 88.227C143.484 87.8446 143.401 87.4622 143.321 87.0798C143.216 86.7087 143.187 86.3202 143.234 85.9374C143.388 85.1759 144.105 84.6992 144.758 84.2674C145.481 83.8006 146.24 83.1722 146.3 82.2488C146.301 81.5276 146.062 80.8266 145.621 80.2558C144.98 79.3161 144.316 78.5677 144.573 77.3433C144.78 76.6079 145.071 75.8987 145.44 75.2297C145.587 74.9389 145.693 74.6293 145.755 74.3096C145.799 74.0219 145.78 73.7282 145.699 73.4487C145.618 73.1692 145.478 72.9106 145.287 72.6908C145.096 72.4711 144.86 72.2954 144.595 72.1761C144.329 72.0567 144.041 71.9964 143.75 71.9995C143.221 72.0276 142.704 72.1699 142.235 72.4166C140.764 73.1051 139.794 75.0436 138.121 75.1674C137.577 75.2073 137.028 75.1539 136.485 75.1969C135.936 75.209 135.407 75.4085 134.988 75.7624C133.64 77.0535 135.034 78.9031 134.434 80.3698C134.003 81.4187 132.931 81.7556 132.279 82.6811C132.011 83.0919 131.881 83.577 131.907 84.0665C131.901 84.8901 132.045 85.7079 132.333 86.4795C132.666 87.2752 133.047 88.0502 133.473 88.8003L139.958 93.6803Z" fill="#EB6440"/>
    <path d="M136.194 91.1047C136.219 91.1055 136.243 91.1015 136.265 91.0929C136.288 91.0843 136.309 91.0712 136.326 91.0545C136.344 91.0378 136.358 91.0177 136.368 90.9955C136.377 90.9733 136.383 90.9494 136.383 90.9251C136.59 83.6522 140.567 75.8839 143.215 73.7321C143.25 73.6992 143.272 73.6537 143.274 73.6053C143.276 73.5569 143.26 73.5095 143.228 73.4731C143.213 73.4541 143.194 73.4383 143.173 73.4265C143.152 73.4147 143.129 73.4073 143.105 73.4046C143.081 73.4019 143.056 73.404 143.033 73.4108C143.01 73.4175 142.988 73.4288 142.97 73.444C140.268 75.6412 136.215 83.5371 135.996 90.9151C135.995 90.941 136 90.9667 136.01 90.9906C136.02 91.0145 136.034 91.036 136.053 91.0539C136.072 91.0717 136.094 91.0855 136.118 91.0942C136.143 91.103 136.169 91.1065 136.194 91.1047Z" fill="white"/>
    <path d="M137.969 82.3171C137.987 82.321 138.005 82.3219 138.023 82.3198C139.774 81.9671 141.558 81.8057 143.344 81.8387C143.368 81.8399 143.392 81.8363 143.414 81.828C143.437 81.8197 143.458 81.807 143.475 81.7905C143.493 81.774 143.507 81.7542 143.517 81.7322C143.526 81.7101 143.532 81.6863 143.532 81.6623C143.534 81.6381 143.53 81.6138 143.522 81.591C143.514 81.5682 143.501 81.5473 143.485 81.5296C143.468 81.5119 143.448 81.4978 143.426 81.4882C143.404 81.4786 143.38 81.4737 143.356 81.4738C141.538 81.4399 139.721 81.6039 137.939 81.9629C137.892 81.9747 137.851 82.0043 137.826 82.0456C137.8 82.0868 137.792 82.1364 137.803 82.1836C137.813 82.2208 137.834 82.2538 137.864 82.2778C137.894 82.3018 137.931 82.3156 137.969 82.3171Z" fill="white"/>
    <path d="M12.6593 64.7097L15.6483 63.5433C15.6483 63.5433 17.2228 57.7628 17.4567 53.136C17.8045 46.6364 14.8438 38.3026 9.63562 39.36C4.42739 40.4175 10.6267 48.0367 11.4009 53.7114C12.1751 59.3862 12.6593 64.7097 12.6593 64.7097Z" fill="#EB6440"/>
    <path opacity="0.15" d="M12.6593 64.7097L15.6483 63.5433C15.6483 63.5433 17.2228 57.7628 17.4567 53.136C17.8045 46.6364 14.8438 38.3026 9.63562 39.36C4.42739 40.4175 10.6267 48.0367 11.4009 53.7114C12.1751 59.3862 12.6593 64.7097 12.6593 64.7097Z" fill="black"/>
    <path d="M14.2047 64.262C14.1615 64.2527 14.1235 64.2272 14.0985 64.1908C14.0736 64.1544 14.0635 64.1098 14.0704 64.0661C16.7094 49.9117 10.7144 41.6745 10.6703 41.5954C10.6535 41.578 10.6406 41.5573 10.6325 41.5346C10.6243 41.5119 10.6211 41.4877 10.6231 41.4637C10.625 41.4396 10.632 41.4163 10.6437 41.3952C10.6554 41.374 10.6714 41.3557 10.6908 41.3412C10.7101 41.3268 10.7323 41.3167 10.7559 41.3115C10.7795 41.3064 10.8039 41.3063 10.8275 41.3113C10.8511 41.3163 10.8733 41.3263 10.8928 41.3406C10.9122 41.3549 10.9283 41.3732 10.9402 41.3942C11.0002 41.4742 17.0789 49.831 14.4038 64.1279C14.3996 64.1497 14.3911 64.1706 14.3787 64.1892C14.3664 64.2078 14.3506 64.2238 14.3321 64.2362C14.3136 64.2487 14.2928 64.2574 14.271 64.2618C14.2491 64.2662 14.2266 64.2663 14.2047 64.262Z" fill="white"/>
    <path d="M10.7797 65.4351L12.9084 64.6067C12.9084 64.6067 13.857 60.6187 12.6232 55.4111C11.5513 50.869 7.8166 46.6858 5.55165 47.1003C3.28671 47.5147 3.10967 49.0509 3.91193 50.8097C4.7142 52.5685 10.5149 57.3562 10.7797 65.4351Z" fill="#EB6440"/>
    <path d="M11.8885 65.1646C11.8443 65.1575 11.8047 65.1332 11.7783 65.0971C11.7519 65.0609 11.7409 65.0158 11.7476 64.9715C13.1637 55.9838 5.63738 48.6149 5.56084 48.5437C5.53253 48.5118 5.51724 48.4705 5.51799 48.4279C5.51875 48.3853 5.5355 48.3446 5.56492 48.3138C5.59433 48.2829 5.63427 48.2643 5.67678 48.2616C5.7193 48.2589 5.76129 48.2722 5.7944 48.299C5.87398 48.3736 13.516 55.8638 12.0816 65.0237C12.0745 65.0679 12.0502 65.1075 12.014 65.1339C11.9779 65.1603 11.9328 65.1713 11.8885 65.1646Z" fill="white"/>
    <path d="M139.54 89.2926C140.154 89.8269 140.058 90.5369 139.245 90.951L94.9198 113.647C94.4215 113.868 93.8784 113.968 93.3341 113.941C92.7899 113.913 92.2597 113.759 91.7862 113.489L11.8626 61.7922C11.0897 61.2915 11.0624 60.5625 11.7655 60.0979C11.3442 60.3825 10.9902 60.7559 10.7284 61.1917C10.4666 61.6276 10.3033 62.1155 10.2499 62.6211L10.1453 64.6899C10.1463 65.2358 10.2763 65.7737 10.5247 66.2598C10.7731 66.7459 11.1329 67.1664 11.5747 67.487L91.4922 119.177C91.9649 119.449 92.4953 119.605 93.04 119.633C93.5846 119.66 94.1281 119.558 94.6258 119.335L138.963 96.6589C139.434 96.385 139.834 96.0034 140.131 95.5454C140.427 95.0874 140.61 94.5659 140.667 94.0234L140.772 91.9418C140.768 91.4378 140.656 90.9405 140.444 90.4835C140.231 90.0264 139.923 89.6203 139.54 89.2926Z" fill="#37474F"/>
    <path d="M139.342 89.1413L59.4214 37.4513C58.9478 37.1816 58.4176 37.0268 57.8734 36.9993C57.3292 36.9718 56.7861 37.0723 56.2878 37.2929L11.9533 59.9854C11.0617 60.4372 11.0239 61.2496 11.862 61.792L91.7857 113.485C92.2593 113.755 92.7894 113.91 93.3337 113.937C93.8779 113.965 94.421 113.864 94.9193 113.644L139.251 90.948C140.142 90.4961 140.183 89.684 139.342 89.1413ZM128.37 84.7398C129.087 85.2056 129.055 85.8996 128.292 86.2906L87.9791 106.92C87.5517 107.11 87.0855 107.197 86.6183 107.173C86.1511 107.15 85.696 107.016 85.29 106.784L23.0665 66.5355C22.3432 66.0694 22.3816 65.3725 23.1449 64.9847L63.458 44.3489C64.2215 43.9579 65.0046 43.7507 65.7249 44.2134L128.37 84.7398Z" fill="#455A64"/>
    <path d="M11.7655 60.0944C11.3442 60.379 10.9902 60.7524 10.7284 61.1882C10.4666 61.6241 10.3033 62.112 10.2499 62.6176L10.1453 64.6864C10.1471 65.2321 10.2774 65.7698 10.5258 66.2558C10.7741 66.7417 11.1335 67.1623 11.5747 67.4835L91.492 119.177C91.9618 119.458 92.4958 119.614 93.0431 119.63L93.3309 113.938C92.7849 113.921 92.2523 113.765 91.783 113.485L11.8624 61.7919C11.0895 61.2912 11.0623 60.5622 11.7655 60.0944Z" fill="#263238"/>
    <path d="M113.048 101.471C112.15 101.443 111.273 101.187 110.502 100.726C109.797 100.271 109.426 99.6815 109.457 99.0708C109.488 98.4601 109.917 97.9047 110.663 97.5289C112.125 96.7789 114.436 96.8958 115.815 97.7894C116.522 98.2451 116.893 98.8345 116.862 99.4452C116.832 100.056 116.403 100.611 115.653 100.987C114.84 101.367 113.943 101.533 113.048 101.471ZM113.252 97.4354C112.427 97.3774 111.6 97.5309 110.851 97.8814C110.239 98.1935 109.89 98.6215 109.867 99.0851C109.843 99.5487 110.141 100.006 110.724 100.382C111.44 100.791 112.243 101.026 113.067 101.068C113.89 101.109 114.712 100.956 115.466 100.622C116.078 100.306 116.427 99.8816 116.45 99.4179C116.474 98.9543 116.176 98.4937 115.593 98.1212C114.884 97.6969 114.078 97.4609 113.252 97.4354Z" fill="#E6E6E6"/>
    <path d="M38.1287 51.2877C38.7269 50.9974 38.755 50.441 38.19 50.0758C37.8729 49.894 37.5174 49.7896 37.1523 49.7711C36.7873 49.7527 36.423 49.8207 36.0892 49.9696C35.4943 50.2601 35.466 50.8197 36.028 51.1815C36.345 51.3634 36.7006 51.4678 37.0656 51.4862C37.4307 51.5047 37.795 51.4367 38.1287 51.2877Z" fill="black"/>
    <path d="M36.8889 55.274L45.2346 50.9996C45.7315 50.7458 45.7792 50.309 45.3384 50.0239C45.0795 49.8815 44.7905 49.8023 44.4952 49.793C44.1998 49.7836 43.9064 49.8443 43.6389 49.97L35.2938 54.2317C34.7969 54.4854 34.7492 54.9222 35.19 55.2074C35.4481 55.3509 35.7364 55.4318 36.0315 55.4434C36.3266 55.455 36.6203 55.3969 36.8889 55.274Z" fill="black"/>
    <path opacity="0.8" d="M65.7206 44.2292C65.0002 43.7664 64.2172 43.9737 63.4537 44.3646L23.1414 64.9845C22.3813 65.3724 22.3428 66.0693 23.063 66.5353L85.2905 106.768C85.6965 107 86.1516 107.134 86.6188 107.157C87.086 107.181 87.5522 107.094 87.9796 106.904L128.289 86.268C129.056 85.8772 129.088 85.1832 128.368 84.7172L65.7206 44.2292Z" fill="white"/>
    <path d="M69.5821 66.9194L65.3761 69.0758L66.7558 75.3293C66.777 75.3832 66.8137 75.4297 66.8613 75.4629L70.1635 77.611C70.2006 77.6338 70.2423 77.6482 70.2856 77.653C70.3289 77.6578 70.3727 77.6529 70.4139 77.6387C70.4551 77.6246 70.4926 77.6014 70.5238 77.571C70.5549 77.5406 70.579 77.5036 70.5942 77.4628L72.8749 69.0638L69.5821 66.9194Z" fill="#EB6440"/>
    <path d="M72.8752 69.0613L70.5945 77.4604C70.5744 77.5161 70.5378 77.5644 70.4895 77.5989C70.4413 77.6333 70.3837 77.6522 70.3245 77.653C70.2652 77.6538 70.2071 77.6366 70.1579 77.6035C70.1087 77.5705 70.0707 77.5232 70.0491 77.4681L68.6695 71.2145L72.8752 69.0613Z" fill="#EB6440"/>
    <path opacity="0.4" d="M72.8752 69.0613L70.5945 77.4604C70.5744 77.5161 70.5378 77.5644 70.4895 77.5989C70.4413 77.6333 70.3837 77.6522 70.3245 77.653C70.2652 77.6538 70.2071 77.6366 70.1579 77.6035C70.1087 77.5705 70.0707 77.5232 70.0491 77.4681L68.6695 71.2145L72.8752 69.0613Z" fill="black"/>
    <path d="M65.3764 69.0766L68.6727 71.2147L70.049 77.4713C70.0669 77.5156 70.0945 77.5553 70.1297 77.5876C69.8192 77.3892 66.9978 75.5571 66.8615 75.4637C66.8133 75.4312 66.7764 75.3845 66.756 75.3301L65.3764 69.0766Z" fill="#EB6440"/>
    <path opacity="0.5" d="M65.3764 69.0766L68.6727 71.2147L70.049 77.4713C70.0669 77.5156 70.0945 77.5553 70.1297 77.5876C69.8192 77.3892 66.9978 75.5571 66.8615 75.4637C66.8133 75.4312 66.7764 75.3845 66.756 75.3301L65.3764 69.0766Z" fill="black"/>
    <path d="M83.5147 25.4497L56.4276 39.3137C56.2852 39.3969 56.1643 39.5125 56.0749 39.6511C55.9855 39.7898 55.93 39.9475 55.9128 40.1116L54.1388 75.2012C54.1394 75.3657 54.1792 75.5276 54.2549 75.6736C54.3306 75.8196 54.44 75.9455 54.574 76.0407L56.2202 77.0856C56.3651 77.1684 56.5274 77.216 56.6941 77.2244C56.8607 77.2328 57.027 77.2019 57.1795 77.1341L84.2763 63.2674C84.4188 63.185 84.5397 63.0701 84.6292 62.9319C84.7187 62.7938 84.7741 62.6364 84.7909 62.4727L86.5656 27.3702C86.5646 27.2047 86.524 27.0418 86.4472 26.8952C86.3704 26.7485 86.2596 26.6224 86.1241 26.5273L84.4747 25.4822C84.3286 25.4015 84.1654 25.3565 83.9986 25.3509C83.8318 25.3452 83.6659 25.3791 83.5147 25.4497Z" fill="#EB6440"/>
    <path d="M56.7095 76.8472L58.4848 41.7319C58.5033 41.5675 58.5604 41.4099 58.6515 41.2718C58.7426 41.1338 58.8651 41.0193 59.009 40.9377L86.1089 27.0743C86.3788 26.9341 86.5836 27.0695 86.5684 27.37L84.7932 62.4821C84.7764 62.6458 84.721 62.8032 84.6315 62.9413C84.5421 63.0795 84.4211 63.1944 84.2786 63.2767L57.1786 77.1434C56.9023 77.2833 56.6943 77.1477 56.7095 76.8472Z" fill="#EB6440"/>
    <path opacity="0.5" d="M57.1786 77.1507C57.0285 77.2143 56.8659 77.2431 56.7031 77.2348C56.5403 77.2266 56.3815 77.1816 56.2385 77.1032L54.5933 76.039C54.4593 75.9445 54.3498 75.8193 54.2741 75.6738C54.1983 75.5283 54.1585 75.3668 54.1579 75.2028L55.932 40.1131C55.9466 39.9419 56.007 39.7778 56.1067 39.6379L58.6654 41.2739C58.572 41.4105 58.5154 41.5688 58.5011 41.7336L56.7258 76.8489C56.7146 76.906 56.7205 76.9652 56.7429 77.019C56.7652 77.0728 56.803 77.1187 56.8515 77.151C56.8999 77.1833 56.9569 77.2005 57.0151 77.2004C57.0733 77.2004 57.1302 77.1831 57.1786 77.1507Z" fill="black"/>
    <path opacity="0.2" d="M86.5537 27.2832C86.5305 27.0448 86.3397 26.9518 86.0964 27.0709L59.0092 40.9382C58.8646 41.0176 58.7428 41.1329 58.6557 41.273L56.0937 39.6368C56.1778 39.5031 56.2935 39.3922 56.4306 39.314L83.5144 25.4498C83.6668 25.3815 83.8332 25.3503 83.9999 25.3587C84.1666 25.3671 84.329 25.4149 84.4737 25.4982L86.1167 26.543C86.2384 26.6278 86.3404 26.7378 86.4158 26.8656C86.4912 26.9933 86.5382 27.1357 86.5537 27.2832Z" fill="black"/>
    <path opacity="0.3" d="M73.39 39.5826C73.9602 38.5725 73.9344 37.4781 73.3323 37.1383C72.7302 36.7984 71.7799 37.3418 71.2097 38.3519C70.6395 39.362 70.6654 40.4564 71.2674 40.7962C71.8695 41.1361 72.8198 40.5927 73.39 39.5826Z" fill="white"/>
    <path opacity="0.5" d="M68.7676 41.3895C69.2131 41.9634 68.9988 43.1579 68.3123 44.056C67.6257 44.9542 66.686 45.2176 66.2373 44.6436C65.7887 44.0695 66.0062 42.8751 66.6927 41.977C67.3793 41.0788 68.3126 40.8151 68.7676 41.3895Z" fill="white"/>
    <path opacity="0.6" d="M64.8997 47.2532C65.6723 47.1896 66.0512 48.0006 65.7473 49.0656C65.4435 50.1305 64.5735 51.0418 63.8009 51.1054C63.0284 51.1689 62.6494 50.3579 62.9533 49.293C63.2572 48.228 64.1367 47.3172 64.8997 47.2532Z" fill="white"/>
    <path opacity="0.7" d="M63.6745 53.6213C64.4782 52.9439 65.3056 53.0626 65.5044 53.8869C65.7031 54.7112 65.2313 55.928 64.4277 56.6054C63.6241 57.2829 62.7966 57.1641 62.5978 56.3398C62.3991 55.5155 62.8709 54.2988 63.6745 53.6213Z" fill="white"/>
    <path opacity="0.75" d="M67.8041 59.1591C68.3743 58.149 68.3485 57.0546 67.7464 56.7147C67.1443 56.3749 66.194 56.9182 65.6238 57.9283C65.0536 58.9385 65.0795 60.0328 65.6815 60.3727C66.2836 60.7126 67.2339 60.1692 67.8041 59.1591Z" fill="white"/>
    <path opacity="0.8" d="M72.4185 58.7803C72.9887 57.7702 72.9629 56.6758 72.3608 56.336C71.7588 55.9961 70.8085 56.5395 70.2383 57.5496C69.6681 58.5597 69.6939 59.6541 70.296 59.9939C70.898 60.3338 71.8483 59.7904 72.4185 58.7803Z" fill="white"/>
    <path opacity="0.85" d="M74.8598 55.7512C74.4144 55.1773 74.6287 53.9828 75.3152 53.0847C76.0018 52.1865 76.9447 51.9233 77.3902 52.4972C77.8356 53.0711 77.6213 54.2656 76.9348 55.1637C76.2482 56.0619 75.3053 56.3251 74.8598 55.7512Z" fill="white"/>
    <path opacity="0.9" d="M78.7278 49.8749C77.9552 49.9384 77.5762 49.1275 77.8801 48.0625C78.184 46.9976 79.0541 46.083 79.8267 46.0195C80.5993 45.956 80.9781 46.7702 80.6743 47.8319C80.3706 48.8937 79.4999 49.821 78.7278 49.8749Z" fill="white"/>
    <path d="M79.9529 43.5257C79.1492 44.2031 78.3218 44.0844 78.123 43.2601C77.9242 42.4358 78.3961 41.219 79.1996 40.5448C80.003 39.8705 80.8307 39.9861 81.0294 40.8104C81.2282 41.6347 80.7568 42.8419 79.9529 43.5257Z" fill="white"/>
    <path opacity="0.15" d="M78.0712 39.0816C77.5446 40.1128 76.5965 40.7317 75.9562 40.4621C75.3158 40.1925 75.2247 39.1428 75.7546 38.1085C76.2845 37.0742 77.2293 36.4584 77.8698 36.7248C78.5103 36.9912 78.5978 38.0503 78.0712 39.0816Z" fill="white"/>
    <path d="M65.0208 68.945C65.0295 68.9377 65.0405 68.934 65.0518 68.9346C65.0631 68.9352 65.0737 68.94 65.0816 68.948C65.0909 68.961 65.0975 68.9758 65.1012 68.9913C65.1048 69.0069 65.1053 69.0231 65.1026 69.0388L65.0734 69.6176C65.0724 69.6586 65.0615 69.6987 65.0418 69.7346C65.0299 69.767 65.007 69.7943 64.977 69.8115L63.4568 70.5873C63.4527 70.5913 63.4478 70.5944 63.4425 70.5964C63.4371 70.5984 63.4314 70.5993 63.4257 70.599C63.42 70.5987 63.4144 70.5973 63.4093 70.5947C63.4042 70.5922 63.3997 70.5886 63.396 70.5843C63.3789 70.5573 63.3715 70.5252 63.375 70.4935L63.5536 66.9602C63.5566 66.9195 63.5673 66.8798 63.5851 66.8432C63.5991 66.8129 63.6216 66.7873 63.6498 66.7695L64.0809 66.5477C64.0896 66.5404 64.1007 66.5367 64.1119 66.5373C64.1232 66.5379 64.1338 66.5427 64.1417 66.5507C64.1591 66.5776 64.1665 66.6098 64.1628 66.6416L64.0208 69.449L65.0208 68.945Z" fill="#FAFAFA"/>
    <path d="M65.525 67.2014C65.5423 66.992 65.5785 66.7846 65.6333 66.5817C65.6886 66.3839 65.7638 66.1922 65.8578 66.0096C65.9521 65.8359 66.0679 65.6749 66.2026 65.5302C66.3264 65.3933 66.4732 65.2792 66.6364 65.1931C66.7644 65.1198 66.9108 65.0849 67.0582 65.0926C67.179 65.1018 67.2913 65.1581 67.3708 65.2494C67.4606 65.3547 67.5216 65.4815 67.5478 65.6174C67.5861 65.793 67.6039 65.9725 67.6009 66.1523C67.593 66.3089 67.5847 66.472 67.5761 66.6415C67.5676 66.8109 67.56 66.9612 67.5516 67.1275C67.5319 67.3357 67.4947 67.5419 67.4403 67.7438C67.3873 67.9444 67.3119 68.1385 67.2155 68.3223C67.1231 68.4961 67.0071 68.6564 66.8708 68.7985C66.7479 68.9353 66.6009 69.0485 66.4372 69.1324C66.3105 69.2094 66.1632 69.2456 66.0152 69.2361C65.9555 69.2327 65.897 69.2173 65.8433 69.1909C65.7896 69.1645 65.7417 69.1277 65.7024 69.0825C65.6164 68.9736 65.556 68.8467 65.5256 68.7113C65.487 68.5347 65.4702 68.3541 65.4759 68.1734C65.4833 68.0263 65.4921 67.8536 65.5 67.697C65.5079 67.5403 65.5138 67.3611 65.525 67.2014ZM66.9186 67.4097C66.922 67.3425 66.9257 67.269 66.9299 67.1858C66.9341 67.1027 66.9382 67.0228 66.9424 66.9396C66.9466 66.8565 66.9508 66.7733 66.9547 66.6966C66.9585 66.6199 66.9621 66.5495 66.9652 66.4888C66.9668 66.4108 66.9589 66.3329 66.9416 66.2568C66.9329 66.1982 66.9092 66.1429 66.8728 66.0962C66.844 66.0583 66.8016 66.0332 66.7545 66.0261C66.6933 66.0232 66.6324 66.0379 66.5793 66.0685C66.5112 66.1045 66.4501 66.1525 66.399 66.2101C66.3461 66.2699 66.3018 66.3367 66.2672 66.4086C66.23 66.4853 66.2002 66.5654 66.1781 66.6477C66.1545 66.7362 66.1392 66.8266 66.1324 66.9179C66.1292 66.9819 66.1256 67.0522 66.1216 67.1321L66.0969 67.6214C66.0928 67.7013 66.0893 67.7716 66.086 67.8356C66.0745 67.9735 66.1055 68.1116 66.175 68.2312C66.2348 68.3176 66.3337 68.3258 66.4692 68.2461C66.6092 68.1751 66.7196 68.0569 66.781 67.9124C66.8545 67.7536 66.901 67.5837 66.9186 67.4097Z" fill="#FAFAFA"/>
    <path d="M69.3533 63.8494C69.3993 63.8261 69.4312 63.8309 69.4524 63.8544C69.4735 63.8834 69.4872 63.9171 69.4923 63.9526L70.0355 67.0319C70.036 67.0565 70.0348 67.081 70.0318 67.1054C70.0306 67.1398 70.0212 67.1734 70.0044 67.2034C69.9941 67.2288 69.9762 67.2503 69.9532 67.265L69.5387 67.4748C69.4958 67.4983 69.4637 67.4999 69.4491 67.4703C69.4322 67.4496 69.4213 67.4246 69.4175 67.3982L69.3483 66.9907L68.4763 67.4371L68.361 67.941C68.3529 67.9785 68.3392 68.0145 68.3204 68.0479C68.3003 68.0892 68.267 68.1225 68.2258 68.1425L67.8113 68.3524C67.8081 68.3556 67.8043 68.3582 67.8001 68.3598C67.7958 68.3615 67.7913 68.3622 67.7868 68.362C67.7822 68.3618 67.7778 68.3606 67.7737 68.3585C67.7697 68.3564 67.7662 68.3535 67.7633 68.35C67.7552 68.3395 67.7494 68.3274 67.7462 68.3146C67.743 68.3017 67.7425 68.2884 67.7447 68.2753C67.7447 68.2753 67.7471 68.2273 67.7492 68.1858L68.6402 64.384C68.6512 64.3336 68.6688 64.2849 68.6924 64.2392C68.7134 64.1904 68.7505 64.1504 68.7975 64.1259L69.3533 63.8494ZM68.7025 66.5125L69.2324 66.2412L69.0354 65.0643L68.7025 66.5125Z" fill="#FAFAFA"/>
    <path d="M71.6209 62.6917C71.7441 62.6208 71.8847 62.5857 72.0268 62.5904C72.1459 62.6007 72.2573 62.6542 72.3397 62.7409C72.4327 62.8484 72.4978 62.9772 72.5291 63.1159C72.5723 63.3027 72.5906 63.4945 72.5837 63.6861C72.5798 63.7628 72.5764 63.83 72.5731 63.8939L72.5547 64.2584C72.5516 64.3192 72.5481 64.3895 72.5444 64.4631C72.5269 64.6866 72.4878 64.9079 72.4276 65.124C72.3718 65.3287 72.2941 65.5268 72.1958 65.7149C72.1029 65.8875 71.987 66.0466 71.8513 66.188C71.7337 66.3201 71.5935 66.4302 71.4373 66.5133L70.549 66.9652C70.5403 66.9724 70.5292 66.9761 70.518 66.9756C70.5067 66.975 70.4961 66.9702 70.4882 66.9622C70.4708 66.9352 70.4634 66.9031 70.4671 66.8713L70.645 63.354C70.6479 63.3134 70.6587 63.2737 70.6765 63.237C70.6915 63.2065 70.7138 63.1801 70.7413 63.1602L71.6209 62.6917ZM71.9751 63.9919C71.996 63.5794 71.8426 63.4434 71.5595 63.5894L71.2302 63.7619L71.1251 65.8403L71.4771 65.6625C71.6229 65.5744 71.7426 65.4491 71.824 65.2994C71.9054 65.1497 71.9454 64.9811 71.9402 64.8108L71.9815 63.9922L71.9751 63.9919Z" fill="#FAFAFA"/>
    <path d="M73.0951 65.6673C73.0864 65.6745 73.0754 65.6782 73.0641 65.6777C73.0528 65.6771 73.0422 65.6723 73.0343 65.6642C73.025 65.6512 73.0184 65.6365 73.0148 65.6209C73.0112 65.6053 73.0106 65.5892 73.0133 65.5734L73.1924 62.0305C73.1934 61.9896 73.2042 61.9495 73.224 61.9135C73.2351 61.8807 73.2582 61.8532 73.2887 61.8367L73.7166 61.6179C73.7207 61.6139 73.7255 61.6108 73.7309 61.6088C73.7362 61.6068 73.7419 61.6059 73.7476 61.6062C73.7533 61.6065 73.7589 61.608 73.764 61.6105C73.7691 61.613 73.7736 61.6166 73.7773 61.6209C73.7958 61.6474 73.8033 61.6799 73.7984 61.7118L73.6196 65.2482C73.618 65.2891 73.6072 65.3291 73.588 65.3652C73.576 65.3967 73.553 65.4229 73.5234 65.4389L73.0951 65.6673Z" fill="#FAFAFA"/>
    <path d="M75.7317 64.3157C75.6922 64.3361 75.6634 64.3347 75.6422 64.3111C75.6256 64.2951 75.6124 64.2759 75.6034 64.2547L74.9443 62.7692L74.8507 64.6206C74.8492 64.6614 74.8384 64.7014 74.8192 64.7376C74.8072 64.7691 74.7842 64.7952 74.7546 64.8112L74.3266 65.0332C74.3179 65.0405 74.3069 65.0441 74.2956 65.0436C74.2843 65.043 74.2737 65.0382 74.2658 65.0302C74.2565 65.0171 74.2499 65.0024 74.2463 64.9868C74.2427 64.9713 74.2421 64.9551 74.2448 64.9393L74.4237 61.3997C74.4247 61.3587 74.4356 61.3186 74.4553 61.2827C74.4672 61.2502 74.4901 61.223 74.5201 61.2058L74.8495 61.0301C74.8889 61.0129 74.9177 61.0143 74.9391 61.0346C74.9562 61.049 74.9696 61.0672 74.9781 61.0879L75.6371 62.5734L75.7305 60.7252C75.7315 60.6843 75.7423 60.6441 75.7621 60.6082C75.774 60.5758 75.7969 60.5486 75.8269 60.5313L76.2547 60.3125C76.2588 60.3086 76.2636 60.3055 76.269 60.3035C76.2743 60.3015 76.28 60.3006 76.2857 60.3009C76.2914 60.3012 76.297 60.3026 76.3021 60.3052C76.3072 60.3077 76.3117 60.3112 76.3154 60.3156C76.3339 60.342 76.3414 60.3746 76.3365 60.4064L76.1577 63.9429C76.1563 63.9838 76.1455 64.0239 76.1261 64.0599C76.1141 64.0914 76.0911 64.1176 76.0615 64.1336L75.7317 64.3157Z" fill="#FAFAFA"/>
    <path d="M77.8775 60.2855C77.8056 60.3226 77.7412 60.3726 77.6874 60.433C77.6367 60.495 77.5935 60.5628 77.5585 60.6348C77.5222 60.7111 77.4955 60.7916 77.4791 60.8745C77.4594 60.9594 77.4444 61.0453 77.434 61.1318C77.4266 61.1987 77.4232 61.266 77.4239 61.3333L77.4106 61.5955C77.4061 61.685 77.4017 61.7713 77.3975 61.8545C77.3933 61.9376 77.3899 62.0048 77.3876 62.0495C77.3861 62.125 77.3919 62.2005 77.4051 62.2748C77.4138 62.3341 77.435 62.3909 77.4672 62.4414C77.4804 62.4617 77.4977 62.479 77.5181 62.4922C77.5384 62.5054 77.5612 62.5142 77.5852 62.5179C77.6491 62.5233 77.713 62.5073 77.767 62.4726C77.8268 62.4435 77.8817 62.4051 77.9298 62.359C77.9837 62.3085 78.0298 62.2504 78.0667 62.1864C78.1079 62.114 78.1409 62.0372 78.1649 61.9574C78.1925 61.8611 78.2083 61.7618 78.2119 61.6616L77.9355 61.8015C77.9269 61.8088 77.9158 61.8125 77.9046 61.8119C77.8933 61.8113 77.8827 61.8065 77.8748 61.7985C77.8574 61.7716 77.85 61.7394 77.8537 61.7076L77.883 61.1289C77.886 61.0882 77.8967 61.0485 77.9146 61.0119C77.9287 60.9808 77.9511 60.9542 77.9793 60.935L78.7756 60.5297C78.7843 60.5224 78.7953 60.5188 78.8066 60.5193C78.8179 60.5199 78.8285 60.5247 78.8364 60.5327C78.8536 60.5585 78.8611 60.5896 78.8576 60.6204L78.8222 61.3206C78.8118 61.5478 78.7746 61.773 78.7113 61.9914C78.6539 62.1948 78.573 62.3908 78.4702 62.5755C78.3758 62.744 78.2602 62.8998 78.1262 63.039C78.007 63.1605 77.8687 63.2618 77.7168 63.3388C77.5916 63.4131 77.4466 63.4472 77.3015 63.4364C77.1807 63.4273 77.0684 63.3709 76.9889 63.2796C76.8999 63.1721 76.8381 63.0447 76.8089 62.9082C76.7702 62.7349 76.7534 62.5575 76.7586 62.38C76.7661 62.2329 76.7748 62.0602 76.7829 61.9003C76.791 61.7405 76.7991 61.5806 76.808 61.4047C76.8223 61.1971 76.8585 60.9915 76.9159 60.7915C76.9712 60.5927 77.0465 60.3999 77.1405 60.2162C77.2357 60.042 77.3515 59.88 77.4855 59.7335C77.6069 59.5976 77.7516 59.4844 77.9127 59.3993C78.0367 59.328 78.1787 59.294 78.3216 59.3014C78.4317 59.3097 78.5363 59.3532 78.6199 59.4254C78.7017 59.5012 78.764 59.5956 78.8015 59.7007C78.841 59.8129 78.861 59.931 78.8608 60.0499C78.8589 60.0828 78.8508 60.1151 78.8367 60.1449C78.8253 60.1713 78.8063 60.1937 78.7822 60.2094L78.3446 60.4309C78.3117 60.4485 78.2871 60.428 78.2711 60.4272C78.2523 60.4053 78.2353 60.3819 78.2201 60.3573C78.1936 60.3077 78.1534 60.2668 78.1043 60.2393C78.0637 60.218 77.9861 60.2301 77.8775 60.2855Z" fill="#FAFAFA"/>
    <path d="M147.786 103.021L145.212 102.176L146.483 95.9904L149.057 96.8356L147.786 103.021Z" fill="#FFB573"/>
    <path d="M170.174 103.053H167.462L166.79 96.7812H169.498L170.174 103.053Z" fill="#FFB573"/>
    <path d="M167.242 102.74H170.543C170.597 102.74 170.65 102.758 170.692 102.792C170.734 102.826 170.764 102.873 170.776 102.925L171.311 105.333C171.324 105.392 171.323 105.453 171.309 105.511C171.294 105.569 171.267 105.624 171.229 105.67C171.191 105.717 171.143 105.754 171.088 105.779C171.034 105.805 170.974 105.817 170.914 105.816C169.851 105.797 169.076 105.736 167.738 105.736C166.912 105.736 164.431 105.82 163.294 105.82C162.158 105.82 162.014 104.696 162.471 104.593C164.559 104.139 166.134 103.508 166.8 102.906C166.923 102.799 167.079 102.74 167.242 102.74Z" fill="#263238"/>
    <path d="M145.256 101.77L148.109 102.554C148.16 102.569 148.205 102.601 148.237 102.644C148.268 102.688 148.284 102.741 148.282 102.794L148.157 105.259C148.154 105.319 148.138 105.377 148.11 105.43C148.082 105.482 148.042 105.528 147.993 105.562C147.945 105.597 147.889 105.621 147.831 105.631C147.772 105.641 147.712 105.638 147.654 105.621C146.63 105.32 145.16 104.85 143.867 104.491C142.356 104.075 142.074 103.931 140.3 103.444C139.228 103.146 139.228 101.981 139.705 102.007C141.872 102.122 142.506 102.4 144.571 101.798C144.792 101.725 145.03 101.715 145.256 101.77Z" fill="#263238"/>
    <path d="M158.601 20.7342C158.428 20.9583 158.297 21.1248 158.143 21.3137C157.99 21.5026 157.842 21.6691 157.689 21.8452C157.368 22.1942 157.048 22.5335 156.728 22.8665C156.082 23.5452 155.398 24.1866 154.679 24.7875C153.193 26.0731 151.491 27.0854 149.653 27.7778C149.146 27.9565 148.624 28.0905 148.093 28.178C147.959 28.1972 147.821 28.2228 147.684 28.2388L147.264 28.2772C147.087 28.2879 146.91 28.2879 146.733 28.2772C146.558 28.2672 146.384 28.2479 146.211 28.2196C145.647 28.1177 145.099 27.9456 144.578 27.7073C144.126 27.5098 143.687 27.282 143.265 27.0254C142.47 26.5461 141.709 26.0112 140.989 25.4246C140.277 24.8601 139.603 24.2505 138.969 23.5997L140.195 21.9797C141.7 22.7256 143.24 23.5132 144.712 24.0799C145.081 24.2176 145.442 24.3425 145.782 24.4385C146.068 24.5239 146.364 24.5745 146.662 24.589C146.704 24.5911 146.746 24.5911 146.787 24.589C146.81 24.589 146.806 24.589 146.906 24.5634L147.13 24.5249L147.36 24.4705C147.511 24.4385 147.68 24.3745 147.824 24.3328C147.969 24.2912 148.145 24.2208 148.298 24.1472C148.968 23.8613 149.604 23.5039 150.197 23.081C150.839 22.6415 151.452 22.1603 152.031 21.6403C152.63 21.1216 153.203 20.5549 153.767 19.9787C154.048 19.6905 154.324 19.3928 154.589 19.0918L154.986 18.6404L155.351 18.2114L158.601 20.7342Z" fill="#FFB573"/>
    <path d="M160.09 19.4015C160.289 21.982 154.475 27.2519 154.475 27.2519L149.333 22.7952C149.333 22.7952 151.497 20.5029 153.931 18.1945C155.602 16.6097 159.873 16.6065 160.09 19.4015Z" fill="white"/>
    <path d="M160.09 19.4015C160.289 21.982 154.475 27.2519 154.475 27.2519L149.333 22.7952C149.333 22.7952 151.497 20.5029 153.931 18.1945C155.602 16.6097 159.873 16.6065 160.09 19.4015Z" fill="#EB6440"/>
    <path opacity="0.2" d="M157.461 20.7334C155.073 20.9511 153.546 22.8721 152.876 24.9948C152.803 25.2317 152.739 25.475 152.688 25.7151L154.468 27.2583C154.468 27.2583 157.115 24.8603 158.774 22.5071C158.863 21.3898 158.547 20.631 157.461 20.7334Z" fill="black"/>
    <path d="M140.812 23.1477L139.932 20.9066L136.929 21.8286C137.582 22.5226 138.303 23.15 139.08 23.7016L140.812 23.1477Z" fill="#FFB573"/>
    <path d="M138.427 19.1679L135.949 20.1604L136.938 21.8349L139.942 20.9128L138.427 19.1679Z" fill="#FFB573"/>
    <path opacity="0.2" d="M146.482 95.9939L145.717 99.7078L148.33 100.374L149.057 96.8391L146.482 95.9939Z" fill="black"/>
    <path opacity="0.2" d="M169.498 96.7812H166.79L167.139 100.015H169.847L169.498 96.7812Z" fill="black"/>
    <path d="M171.1 18.1496C170.305 21.0737 169.729 24.0531 169.377 27.0629C169.121 29.1599 168.968 31.1641 168.872 32.9827C168.648 37.2408 168.74 40.4872 168.612 41.5854L154.157 40.5833C152.191 25.1707 155.95 17.2307 155.95 17.2307C157.093 17.0184 158.247 16.8762 159.408 16.8049C159.653 16.7878 159.903 16.7782 160.157 16.7761C162.211 16.8037 164.263 16.9491 166.301 17.2115C166.688 17.2595 167.079 17.314 167.46 17.3748C169.397 17.6789 171.1 18.1496 171.1 18.1496Z" fill="white"/>
    <path d="M171.1 18.1496C170.305 21.0737 169.729 24.0531 169.377 27.0629C169.121 29.1599 168.968 31.1641 168.872 32.9827C168.648 37.2408 168.74 40.4872 168.612 41.5854L154.157 40.5833C152.191 25.1707 155.95 17.2307 155.95 17.2307C157.093 17.0184 158.247 16.8762 159.408 16.8049C159.653 16.7878 159.903 16.7782 160.157 16.7761C162.211 16.8037 164.263 16.9491 166.301 17.2115C166.688 17.2595 167.079 17.314 167.46 17.3748C169.397 17.6789 171.1 18.1496 171.1 18.1496Z" fill="#EB6440"/>
    <path opacity="0.2" d="M167.447 22.049C167.423 24.2659 168.045 26.4419 169.237 28.3113C169.278 27.9015 169.326 27.4821 169.377 27.0627C169.57 25.4843 169.819 23.8611 170.149 22.2027L167.447 22.049Z" fill="black"/>
    <path d="M166.176 10.238C165.648 12.1878 165.011 15.7832 166.301 17.1983C165.648 17.7908 164.875 18.2363 164.035 18.5048C163.195 18.7732 162.307 18.8583 161.431 18.7543C159.734 18.5974 159.731 17.4032 160.151 16.7693C162.392 16.3979 162.449 14.7587 162.171 13.1963L166.176 10.238Z" fill="#FFB573"/>
    <path opacity="0.2" d="M164.546 11.4489L162.18 13.1969C162.25 13.5611 162.288 13.9307 162.292 14.3015C163.144 14.2375 164.364 13.3954 164.518 12.5182C164.591 12.1664 164.601 11.8041 164.546 11.4489Z" fill="black"/>
    <path d="M161.879 7.32211C161.239 8.22817 159.558 6.56013 159.622 5.08098C162.055 4.76082 160.903 2.97753 163.112 3.43536C164.949 3.79714 162.583 6.32641 161.879 7.32211Z" fill="#263238"/>
    <path d="M167.942 7.90821C167.129 10.4695 166.783 12.0127 165.131 13.0308C162.647 14.5419 159.737 12.5409 159.769 9.78755C159.797 7.30951 161.126 3.53481 163.931 3.14101C164.548 3.05126 165.178 3.12055 165.761 3.34234C166.344 3.56412 166.861 3.93106 167.263 4.4084C167.665 4.88575 167.938 5.45772 168.057 6.07016C168.176 6.6826 168.136 7.31524 167.942 7.90821Z" fill="#FFB573"/>
    <path d="M166.406 10.2388C166.282 9.60651 166.246 8.9599 166.301 8.31779C166.393 7.81563 166.551 7.32792 166.771 6.86746C166.771 6.86746 165.238 5.9614 165.203 4.86965C165.203 4.86965 162.462 5.67646 160.999 4.44384C159.536 3.21122 160.842 1.7865 160.093 1.24223C161.886 1.06934 162.43 2.15789 163.563 1.92097C164.697 1.68405 163.695 0.886847 163.845 0C167.261 2.94228 168.747 1.56239 170.405 3.24643C171.465 4.32218 170.351 6.33919 170.351 6.33919C170.351 6.33919 172.041 9.20784 166.406 10.2388Z" fill="#263238"/>
    <path d="M169.806 6.27797C169.806 6.27797 171.483 6.62374 171.528 4.86606C172.393 6.64615 171.31 6.92469 169.806 6.27797Z" fill="#263238"/>
    <path d="M162.238 10.3508C162.543 10.4352 162.863 10.4449 163.173 10.3791C163.482 10.3134 163.771 10.1741 164.015 9.97305C164.028 9.95985 164.035 9.94202 164.035 9.92342C164.035 9.90483 164.028 9.88699 164.015 9.8738C164.002 9.86165 163.985 9.85489 163.967 9.85489C163.949 9.85489 163.932 9.86165 163.919 9.8738C163.69 10.0569 163.422 10.1836 163.136 10.2437C162.849 10.3037 162.553 10.2955 162.27 10.2196C162.252 10.2163 162.233 10.2197 162.217 10.2291C162.201 10.2385 162.189 10.2533 162.184 10.2708C162.181 10.2885 162.186 10.3063 162.196 10.321C162.206 10.3357 162.221 10.3463 162.238 10.3508Z" fill="#263238"/>
    <path d="M168.397 10.7379C168.156 10.9692 167.87 11.1505 167.558 11.2714C167.246 11.3922 166.913 11.4503 166.579 11.4422C165.682 11.4166 165.5 10.5522 165.971 9.84141C166.396 9.20108 167.373 8.45511 168.167 8.82649C168.961 9.19788 168.986 10.168 168.397 10.7379Z" fill="#FFB573"/>
    <path d="M145 98.373L149.422 99.5896C149.422 99.5896 154.96 82.1312 156.321 72.5424C156.683 69.9971 157.24 66.4241 158.088 62.6174C159.164 57.8149 160.509 52.6251 161.61 48.5591C162.775 44.2753 163.659 41.2466 163.659 41.2466L154.157 40.5839C154.157 40.5839 150.267 61.8714 149.354 70.0899C148.413 78.6318 145 98.373 145 98.373Z" fill="#272739"/>
    <path opacity="0.3" d="M145 98.373L149.422 99.5896C149.422 99.5896 154.96 82.1312 156.321 72.5424C156.683 69.9971 157.24 66.4241 158.088 62.6174C159.164 57.8149 160.509 52.6251 161.61 48.5591C162.775 44.2753 163.659 41.2466 163.659 41.2466L154.157 40.5839C154.157 40.5839 150.267 61.8714 149.354 70.0899C148.413 78.6318 145 98.373 145 98.373Z" fill="#272739"/>
    <path opacity="0.2" d="M158.101 62.6143C159.177 57.8119 160.521 52.6221 161.623 48.556L160.637 46.4302C158.268 49.2284 157.634 57.9016 158.101 62.6143Z" fill="black"/>
    <path d="M159.283 40.9381C159.283 40.9381 160.31 64.1306 161.453 71.9937C162.705 80.5965 165.888 99.3963 165.888 99.3963H170.847C170.847 99.3963 169.208 79.6136 168.481 71.1677C167.655 61.5629 168.612 41.5944 168.612 41.5944L159.283 40.9381Z" fill="#272739"/>
    <path opacity="0.3" d="M159.283 40.9381C159.283 40.9381 160.31 64.1306 161.453 71.9937C162.705 80.5965 165.888 99.3963 165.888 99.3963H170.847C170.847 99.3963 169.208 79.6136 168.481 71.1677C167.655 61.5629 168.612 41.5944 168.612 41.5944L159.283 40.9381Z" fill="#272739"/>
    <path d="M165.292 99.4965H171.135V97.7516L164.604 97.6396L165.292 99.4965Z" fill="#EB6440"/>
    <path d="M144.693 98.3988L149.688 99.7755L150.405 98.0563L144.716 96.4779L144.693 98.3988Z" fill="#EB6440"/>
    <path d="M163.813 7.64246C163.761 7.85377 163.605 7.99784 163.467 7.96262C163.329 7.92741 163.259 7.72891 163.313 7.5176C163.368 7.30629 163.521 7.16222 163.659 7.19744C163.797 7.23266 163.864 7.43116 163.813 7.64246Z" fill="#263238"/>
    <path d="M161.419 7.03989C161.364 7.2512 161.211 7.39527 161.073 7.36005C160.935 7.32483 160.865 7.12633 160.916 6.91182C160.967 6.69732 161.127 6.55645 161.265 6.59166C161.403 6.62688 161.473 6.82858 161.419 7.03989Z" fill="#263238"/>
    <path d="M162.155 7.33768C161.739 7.92135 161.244 8.44493 160.685 8.89366C160.974 9.33868 161.691 9.29386 161.691 9.29386L162.155 7.33768Z" fill="#ED893E"/>
    <path d="M164.751 7.05585C164.727 7.05399 164.704 7.0455 164.685 7.03136C164.665 7.01721 164.651 6.99798 164.642 6.97581C164.583 6.82629 164.489 6.69273 164.369 6.58594C164.249 6.47916 164.106 6.40214 163.95 6.3611C163.916 6.35486 163.886 6.33559 163.867 6.30745C163.847 6.27932 163.839 6.24455 163.844 6.21063C163.848 6.19398 163.854 6.17811 163.863 6.16393C163.872 6.14974 163.884 6.13754 163.898 6.12801C163.912 6.11848 163.928 6.11183 163.945 6.10842C163.961 6.10502 163.978 6.10493 163.995 6.10818C164.193 6.15677 164.376 6.25182 164.53 6.38546C164.683 6.51909 164.803 6.68745 164.879 6.87656C164.892 6.90804 164.892 6.94334 164.879 6.975C164.867 7.00667 164.842 7.03221 164.811 7.04625C164.792 7.05255 164.771 7.05578 164.751 7.05585Z" fill="#263238"/>
    <path d="M160.598 5.95811C160.57 5.95499 160.545 5.94385 160.524 5.92609C160.5 5.90215 160.487 5.86997 160.487 5.83645C160.487 5.80293 160.5 5.77074 160.524 5.7468C160.652 5.58754 160.816 5.46114 161.002 5.37816C161.189 5.29518 161.393 5.25801 161.596 5.26976C161.63 5.27455 161.661 5.29225 161.682 5.31914C161.703 5.34602 161.712 5.37998 161.709 5.41384C161.703 5.44721 161.685 5.47728 161.658 5.49805C161.632 5.51882 161.598 5.52876 161.564 5.52589C161.404 5.51833 161.243 5.54924 161.097 5.61606C160.95 5.68288 160.822 5.78368 160.722 5.91008C160.707 5.92759 160.688 5.9411 160.666 5.94947C160.644 5.95783 160.621 5.9608 160.598 5.95811Z" fill="#263238"/>
    <path d="M166.345 103.213C166.161 103.227 165.977 103.178 165.823 103.075C165.775 103.034 165.738 102.981 165.715 102.922C165.692 102.863 165.684 102.799 165.692 102.736C165.692 102.698 165.702 102.662 165.721 102.629C165.74 102.597 165.768 102.571 165.801 102.553C166.102 102.4 166.976 102.938 167.082 102.998C167.093 103.005 167.101 103.015 167.107 103.027C167.112 103.039 167.113 103.053 167.11 103.066C167.109 103.078 167.103 103.09 167.095 103.099C167.086 103.108 167.075 103.114 167.062 103.117C166.828 103.176 166.587 103.208 166.345 103.213ZM165.942 102.653C165.913 102.652 165.885 102.658 165.859 102.669C165.843 102.669 165.823 102.694 165.82 102.745C165.814 102.788 165.819 102.831 165.834 102.872C165.849 102.912 165.874 102.948 165.907 102.976C166.054 103.101 166.409 103.12 166.867 103.027C166.587 102.842 166.272 102.715 165.942 102.653Z" fill="#EB6440"/>
    <path d="M167.039 103.118C167.029 103.121 167.018 103.121 167.007 103.118C166.729 102.964 166.185 102.372 166.242 102.071C166.252 102.023 166.277 101.98 166.315 101.95C166.352 101.919 166.399 101.902 166.447 101.901C166.496 101.895 166.545 101.899 166.592 101.913C166.639 101.927 166.683 101.952 166.719 101.984C167.039 102.24 167.1 103.022 167.104 103.057C167.104 103.068 167.101 103.079 167.096 103.089C167.091 103.099 167.084 103.108 167.075 103.114C167.063 103.118 167.051 103.119 167.039 103.118ZM166.492 102.019H166.463C166.38 102.019 166.374 102.068 166.37 102.084C166.335 102.263 166.691 102.724 166.959 102.922C166.94 102.614 166.828 102.318 166.639 102.074C166.598 102.039 166.546 102.019 166.492 102.019Z" fill="#EB6440"/>
    <path d="M144.901 102.054C144.456 102.019 143.678 101.916 143.464 101.583C143.434 101.536 143.415 101.482 143.41 101.427C143.404 101.371 143.412 101.315 143.432 101.263C143.442 101.23 143.462 101.2 143.487 101.176C143.513 101.153 143.545 101.136 143.579 101.129C143.941 101.042 144.859 101.859 144.949 101.955C144.958 101.964 144.965 101.975 144.967 101.987C144.97 102 144.969 102.013 144.965 102.025C144.959 102.036 144.949 102.044 144.938 102.05C144.926 102.055 144.913 102.056 144.901 102.054ZM143.62 101.241H143.601C143.588 101.244 143.575 101.25 143.565 101.26C143.555 101.269 143.547 101.282 143.544 101.295C143.529 101.33 143.523 101.368 143.527 101.406C143.53 101.444 143.542 101.481 143.563 101.513C143.684 101.702 144.107 101.833 144.712 101.907C144.334 101.599 143.829 101.221 143.617 101.244L143.62 101.241Z" fill="#EB6440"/>
    <path d="M144.853 102.055C144.61 101.683 144.213 101.001 144.351 100.63C144.369 100.575 144.401 100.525 144.444 100.485C144.486 100.444 144.538 100.415 144.594 100.4C144.627 100.388 144.663 100.385 144.698 100.391C144.732 100.398 144.765 100.413 144.792 100.435C145.081 100.672 144.985 101.888 144.972 102.036C144.97 102.048 144.965 102.06 144.956 102.07C144.948 102.08 144.936 102.087 144.924 102.09C144.91 102.093 144.895 102.092 144.882 102.085C144.869 102.079 144.859 102.068 144.853 102.055ZM144.716 100.537C144.704 100.53 144.691 100.526 144.677 100.526C144.664 100.526 144.65 100.53 144.639 100.537C144.601 100.547 144.567 100.566 144.539 100.592C144.51 100.619 144.489 100.651 144.475 100.688C144.402 100.899 144.546 101.328 144.863 101.837C144.879 101.318 144.863 100.678 144.716 100.524V100.537Z" fill="#EB6440"/>
    <path d="M171.5 19.7089C172.125 20.5893 172.656 21.441 173.2 22.3278C173.745 23.2147 174.241 24.1111 174.727 25.03C175.735 26.9038 176.554 28.8728 177.173 30.9081C177.247 31.1771 177.318 31.446 177.382 31.7245C177.414 31.8622 177.442 32.0031 177.471 32.1472L177.513 32.3585L177.532 32.4673L177.558 32.6402C177.639 33.3685 177.573 34.1057 177.362 34.8077C177.045 35.8923 176.597 36.9342 176.027 37.9101C175.513 38.824 174.945 39.7071 174.327 40.5546C173.724 41.3974 173.075 42.2064 172.384 42.9782L170.719 41.8096C171.587 40.0711 172.47 38.2878 173.149 36.5398C173.319 36.1043 173.469 35.6689 173.6 35.2431C173.731 34.8461 173.829 34.4392 173.895 34.0265C173.95 33.7603 173.95 33.4858 173.895 33.2197L173.873 33.1461L173.831 32.9956C173.805 32.8931 173.777 32.7907 173.741 32.6754C173.68 32.4705 173.61 32.2592 173.536 32.0511C172.871 30.298 172.063 28.6019 171.122 26.9798C170.655 26.1377 170.162 25.3117 169.656 24.4793C169.15 23.6469 168.619 22.8209 168.116 22.0493L171.5 19.7089Z" fill="#FFB573"/>
    <path d="M171.1 18.1501C173.639 18.6624 175.864 24.8735 175.864 24.8735L170.565 29.1893C170.565 29.1893 168.83 26.0325 167.44 22.9878C165.926 19.6709 168.026 17.5322 171.1 18.1501Z" fill="white"/>
    <path d="M171.1 18.1501C173.639 18.6624 175.864 24.8735 175.864 24.8735L170.565 29.1893C170.565 29.1893 168.83 26.0325 167.44 22.9878C165.926 19.6709 168.026 17.5322 171.1 18.1501Z" fill="#EB6440"/>
    <path d="M135.658 26.9474L134.378 31.5628L134.683 31.6475L135.963 27.0321L135.658 26.9474Z" fill="#EB6440"/>
    <path d="M133.908 33.2631L133.354 35.2592L133.659 35.344L134.213 33.3478L133.908 33.2631Z" fill="#EB6440"/>
    <path d="M169.545 24.8792L143.033 17.4225C141.018 16.8558 138.925 18.0299 138.358 20.0448L130.902 46.5572C130.335 48.5721 131.509 50.6649 133.524 51.2316L160.036 58.6882C162.051 59.2549 164.144 58.0809 164.711 56.066L172.167 29.5535C172.734 27.5386 171.56 25.4458 169.545 24.8792Z" fill="#EB6440"/>
    <path d="M154.115 32.0069C153.972 32.008 153.83 31.9886 153.693 31.9493C153.291 31.8335 152.95 31.5649 152.744 31.2011C152.537 30.8373 152.481 30.4072 152.588 30.0027L153.869 25.3892C153.986 24.9906 154.256 24.6542 154.619 24.4524C154.983 24.2507 155.411 24.1997 155.811 24.3106C156.212 24.4214 156.553 24.6852 156.761 25.045C156.969 25.4049 157.027 25.832 156.923 26.2344L155.642 30.8479C155.547 31.1801 155.347 31.4724 155.071 31.6813C154.796 31.8902 154.461 32.0044 154.115 32.0069Z" fill="white"/>
    <path d="M148.599 51.3026C148.512 51.3035 148.426 51.2916 148.343 51.2674C148.101 51.1979 147.897 51.0367 147.773 50.8182C147.649 50.5998 147.616 50.3416 147.68 50.0988L148.961 45.4885C148.977 45.3514 149.023 45.2195 149.096 45.1018C149.168 44.9841 149.265 44.8834 149.38 44.8066C149.494 44.7297 149.624 44.6785 149.761 44.6565C149.897 44.6345 150.037 44.6421 150.17 44.6789C150.303 44.7156 150.426 44.7807 150.532 44.8696C150.638 44.9585 150.723 45.0692 150.782 45.194C150.841 45.3189 150.873 45.455 150.874 45.5931C150.876 45.7312 150.848 45.8681 150.792 45.9943L149.511 50.6047C149.455 50.8038 149.335 50.9793 149.171 51.1051C149.006 51.2309 148.806 51.3001 148.599 51.3026Z" fill="white"/>
    <path d="M158.911 34.6419C158.806 34.6429 158.703 34.6089 158.619 34.5453C158.536 34.4817 158.475 34.392 158.448 34.2904C158.421 34.1887 158.429 34.081 158.469 33.9841C158.51 33.8871 158.582 33.8066 158.674 33.755L162.836 31.3954C162.945 31.3361 163.073 31.3217 163.192 31.3551C163.312 31.3886 163.414 31.4674 163.476 31.5747C163.537 31.6834 163.553 31.8119 163.519 31.932C163.485 32.052 163.406 32.1538 163.297 32.215L159.135 34.5746C159.067 34.6148 158.99 34.6379 158.911 34.6419Z" fill="white"/>
    <path d="M140.918 45.4669C140.672 45.4684 140.433 45.3882 140.238 45.2388C140.043 45.0894 139.903 44.8794 139.84 44.6418C139.777 44.4042 139.796 44.1524 139.892 43.9262C139.988 43.7 140.156 43.5121 140.371 43.3922L144.533 41.0326C144.785 40.9204 145.069 40.9057 145.331 40.9916C145.593 41.0774 145.814 41.2576 145.95 41.4972C146.087 41.7367 146.129 42.0184 146.07 42.2876C146.01 42.5568 145.853 42.7941 145.628 42.9536L141.466 45.3132C141.299 45.4104 141.111 45.4633 140.918 45.4669Z" fill="white"/>
    <path d="M164.265 42.1141C164.207 42.1142 164.15 42.1067 164.095 42.0917L159.485 40.811C159.343 40.7499 159.228 40.6395 159.161 40.5002C159.094 40.361 159.08 40.2022 159.121 40.0532C159.161 39.9042 159.255 39.7751 159.384 39.6896C159.512 39.6041 159.668 39.568 159.821 39.588L164.434 40.8686C164.575 40.9165 164.695 41.0118 164.773 41.1381C164.851 41.2645 164.882 41.4141 164.862 41.5612C164.842 41.7084 164.772 41.844 164.663 41.9449C164.554 42.0458 164.413 42.1056 164.265 42.1141Z" fill="white"/>
    <path d="M144.334 37.2288C144.22 37.2294 144.106 37.2144 143.995 37.184L139.385 35.9033C139.103 35.7794 138.876 35.5583 138.744 35.2803C138.612 35.0024 138.584 34.6863 138.666 34.3898C138.748 34.0933 138.934 33.8362 139.19 33.6655C139.446 33.4949 139.755 33.4221 140.06 33.4605L144.671 34.7411C144.95 34.8381 145.187 35.0286 145.341 35.2803C145.496 35.532 145.559 35.8296 145.52 36.1224C145.48 36.4152 145.34 36.6854 145.124 36.887C144.908 37.0886 144.629 37.2094 144.334 37.2288Z" fill="white"/>
    <path d="M158.268 49.9518C158.128 49.9516 157.991 49.9145 157.87 49.8443C157.749 49.774 157.649 49.673 157.579 49.5516L155.22 45.3863C155.166 45.2958 155.132 45.1956 155.117 45.0914C155.103 44.9873 155.11 44.8814 155.137 44.7798C155.164 44.6783 155.211 44.5832 155.276 44.5001C155.34 44.417 155.42 44.3476 155.512 44.2959C155.603 44.2442 155.704 44.2112 155.809 44.1989C155.913 44.1867 156.019 44.1953 156.12 44.2244C156.221 44.2535 156.315 44.3025 156.397 44.3684C156.479 44.4343 156.547 44.5159 156.597 44.6083L158.953 48.7704C159.005 48.8607 159.038 48.9603 159.051 49.0636C159.064 49.1669 159.057 49.2717 159.029 49.372C159.001 49.4723 158.954 49.5662 158.89 49.6481C158.826 49.7301 158.746 49.7985 158.655 49.8494C158.537 49.9169 158.404 49.9522 158.268 49.9518Z" fill="white"/>
    <path d="M148.08 32.58C147.827 32.5803 147.579 32.5135 147.361 32.3863C147.143 32.2592 146.962 32.0763 146.838 31.8564L144.481 27.6943C144.389 27.5314 144.33 27.3519 144.307 27.166C144.284 26.9802 144.298 26.7917 144.348 26.6112C144.398 26.4308 144.483 26.2619 144.598 26.1143C144.713 25.9667 144.856 25.8432 145.019 25.7509C145.182 25.6586 145.362 25.5993 145.547 25.5764C145.733 25.5535 145.922 25.5674 146.102 25.6174C146.283 25.6673 146.452 25.7523 146.599 25.8675C146.747 25.9827 146.87 26.1259 146.962 26.2888L149.319 30.4509C149.411 30.6135 149.471 30.7928 149.494 30.9784C149.517 31.164 149.503 31.3524 149.453 31.5326C149.403 31.7128 149.318 31.8815 149.202 32.0288C149.087 32.1761 148.944 32.2992 148.781 32.3911C148.568 32.5148 148.326 32.5799 148.08 32.58Z" fill="white"/>
    <path d="M171.679 41.189L168.932 41.0898L170.261 44.2914C170.261 44.2914 172.621 43.856 172.531 42.5817L171.679 41.189Z" fill="#FFB573"/>
    <path d="M167.092 42.4088L167.755 44.8517L170.265 44.285L168.933 41.0898L167.092 42.4088Z" fill="#FFB573"/>
</svg>
