<svg width="222" height="210" viewBox="0 0 222 210" fill="none" xmlns="http://www.w3.org/2000/svg">
    <path d="M222 35.6313H186.582V52.4604H200.982L206.369 57.8472L211.755 52.4604H222V35.6313Z" fill="#F5F5F5"/>
    <path d="M195.071 43.1969C195.065 42.572 194.828 41.9715 194.404 41.5123C193.98 41.0531 193.4 40.7682 192.778 40.713C192.155 40.6577 191.535 40.8362 191.036 41.2136C190.538 41.591 190.199 42.1402 190.083 42.7544C189.981 43.3436 190.09 43.9498 190.391 44.4667C190.487 44.6302 190.607 44.7456 190.728 44.9188L192.171 46.8427C192.216 46.8946 192.272 46.9363 192.334 46.9649C192.397 46.9935 192.465 47.0082 192.534 47.0082C192.603 47.0082 192.671 46.9935 192.733 46.9649C192.796 46.9363 192.852 46.8946 192.897 46.8427L194.34 44.9428C194.471 44.7898 194.593 44.6292 194.705 44.4619C194.938 44.0802 195.064 43.6436 195.071 43.1969ZM192.56 44.2935C192.341 44.2945 192.127 44.2304 191.944 44.1094C191.762 43.9885 191.619 43.816 191.535 43.614C191.45 43.4119 191.428 43.1894 191.47 42.9745C191.512 42.7596 191.617 42.562 191.771 42.4068C191.926 42.2516 192.123 42.1458 192.338 42.1027C192.553 42.0596 192.775 42.0812 192.978 42.1648C193.18 42.2484 193.353 42.3902 193.475 42.5722C193.597 42.7542 193.662 42.9683 193.662 43.1873C193.662 43.4799 193.546 43.7605 193.339 43.9678C193.133 44.1751 192.853 44.2923 192.56 44.2935Z" fill="#E0E0E0"/>
    <path d="M218.47 44.9909C218.47 45.0582 213.752 45.1159 207.927 45.1159C202.103 45.1159 197.384 45.0582 197.384 44.9909C197.384 44.9236 202.103 44.8658 207.927 44.8658C213.752 44.8658 218.47 44.9236 218.47 44.9909Z" fill="#E0E0E0"/>
    <path d="M211.756 47.2611C211.756 47.3284 208.538 47.3861 204.57 47.3861C200.602 47.3861 197.384 47.3284 197.384 47.2611C197.384 47.1938 200.602 47.1312 204.57 47.1312C208.538 47.1312 211.756 47.1889 211.756 47.2611Z" fill="#E0E0E0"/>
    <path d="M198.673 39.7628L199.154 40.7392L200.232 40.8979L199.452 41.6578L199.635 42.7304L198.673 42.2206L197.706 42.7304L197.894 41.6578L197.11 40.8979L198.187 40.7392L198.673 39.7628Z" fill="#E0E0E0"/>
    <path d="M203.233 39.7628L203.714 40.7392L204.791 40.8979L204.012 41.6578L204.195 42.7304L203.233 42.2206L202.266 42.7304L202.454 41.6578L201.674 40.8979L202.752 40.7392L203.233 39.7628Z" fill="#E0E0E0"/>
    <path d="M207.792 39.7628L208.273 40.7392L209.351 40.8979L208.571 41.6578L208.754 42.7304L207.792 42.2206L206.825 42.7304L207.013 41.6578L206.234 40.8979L207.311 40.7392L207.792 39.7628Z" fill="#E0E0E0"/>
    <path d="M212.352 39.7628L212.833 40.7392L213.911 40.8979L213.132 41.6578L213.314 42.7304L212.352 42.2206L211.391 42.7304L211.573 41.6578L210.794 40.8979L211.871 40.7392L212.352 39.7628Z" fill="#EBEBEB"/>
    <path d="M216.912 39.7628L217.393 40.7392L218.47 40.8979L217.691 41.6578L217.873 42.7304L216.912 42.2206L215.95 42.7304L216.132 41.6578L215.353 40.8979L216.431 40.7392L216.912 39.7628Z" fill="#EBEBEB"/>
    <path d="M67.2828 0.174438H12.2121V26.3439H34.6011L42.9796 34.7175L51.3532 26.3439H67.2828V0.174438Z" fill="#F5F5F5"/>
    <path d="M25.4095 11.9437C25.4106 11.3431 25.2731 10.7503 25.0078 10.2114C24.7425 9.67251 24.3565 9.20209 23.8798 8.83671C23.403 8.47132 22.8484 8.22083 22.2591 8.1047C21.6698 7.98857 21.0616 8.00993 20.4819 8.16713C19.9022 8.32433 19.3666 8.61312 18.9166 9.01106C18.4667 9.40899 18.1146 9.90534 17.8878 10.4615C17.661 11.0177 17.5655 11.6187 17.6087 12.2178C17.652 12.8169 17.8328 13.3979 18.1372 13.9157C18.2863 14.1706 18.4739 14.3486 18.6663 14.6131L20.9317 17.6191C20.997 17.7067 21.0819 17.7778 21.1796 17.8268C21.2773 17.8758 21.3851 17.9013 21.4944 17.9013C21.6037 17.9013 21.7115 17.8758 21.8092 17.8268C21.9068 17.7778 21.9918 17.7067 22.0571 17.6191L24.2984 14.6901C24.5002 14.4481 24.6897 14.1961 24.866 13.9349C25.2251 13.3331 25.413 12.6446 25.4095 11.9437ZM21.504 13.6415C21.1644 13.6415 20.8324 13.5408 20.5501 13.3522C20.2677 13.1635 20.0476 12.8953 19.9177 12.5816C19.7877 12.2678 19.7537 11.9226 19.82 11.5895C19.8862 11.2564 20.0497 10.9505 20.2899 10.7104C20.53 10.4702 20.836 10.3067 21.169 10.2404C21.5021 10.1742 21.8474 10.2082 22.1611 10.3381C22.4749 10.4681 22.743 10.6882 22.9317 10.9705C23.1204 11.2529 23.2211 11.5849 23.2211 11.9245C23.2211 12.3799 23.0402 12.8166 22.7182 13.1386C22.3961 13.4606 21.9594 13.6415 21.504 13.6415Z" fill="#E0E0E0"/>
    <path d="M61.7945 14.7333C61.7945 14.8007 54.455 14.8584 45.4032 14.8584C36.3514 14.8584 29.007 14.8007 29.007 14.7333C29.007 14.666 36.3466 14.6083 45.4032 14.6083C54.4598 14.6083 61.7945 14.69 61.7945 14.7333Z" fill="#E0E0E0"/>
    <path d="M51.3576 18.254C51.3576 18.3261 46.3555 18.379 40.1847 18.379C34.0139 18.379 29.007 18.3261 29.007 18.254C29.007 18.1818 34.0091 18.1289 40.1847 18.1289C46.3603 18.1289 51.3576 18.1866 51.3576 18.254Z" fill="#E0E0E0"/>
    <path d="M31.0131 6.6001L31.7586 8.11995L33.4324 8.36044L32.2203 9.54362L32.5089 11.2126L31.0131 10.4238L29.5125 11.2126L29.8011 9.54362L28.5891 8.36044L30.2628 8.11995L31.0131 6.6001Z" fill="#E0E0E0"/>
    <path d="M38.1022 6.6001L38.8477 8.11995L40.5263 8.36044L39.3143 9.54362L39.598 11.2126L38.1022 10.4238L36.6016 11.2126L36.8902 9.54362L35.6782 8.36044L37.3519 8.11995L38.1022 6.6001Z" fill="#E0E0E0"/>
    <path d="M45.1917 6.6001L45.942 8.11995L47.6158 8.36044L46.4038 9.54362L46.6875 11.2126L45.1917 10.4238L43.6959 11.2126L43.9797 9.54362L42.7676 8.36044L44.4414 8.11995L45.1917 6.6001Z" fill="#E0E0E0"/>
    <path d="M52.2812 6.6001L53.0315 8.11995L54.7053 8.36044L53.4932 9.54362L53.7818 11.2126L52.2812 10.4238L50.7854 11.2126L51.0692 9.54362L49.8571 8.36044L51.5357 8.11995L52.2812 6.6001Z" fill="#EBEBEB"/>
    <path d="M59.3753 6.6001L60.1207 8.11995L61.7945 8.36044L60.5873 9.54362L60.8711 11.2126L59.3753 10.4238L57.8746 11.2126L58.1632 9.54362L56.9512 8.36044L58.6249 8.11995L59.3753 6.6001Z" fill="#EBEBEB"/>
    <path d="M194.152 64.1959C194.441 62.0893 191.473 60.3482 189.246 60.1799C188.183 60.0981 187.077 60.2568 186.067 59.9057C183.888 59.1458 183.013 56.3273 180.882 55.4279C179.29 54.7545 177.458 55.3558 175.914 56.1301C174.37 56.9045 172.845 57.8856 171.104 57.9963C169.604 58.0925 167.978 57.5153 166.665 58.2704C165.703 58.8139 165.174 59.9442 164.26 60.6079C163.346 61.2717 162.23 61.3967 161.134 61.4544C160.037 61.5121 158.907 61.5266 157.911 61.9835C156.916 62.4404 156.088 63.4937 156.295 64.5663L194.152 64.1959Z" fill="#F5F5F5"/>
    <path d="M43.0513 85.0026C43.3447 82.9008 40.3771 81.1549 38.1454 80.9913C37.0825 80.9048 35.9763 81.0683 34.9711 80.7172C32.7875 79.9573 31.9121 77.134 29.7862 76.2394C28.1894 75.566 26.3569 76.1624 24.813 76.9416C23.2691 77.7208 21.7445 78.6971 20.0034 78.8077C18.5076 78.9039 16.8771 78.3268 15.564 79.0771C14.6021 79.6254 14.073 80.7509 13.1592 81.4146C12.2454 82.0783 11.1247 82.2034 10.0281 82.2659C8.9315 82.3284 7.80123 82.3332 6.80563 82.7902C5.81003 83.2471 4.98757 84.3004 5.19439 85.3778L43.0513 85.0026Z" fill="#F5F5F5"/>
    <path d="M27.8288 62.8445C28.0404 61.3006 25.8568 60.026 24.2215 59.8961C23.4376 59.8336 22.6247 59.9539 21.884 59.6941C20.2824 59.1362 19.6427 57.0632 18.0748 56.3995C16.906 55.9185 15.5593 56.3466 14.4242 56.919C13.2892 57.4913 12.1685 58.2079 10.8987 58.2897C9.79733 58.3619 8.59972 57.953 7.63298 58.4917C6.91634 58.8909 6.54118 59.7182 5.87745 60.2088C5.18671 60.6323 4.38848 60.8478 3.57843 60.8292C2.77217 60.8093 1.96939 60.9415 1.21207 61.2188C0.476188 61.5555 -0.129831 62.3298 0.024078 63.1186L27.8288 62.8445Z" fill="#EBEBEB"/>
    <path d="M207.518 6.65306C207.734 5.10916 205.551 3.83459 203.911 3.70473C203.132 3.64221 202.319 3.76245 201.578 3.50273C199.976 2.94481 199.332 0.871836 197.769 0.208102C196.595 -0.272865 195.249 0.155196 194.113 0.727547C192.978 1.2999 191.858 2.01654 190.593 2.0983C189.491 2.17045 188.294 1.76163 187.327 2.30031C186.61 2.69951 186.23 3.52678 185.571 4.01736C184.883 4.43916 184.089 4.65451 183.282 4.63781C182.474 4.61833 181.67 4.75047 180.911 5.02739C180.18 5.36407 179.574 6.13843 179.728 6.95126L207.518 6.65306Z" fill="#EBEBEB"/>
    <path d="M203.618 82.6603H163.591V209.515H203.618V82.6603Z" fill="#F5F5F5"/>
    <path d="M203.623 82.6603H183.61V209.169H203.623V82.6603Z" fill="#EBEBEB"/>
    <path d="M182.301 70.208H168.165V82.6603H182.301V70.208Z" fill="#F5F5F5"/>
    <path d="M182.296 70.208H178.93V82.6603H182.296V70.208Z" fill="#EBEBEB"/>
    <path d="M160.258 82.6602V81.934H204.791V82.6602" fill="#E0E0E0"/>
    <path d="M174.88 88.0903H171.494V95.2327H174.88V88.0903Z" fill="#FAFAFA"/>
    <path d="M183.609 98.0416C183.609 98.1137 179.127 98.1763 173.6 98.1763C168.074 98.1763 163.591 98.1137 163.591 98.0416C163.591 97.9694 168.074 97.9021 173.6 97.9021C179.127 97.9021 183.609 97.9646 183.609 98.0416Z" fill="#E0E0E0"/>
    <path d="M195.066 88.0903H191.68V95.2327H195.066V88.0903Z" fill="#E0E0E0"/>
    <path d="M203.795 98.0416C203.795 98.1137 199.313 98.1763 193.786 98.1763C188.26 98.1763 183.782 98.1137 183.782 98.0416C183.782 97.9694 188.26 97.9021 193.786 97.9021C199.313 97.9021 203.795 97.9646 203.795 98.0416Z" fill="#E0E0E0"/>
    <path d="M195.066 102.274H191.68V109.417H195.066V102.274Z" fill="#E0E0E0"/>
    <path d="M203.795 112.225C203.795 112.297 199.313 112.36 193.786 112.36C188.26 112.36 183.782 112.297 183.782 112.225C183.782 112.153 188.26 112.086 193.786 112.086C199.313 112.086 203.795 112.148 203.795 112.225Z" fill="#E0E0E0"/>
    <path d="M195.066 116.886H191.68V124.028H195.066V116.886Z" fill="#E0E0E0"/>
    <path d="M203.795 126.837C203.795 126.909 199.313 126.972 193.786 126.972C188.26 126.972 183.782 126.909 183.782 126.837C183.782 126.765 188.26 126.698 193.786 126.698C199.313 126.698 203.795 126.755 203.795 126.837Z" fill="#E0E0E0"/>
    <path d="M195.066 131.502H191.68V138.645H195.066V131.502Z" fill="#E0E0E0"/>
    <path d="M203.795 141.449C203.795 141.526 199.313 141.584 193.786 141.584C188.26 141.584 183.782 141.526 183.782 141.449C183.782 141.372 188.26 141.314 193.786 141.314C199.313 141.314 203.795 141.372 203.795 141.449Z" fill="#E0E0E0"/>
    <path d="M195.066 145.696H191.68V152.838H195.066V145.696Z" fill="#E0E0E0"/>
    <path d="M203.795 155.642C203.795 155.719 199.313 155.777 193.786 155.777C188.26 155.777 183.782 155.719 183.782 155.642C183.782 155.565 188.26 155.508 193.786 155.508C199.313 155.508 203.795 155.565 203.795 155.642Z" fill="#E0E0E0"/>
    <path d="M195.066 159.947H191.68V167.089H195.066V159.947Z" fill="#E0E0E0"/>
    <path d="M195.066 174.385H191.68V181.528H195.066V174.385Z" fill="#E0E0E0"/>
    <path d="M203.795 169.893C203.795 169.97 199.313 170.033 193.786 170.033C188.26 170.033 183.782 169.97 183.782 169.893C183.782 169.816 188.26 169.759 193.786 169.759C199.313 169.759 203.795 169.816 203.795 169.893Z" fill="#E0E0E0"/>
    <path d="M174.88 102.49H171.494V109.633H174.88V102.49Z" fill="#FAFAFA"/>
    <path d="M183.609 112.442C183.609 112.514 179.127 112.576 173.6 112.576C168.074 112.576 163.591 112.514 163.591 112.442C163.591 112.37 168.074 112.302 173.6 112.302C179.127 112.302 183.609 112.365 183.609 112.442Z" fill="#E0E0E0"/>
    <path d="M174.88 116.891H171.494V124.033H174.88V116.891Z" fill="#FAFAFA"/>
    <path d="M183.609 126.842C183.609 126.919 179.127 126.977 173.6 126.977C168.074 126.977 163.591 126.919 163.591 126.842C163.591 126.765 168.074 126.702 173.6 126.702C179.127 126.702 183.609 126.755 183.609 126.842Z" fill="#E0E0E0"/>
    <path d="M174.88 131.296H171.494V138.438H174.88V131.296Z" fill="#FAFAFA"/>
    <path d="M183.609 141.242C183.609 141.319 179.127 141.377 173.6 141.377C168.074 141.377 163.591 141.319 163.591 141.242C163.591 141.165 168.074 141.107 173.6 141.107C179.127 141.107 183.609 141.184 183.609 141.242Z" fill="#E0E0E0"/>
    <path d="M174.88 145.696H171.494V152.838H174.88V145.696Z" fill="#FAFAFA"/>
    <path d="M183.609 155.642C183.609 155.719 179.127 155.777 173.6 155.777C168.074 155.777 163.591 155.719 163.591 155.642C163.591 155.565 168.074 155.508 173.6 155.508C179.127 155.508 183.609 155.565 183.609 155.642Z" fill="#E0E0E0"/>
    <path d="M174.88 160.096H171.494V167.238H174.88V160.096Z" fill="#FAFAFA"/>
    <path d="M183.609 170.042C183.609 170.119 179.127 170.182 173.6 170.182C168.074 170.182 163.591 170.119 163.591 170.042C163.591 169.965 168.074 169.908 173.6 169.908C179.127 169.908 183.609 169.965 183.609 170.042Z" fill="#E0E0E0"/>
    <path d="M174.88 174.496H171.494V181.639H174.88V174.496Z" fill="#FAFAFA"/>
    <path d="M78.5805 209.621H19.6813L19.4216 116.535H78.3256L78.5805 209.621Z" fill="#EBEBEB"/>
    <path d="M78.3258 116.53H48.8762V209.621H78.3258V116.53Z" fill="#E0E0E0"/>
    <path d="M46.9519 98.2052H26.1501V116.53H46.9519V98.2052Z" fill="#EBEBEB"/>
    <path d="M46.952 98.2052H41.9932V116.53H46.952V98.2052Z" fill="#E0E0E0"/>
    <path d="M80.0474 115.462H14.5156V116.53H80.0474V115.462Z" fill="#E0E0E0"/>
    <path d="M36.0389 124.524H31.0513V135.038H36.0389V124.524Z" fill="white"/>
    <path d="M48.8761 139.164C48.8761 139.275 42.282 139.366 34.1489 139.366C26.0157 139.366 19.4265 139.275 19.4265 139.164C19.4265 139.054 26.0157 138.962 34.1489 138.962C42.282 138.962 48.8761 139.054 48.8761 139.164Z" fill="#E0E0E0"/>
    <path d="M65.7436 124.524H60.756V135.038H65.7436V124.524Z" fill="#F5F5F5"/>
    <path d="M78.5805 139.164C78.5805 139.275 71.9864 139.366 63.8581 139.366C55.7297 139.366 49.1309 139.275 49.1309 139.164C49.1309 139.054 55.7249 138.962 63.8581 138.962C71.9912 138.962 78.5805 139.054 78.5805 139.164Z" fill="#EBEBEB"/>
    <path d="M65.7436 145.398H60.756V155.912H65.7436V145.398Z" fill="#F5F5F5"/>
    <path d="M78.5805 160.038C78.5805 160.149 71.9864 160.235 63.8581 160.235C55.7297 160.235 49.1309 160.149 49.1309 160.038C49.1309 159.928 55.7249 159.836 63.8581 159.836C71.9912 159.836 78.5805 159.942 78.5805 160.038Z" fill="#EBEBEB"/>
    <path d="M65.7436 166.902H60.756V177.416H65.7436V166.902Z" fill="#F5F5F5"/>
    <path d="M78.5805 181.537C78.5805 181.648 71.9864 181.739 63.8581 181.739C55.7297 181.739 49.1309 181.648 49.1309 181.537C49.1309 181.427 55.7249 181.335 63.8581 181.335C71.9912 181.335 78.5805 181.427 78.5805 181.537Z" fill="#EBEBEB"/>
    <path d="M65.7436 188.401H60.756V198.915H65.7436V188.401Z" fill="#F5F5F5"/>
    <path d="M78.5805 203.042C78.5805 203.152 71.9864 203.239 63.8581 203.239C55.7297 203.239 49.1309 203.152 49.1309 203.042C49.1309 202.931 55.7249 202.84 63.8581 202.84C71.9912 202.84 78.5805 202.931 78.5805 203.042Z" fill="#EBEBEB"/>
    <path d="M36.0389 145.715H31.0513V156.229H36.0389V145.715Z" fill="white"/>
    <path d="M48.8761 160.356C48.8761 160.466 42.282 160.558 34.1489 160.558C26.0157 160.558 19.4265 160.466 19.4265 160.356C19.4265 160.245 26.0157 160.154 34.1489 160.154C42.282 160.154 48.8761 160.245 48.8761 160.356Z" fill="#E0E0E0"/>
    <path d="M36.0389 166.906H31.0513V177.42H36.0389V166.906Z" fill="white"/>
    <path d="M48.8761 181.547C48.8761 181.658 42.282 181.744 34.1489 181.744C26.0157 181.744 19.4265 181.658 19.4265 181.547C19.4265 181.436 26.0157 181.345 34.1489 181.345C42.282 181.345 48.8761 181.436 48.8761 181.547Z" fill="#E0E0E0"/>
    <path d="M36.0389 188.098H31.0513V198.612H36.0389V188.098Z" fill="white"/>
    <path d="M48.8761 202.748C48.8761 202.859 42.282 202.945 34.1489 202.945C26.0157 202.945 19.4265 202.859 19.4265 202.748C19.4265 202.638 26.0157 202.546 34.1489 202.546C42.282 202.546 48.8761 202.628 48.8761 202.748Z" fill="#E0E0E0"/>
    <path d="M189.204 199.66C189.569 198.218 188.641 196.808 187.592 195.779C186.544 194.75 185.298 193.821 184.755 192.46C183.874 190.248 185.058 187.386 183.557 185.544C182.672 184.457 181.085 184.101 180.301 182.937C179.941 182.297 179.701 181.596 179.594 180.869C178.761 177.195 176.955 173.813 174.366 171.077C174.19 174.349 174.898 177.608 176.415 180.513C177.025 181.672 177.771 182.803 177.973 184.096C178.3 186.198 177.131 188.358 177.646 190.421C178.238 192.783 180.888 194.36 181.013 196.789C181.119 198.843 179.329 200.637 179.459 202.695C179.572 203.578 179.893 204.42 180.397 205.153C181.984 207.794 184.317 209.612 187.852 209.549L192.181 209.703L189.204 199.66Z" fill="#EB6440"/>
    <g opacity="0.3">
        <path d="M189.204 199.66C189.569 198.218 188.641 196.808 187.592 195.779C186.544 194.75 185.298 193.821 184.755 192.46C183.874 190.248 185.058 187.386 183.557 185.544C182.672 184.457 181.085 184.101 180.301 182.937C179.941 182.297 179.701 181.596 179.594 180.869C178.761 177.195 176.955 173.813 174.366 171.077C174.19 174.349 174.898 177.608 176.415 180.513C177.025 181.672 177.771 182.803 177.973 184.096C178.3 186.198 177.131 188.358 177.646 190.421C178.238 192.783 180.888 194.36 181.013 196.789C181.119 198.843 179.329 200.637 179.459 202.695C179.572 203.578 179.893 204.42 180.397 205.153C181.984 207.794 184.317 209.612 187.852 209.549L192.181 209.703L189.204 199.66Z" fill="black"/>
    </g>
    <path d="M192.95 209.703C193.346 209.763 193.75 209.754 194.143 209.674C194.621 209.603 195.092 209.486 195.547 209.323C196.175 209.101 196.762 208.776 197.284 208.361C197.599 208.105 197.845 207.774 198 207.399C198.128 206.983 198.193 206.55 198.193 206.115C198.201 205.647 198.234 205.18 198.294 204.715C198.379 204.221 198.559 203.748 198.823 203.321C199.332 202.426 200.184 201.575 200.458 200.358C200.732 199.141 200.54 197.867 200.338 196.563C200.136 195.26 199.943 193.85 200.439 192.499C200.934 191.147 201.853 189.921 202.329 188.396C202.805 186.872 202.579 185.193 202.68 183.558C202.708 182.727 202.899 181.91 203.243 181.153C203.594 180.383 204.08 179.662 204.46 178.854C205.229 177.223 205.364 175.376 205.575 173.563C205.676 172.649 205.777 171.731 205.883 170.798C205.949 169.86 206.11 168.932 206.364 168.027C206.658 167.115 207.005 166.22 207.403 165.348C207.601 164.896 207.762 164.428 207.884 163.949C207.959 163.456 208.005 162.96 208.024 162.463C208.072 161.462 208.033 160.46 207.908 159.466C207.793 158.466 207.61 157.475 207.504 156.474C207.504 156.417 207.504 156.354 207.504 156.301L207.48 156.104L207.302 156.191C206.386 156.66 205.59 157.333 204.974 158.158C204.369 158.964 203.883 159.854 203.531 160.798C202.81 162.655 202.569 164.608 202.185 166.464C201.911 168.303 201.308 170.077 200.405 171.702C199.924 172.471 199.357 173.178 198.852 173.929C198.316 174.662 197.95 175.505 197.779 176.396C197.524 178.229 198.534 179.835 198.322 181.456C198.223 182.252 197.954 183.018 197.534 183.702C197.139 184.395 196.678 185.039 196.24 185.684C195.793 186.313 195.403 186.981 195.076 187.68C194.771 188.365 194.592 189.1 194.547 189.849C194.441 191.292 194.648 192.696 194.547 194C194.427 195.245 194.062 196.454 193.474 197.559C192.955 198.626 192.368 199.588 191.882 200.521C191.641 200.97 191.422 201.431 191.228 201.902C191.052 202.343 190.924 202.803 190.848 203.273C190.718 204.089 190.706 204.92 190.815 205.74C190.927 206.884 191.355 207.975 192.051 208.89C192.157 209.026 192.274 209.154 192.402 209.27C192.488 209.361 192.583 209.443 192.686 209.516L192.936 209.689C192.627 209.441 192.345 209.162 192.094 208.857C191.426 207.939 191.02 206.856 190.92 205.726C190.823 204.916 190.843 204.096 190.978 203.292C191.059 202.834 191.186 202.386 191.358 201.955C191.546 201.507 191.772 201.055 192.022 200.594C192.503 199.67 193.099 198.708 193.633 197.636C194.237 196.515 194.613 195.286 194.739 194.019C194.855 192.682 194.653 191.292 194.739 189.868C194.785 189.143 194.963 188.432 195.263 187.771C195.584 187.085 195.967 186.429 196.408 185.813C196.846 185.169 197.317 184.529 197.721 183.822C198.159 183.111 198.439 182.314 198.544 181.485C198.755 179.753 197.755 178.118 198.015 176.435C198.182 175.58 198.537 174.774 199.054 174.073C199.534 173.337 200.121 172.63 200.612 171.841C201.535 170.191 202.151 168.387 202.43 166.517C202.8 164.646 203.06 162.717 203.772 160.895C204.112 159.976 204.581 159.111 205.167 158.326C205.754 157.533 206.518 156.888 207.398 156.441L207.196 156.33C207.196 156.383 207.196 156.446 207.196 156.503C207.307 157.518 207.49 158.509 207.605 159.5C207.725 160.478 207.764 161.464 207.721 162.448C207.701 162.931 207.656 163.413 207.586 163.891C207.464 164.354 207.303 164.806 207.105 165.243C206.703 166.123 206.354 167.028 206.061 167.95C205.801 168.868 205.64 169.812 205.58 170.764C205.474 171.697 205.372 172.621 205.272 173.534C205.066 175.352 204.931 177.17 204.19 178.748C203.825 179.532 203.339 180.253 202.978 181.047C202.626 181.832 202.428 182.678 202.396 183.538C202.305 185.207 202.521 186.843 202.069 188.348C201.617 189.854 200.674 191.046 200.198 192.446C199.722 193.846 199.9 195.332 200.107 196.611C200.314 197.891 200.525 199.184 200.246 200.339C199.967 201.493 199.174 202.34 198.65 203.263C198.381 203.705 198.2 204.195 198.116 204.706C198.058 205.177 198.027 205.65 198.024 206.125C198.024 206.55 197.961 206.973 197.837 207.38C197.692 207.735 197.462 208.049 197.168 208.294C196.659 208.705 196.085 209.03 195.47 209.256C195.022 209.426 194.558 209.553 194.085 209.636C193.794 209.686 193.5 209.713 193.205 209.718L192.95 209.703Z" fill="#263238"/>
    <path d="M206.629 158.701C206.629 158.701 206.629 158.745 206.586 158.831L206.489 159.221C206.408 159.562 206.302 160.077 206.138 160.721C205.975 161.366 205.575 162.087 205.244 162.982C204.847 163.986 204.503 165.01 204.214 166.05C203.882 167.205 203.589 168.489 203.286 169.86C203.023 171.327 202.555 172.75 201.896 174.087C201.545 174.794 201.146 175.506 200.828 176.281C200.517 177.08 200.307 177.915 200.203 178.767C199.984 180.524 199.672 182.267 199.27 183.991C198.404 187.54 197.577 190.916 196.822 193.995C196.067 197.073 195.379 199.824 194.773 202.171C194.167 204.518 193.739 206.356 193.412 207.678C193.258 208.313 193.142 208.813 193.056 209.179C193.024 209.339 192.995 209.469 192.969 209.568C192.962 209.615 192.962 209.662 192.969 209.708C192.99 209.666 193.006 209.623 193.017 209.578C193.046 209.472 193.085 209.347 193.128 209.193C193.229 208.832 193.364 208.332 193.537 207.702L194.98 202.219L197.072 194.091L199.539 184.087C199.947 182.351 200.258 180.595 200.472 178.825C200.572 178.002 200.774 177.194 201.074 176.42C201.377 175.66 201.771 174.953 202.127 174.241C202.786 172.883 203.25 171.439 203.507 169.951C203.806 168.571 204.084 167.296 204.402 166.142C204.719 164.988 205.051 163.963 205.364 163.073C205.676 162.183 206.061 161.448 206.22 160.784C206.379 160.12 206.456 159.62 206.523 159.269C206.547 159.11 206.571 158.98 206.59 158.874C206.614 158.82 206.627 158.761 206.629 158.701Z" fill="#263238"/>
    <path d="M191.397 209.424C194.441 208.174 195.966 203.369 195.244 200.161C194.523 196.953 192.888 193.874 193.046 190.589C193.171 188.064 194.364 185.626 194.138 183.106C193.84 179.71 191.007 176.694 191.541 173.323C191.839 171.433 193.176 169.807 193.369 167.902C193.604 165.565 192.094 163.463 191.291 161.255C190.059 157.888 190.492 154.161 190.43 150.563C190.367 146.966 189.583 143.017 186.726 140.833C185.827 143.748 184.745 145.672 184.398 149.746C184.273 151.189 185.548 154.228 185.312 157.441C185.173 159.365 184.985 161.289 184.831 163.213C184.677 165.137 184.519 166.979 184.928 168.806C185.24 170.206 185.889 171.529 186.058 172.952C186.39 175.631 185.048 178.286 185.235 180.98C185.399 183.259 186.649 185.385 186.63 187.675C186.606 190.888 184.091 193.86 184.706 197.02C185.005 198.583 186.053 199.963 186.178 201.551C186.269 202.787 185.793 204.008 185.861 205.244C185.971 207.231 189.434 209.275 191.421 209.443" fill="#EB6440"/>
    <path d="M187.063 143.907C187.057 143.963 187.057 144.019 187.063 144.075C187.063 144.2 187.063 144.368 187.063 144.556C187.063 144.994 187.063 145.638 187.063 146.48C187.063 147.322 187.39 148.312 187.544 149.476C187.698 150.64 187.905 151.977 188.025 153.459C188.145 154.94 188.169 156.571 188.198 158.321C188.227 160.072 188.26 161.977 188.847 163.881C189.107 164.843 189.415 165.805 189.607 166.796C189.786 167.823 189.835 168.869 189.751 169.908C189.587 172.116 189.542 174.332 189.617 176.545C189.824 181.085 190.026 185.409 190.204 189.349C190.382 193.288 190.632 196.813 190.8 199.79L191.223 206.832C191.281 207.649 191.324 208.275 191.353 208.756C191.353 208.962 191.382 209.126 191.396 209.236C191.391 209.292 191.391 209.349 191.396 209.405C191.404 209.349 191.404 209.292 191.396 209.236C191.396 209.107 191.396 208.943 191.396 208.756C191.396 208.299 191.353 207.659 191.319 206.832C191.238 205.148 191.122 202.748 190.983 199.785C190.843 196.823 190.646 193.268 190.449 189.339C190.252 185.409 190.083 181.081 189.881 176.54C189.806 174.335 189.849 172.128 190.011 169.927C190.092 168.866 190.038 167.8 189.852 166.753C189.655 165.728 189.343 164.766 189.078 163.819C188.491 161.943 188.467 160.067 188.414 158.321C188.361 156.575 188.328 154.955 188.208 153.449C188.087 151.944 187.909 150.621 187.703 149.457C187.496 148.293 187.222 147.302 187.159 146.475C187.097 145.648 187.121 144.999 187.101 144.551C187.101 144.344 187.101 144.176 187.101 144.07C187.095 144.015 187.082 143.96 187.063 143.907Z" fill="#263238"/>
    <path d="M161.211 209.424L91.3695 209.385C87.3356 209.383 83.4679 207.778 80.6169 204.924C77.7658 202.071 76.1649 198.201 76.1662 194.168L76.1998 19.0955C76.1979 17.0963 76.5902 15.1164 77.3543 13.269C78.1183 11.4215 79.2391 9.74286 80.6525 8.329C82.0659 6.91513 83.7442 5.79382 85.5914 5.0292C87.4386 4.26458 89.4184 3.87166 91.4176 3.87293L161.259 3.91141C165.293 3.91396 169.161 5.51854 172.012 8.37229C174.863 11.226 176.464 15.0953 176.462 19.1292L176.429 194.201C176.429 196.2 176.036 198.179 175.272 200.026C174.507 201.873 173.386 203.551 171.973 204.965C170.56 206.379 168.882 207.5 167.035 208.265C165.189 209.03 163.21 209.424 161.211 209.424Z" fill="#455A64"/>
    <path d="M161.697 9.11545L148.109 9.05292C147.667 9.06105 147.23 9.15637 146.825 9.33343C146.419 9.51049 146.052 9.7658 145.745 10.0848C145.438 10.4037 145.197 10.7801 145.036 11.1923C144.875 11.6045 144.796 12.0445 144.805 12.487V14.9544C144.814 15.3977 144.735 15.8385 144.573 16.2513C144.412 16.6641 144.17 17.0409 143.862 17.36C143.554 17.6791 143.186 17.9342 142.779 18.1107C142.372 18.2872 141.935 18.3816 141.491 18.3885L114.985 18.2634C114.542 18.2529 114.105 18.1548 113.699 17.9748C113.294 17.7948 112.928 17.5365 112.623 17.2147C112.318 16.8929 112.079 16.514 111.921 16.0997C111.762 15.6854 111.687 15.2438 111.7 14.8005V12.3331C111.713 11.8898 111.638 11.4482 111.48 11.0339C111.321 10.6196 111.083 10.2407 110.777 9.91889C110.472 9.59709 110.106 9.33879 109.701 9.15881C109.296 8.97884 108.859 8.88074 108.415 8.87015H103.639L91.7449 8.81725C90.3404 8.81092 88.9484 9.08137 87.6485 9.61315C86.3485 10.1449 85.1661 10.9276 84.1687 11.9165C83.1714 12.9054 82.3786 14.0811 81.8357 15.3764C81.2929 16.6718 81.0105 18.0614 81.0049 19.4659L80.2786 190.959C80.2735 193.793 81.3931 196.512 83.3915 198.52C85.3899 200.529 88.1037 201.662 90.9368 201.671L160.879 201.993C162.283 202 163.675 201.73 164.975 201.199C166.275 200.667 167.457 199.885 168.455 198.897C169.452 197.908 170.245 196.733 170.788 195.438C171.331 194.143 171.613 192.753 171.619 191.349L172.345 19.8506C172.351 18.4465 172.08 17.0551 171.548 15.7557C171.016 14.4563 170.233 13.2745 169.244 12.2776C168.256 11.2808 167.08 10.4884 165.785 9.94586C164.49 9.40329 163.101 9.12112 161.697 9.11545Z" fill="#F5F5F5"/>
    <path d="M132.016 169.585C131.935 171.658 131.858 173.601 131.795 175.213H141.842L140.611 169.042L132.016 169.585Z" fill="#F5F5F5"/>
    <path d="M91.1824 172.168L91.269 175.213H130.79C130.857 173.505 130.934 171.605 131.006 169.653L91.1824 172.168Z" fill="#F5F5F5"/>
    <path d="M141.116 169.013L142.352 175.213H160.874L160.653 167.777L141.116 169.013Z" fill="#F5F5F5"/>
    <path d="M133.017 82.2947L136.518 61.9882L127.346 61.3101V82.2947H133.017Z" fill="#EBEBEB"/>
    <path d="M90.3553 160.899L80.3992 164.8L80.3704 171.851L90.6535 171.197L90.3553 160.899Z" fill="#F5F5F5"/>
    <path d="M90.3116 159.312L89.7681 140.4H89.7585V133.729L80.5287 134.706L80.4085 163.179L90.3068 159.302L90.3116 159.312Z" fill="#EBEBEB"/>
    <path d="M89.7589 118.838L80.6013 117.631L80.534 133.195L89.7589 132.219V118.838Z" fill="#F5F5F5"/>
    <path d="M158.022 134.008L157.638 139.429L146.821 140.598L147.657 144.883L159.937 143.959L159.754 137.808L160.735 133.734L158.022 134.008Z" fill="#F5F5F5"/>
    <path d="M138.529 145.576L147.153 144.921L145.277 135.297L137.745 136.057L138.529 145.576Z" fill="#F5F5F5"/>
    <path d="M138.611 146.571L139.27 154.598L140.438 165.608L140.919 168.017L160.625 166.772L159.966 144.965L138.611 146.571Z" fill="#EBEBEB"/>
    <path d="M104.697 108.676L105.457 109.974L90.2587 118.839V139.862L106.299 138.727L137.206 135.605L136.076 121.825L106.544 117.978L106.741 116.487L135.951 120.301L134.027 96.9786L105.121 99.7586L105.024 98.763L133.95 95.9734L132.954 83.8049H105.145L80.726 88.2491L80.6057 116.116L89.8547 117.338L104.697 108.676ZM91.8171 137.856C91.8171 137.856 91.9325 120.517 91.8171 119.873L104.216 113.288L105.847 136.971L91.8171 137.856Z" fill="#F5F5F5"/>
    <path d="M157.012 134.114L145.777 135.244L146.628 139.611L156.699 138.524L157.012 134.114Z" fill="#F5F5F5"/>
    <path d="M132.156 165.872C132.122 166.781 132.089 167.69 132.055 168.58L140.414 168.051L139.986 165.896L132.156 165.872Z" fill="#F5F5F5"/>
    <path d="M114.148 82.2946L115.62 75.6188H126.846V61.2715L91.7449 58.6743V72.1414L80.7788 74.6232L80.7307 86.7147L105.01 82.2946H114.148Z" fill="#EBEBEB"/>
    <path d="M137.591 42.384L137.293 41.1527L150.697 35.8621L141.953 18.3501C141.794 18.3726 141.633 18.3855 141.472 18.3886L126.659 18.3164L127.063 42.8121L137.591 42.384Z" fill="#F5F5F5"/>
    <path d="M157.883 32.9955V9.09627L148.129 9.05298C147.685 9.0586 147.246 9.15207 146.838 9.32801C146.43 9.50395 146.061 9.75888 145.752 10.0781C145.443 10.3973 145.201 10.7745 145.038 11.188C144.876 11.6014 144.797 12.0429 144.805 12.4871V14.9544C144.806 15.5063 144.675 16.0504 144.424 16.542C144.173 17.0336 143.809 17.4587 143.363 17.7825L152.087 35.2945L157.883 32.9955Z" fill="#EBEBEB"/>
    <path d="M107.492 34.02L106.361 8.8606H103.649L93.0675 8.8125L88.532 31.2977L107.492 34.02ZM105.087 11.4145L105.448 31.9037L91.3553 29.8452L94.4431 11.4145H105.087Z" fill="#F5F5F5"/>
    <path d="M108.007 34.097V34.3086C108.007 36.2709 108.074 39.806 108.103 43.5864L126.562 42.8313L126.158 18.302L114.986 18.2635C114.542 18.2529 114.105 18.1548 113.7 17.9749C113.294 17.7949 112.929 17.5366 112.623 17.2148C112.318 16.893 112.079 16.5141 111.921 16.0997C111.763 15.6854 111.688 15.2439 111.701 14.8006V12.3332C111.713 11.8898 111.638 11.4483 111.48 11.034C111.322 10.6197 111.083 10.2408 110.778 9.91897C110.473 9.59718 110.107 9.33887 109.701 9.1589C109.296 8.97892 108.859 8.88083 108.416 8.87024H106.857L107.987 34.1018L108.007 34.097Z" fill="#F5F5F5"/>
    <path d="M87.0411 31.0861L91.5141 8.80286C88.721 8.85309 86.0585 9.99446 84.0963 11.9828C82.1341 13.9711 81.0279 16.6484 81.0146 19.4418L80.9665 30.5474L81.0146 30.2203L87.0411 31.0861Z" fill="#F5F5F5"/>
    <path d="M90.2394 58.5637L80.8509 57.8663L80.7884 73.0793L90.2394 70.9438V58.5637Z" fill="#F5F5F5"/>
    <path d="M86.9401 31.5766L80.9665 30.7205L80.8655 55.3556L82.1497 55.4518L86.9401 31.5766Z" fill="#F5F5F5"/>
    <path d="M105.905 159.023L106.063 139.246L90.2683 140.362L90.8263 159.74L105.905 159.023Z" fill="#F5F5F5"/>
    <path d="M108.81 154.459L131.179 165.175C131.449 158.172 131.684 151.626 131.66 151.227L132.141 151.198L132.377 150.717C132.699 150.876 132.699 150.876 132.531 155.652C132.439 158.316 132.305 161.861 132.17 165.406H139.909L138.769 154.651L137.249 136.11L108.021 139.063L108.81 154.459Z" fill="#F5F5F5"/>
    <path d="M163.645 121.633L163.39 119.026L136.576 121.816L137.706 135.557L160.855 133.219L163.645 121.633Z" fill="#F5F5F5"/>
    <path d="M126.846 77.1241H116.827L115.687 82.2945H126.846V77.1241Z" fill="#F5F5F5"/>
    <path d="M159.504 78.8701L134.416 77.1338L133.397 83.0593L134.45 95.9204L160.903 93.3761L159.504 78.8701ZM135.34 83.0497L136.686 79.3078L158.474 80.6881L159.715 91.3848L136.056 94.1937L135.34 83.0497Z" fill="#F5F5F5"/>
    <path d="M162.106 105.751L161.004 94.3765L134.532 96.9208L135.528 109.027L162.106 105.751Z" fill="#F5F5F5"/>
    <path d="M90.682 172.202L80.4133 172.851L80.37 172.183L80.3556 175.213H90.7686L90.682 172.202Z" fill="#F5F5F5"/>
    <path d="M172.158 27.3489L172.307 27.7289L172.34 19.8507C172.352 17.0158 171.237 14.2924 169.241 12.2793C167.245 10.2662 164.532 9.12821 161.697 9.11548H158.368V32.8127L172.158 27.3489Z" fill="#EBEBEB"/>
    <path d="M131.16 165.714L108.324 154.772L107.521 139.097L106.559 139.193L106.396 159.49L90.8362 160.23V160.683L91.1392 171.148L131.035 168.623C131.084 167.676 131.122 166.675 131.16 165.714ZM91.8174 161.519L113.6 159.99L127.774 166.565L91.8174 168.489V161.519Z" fill="#F5F5F5"/>
    <path d="M165.665 53.6483L166.598 48.1075C158.421 45.1832 157.844 36.6461 157.868 34.0585L152.525 36.1747L160.571 52.3304L165.665 53.6483Z" fill="#F5F5F5"/>
    <path d="M136.456 120.32L147.585 119.161L145.392 109.325L135.648 110.527L136.456 120.32Z" fill="#F5F5F5"/>
    <path d="M160.47 63.306L139.678 63.3012L137.951 63.1761L135.604 76.7923L160.283 78.4998L159.71 72.5791L162.139 63.8351L160.47 63.306Z" fill="#F5F5F5"/>
    <path d="M159.032 59.6507L159.292 53.1529L151.116 36.7471L138.447 41.7636L142.776 59.6507H159.032ZM150.63 38.7383L158.114 52.9845L157.036 57.4238L144.219 56.9429L141.015 43.4758L150.63 38.7383Z" fill="#F5F5F5"/>
    <path d="M162.269 138.068L162.649 150.837L171.658 150.327L171.687 150.828L162.669 151.337L163.125 166.613L171.643 166.074L171.706 167.075L163.154 167.618L163.385 175.213H171.682L171.865 132.613L163.376 133.47L162.269 138.068Z" fill="#F5F5F5"/>
    <path d="M107.511 34.5298L88.4311 31.7931L83.6599 55.5721L107.593 57.3469C107.689 53.6771 107.607 42.4513 107.511 34.5298Z" fill="#EBEBEB"/>
    <path d="M138.885 59.6555H141.775L137.687 42.8794L127.072 43.3123L127.327 58.7946L138.885 59.6555Z" fill="#F5F5F5"/>
    <path d="M108.083 57.371L126.841 58.761L126.591 43.3315L108.127 44.0867C108.146 49.3196 108.16 54.8699 108.083 57.371Z" fill="#F5F5F5"/>
    <path d="M162.25 107.247L145.892 109.267L148.09 119.108L163.246 117.53L162.25 107.247Z" fill="#F5F5F5"/>
    <path d="M166.684 47.6217L167.733 41.4028L172.249 41.7539L172.307 28.3638L158.359 33.8805C158.094 43.2978 164.01 46.6117 166.684 47.6217Z" fill="#EBEBEB"/>
    <path d="M161.322 71.6556L161.89 77.5282L172.096 78.2352L172.144 66.1389L163.602 63.4407L161.322 71.6556Z" fill="#F5F5F5"/>
    <path d="M166.18 121.811L163.501 132.955L171.865 132.108L171.918 120.426C169.349 119.748 167.108 119.199 165.901 118.983L166.18 121.811Z" fill="#F5F5F5"/>
    <path d="M160.528 59.843L172.158 63.5128L172.187 56.9043L160.768 53.9512L160.528 59.843Z" fill="#F5F5F5"/>
    <path d="M165.756 117.434C166.694 117.578 168.469 117.954 171.923 118.877L172.028 93.3329L163.501 94.1505L165.756 117.434Z" fill="#F5F5F5"/>
    <path d="M163.404 93.1404L172.033 92.3083L172.086 79.7406L162.038 79.0432L163.404 93.1404Z" fill="#F5F5F5"/>
    <path d="M167.646 47.9391C169.286 48.4201 170.806 48.8193 172.215 49.1031L172.244 42.7591L168.57 42.4753L167.646 47.9391Z" fill="#F5F5F5"/>
    <path d="M166.641 53.9176L172.192 55.3605L172.216 49.6274C170.776 49.3452 169.226 48.9508 167.565 48.4442L166.641 53.9176Z" fill="#F5F5F5"/>
    <path d="M171.706 167.075L171.643 166.074L163.125 166.613L162.668 151.337L171.686 150.828L171.662 150.347L162.649 150.856L162.269 138.092L163.375 133.489L171.864 132.633V132.128L163.5 132.974L166.179 121.83L165.9 118.988C167.108 119.218 169.349 119.767 171.917 120.43V118.867C168.464 117.958 166.689 117.583 165.751 117.424L163.496 94.1263L172.023 93.3087V92.2987L163.395 93.1307L162.029 79.0336L172.076 79.731V78.2208L161.87 77.5186L161.302 71.6459L163.582 63.431L172.143 66.1533V63.5272L160.514 59.8574L160.749 53.9656L172.167 56.9187V55.3652L166.617 53.9223L167.541 48.4393C169.205 48.9459 170.755 49.3403 172.191 49.6225V49.1078C170.782 48.8241 169.262 48.4393 167.622 47.9439L168.546 42.4801L172.22 42.7639V41.7586L167.704 41.4075L166.656 47.6264C163.981 46.6164 158.065 43.2977 158.349 33.8852L172.297 28.3685V27.7288L172.148 27.3489L158.373 32.7982V9.10098H157.868V33.0002L152.063 35.2993L143.362 17.7824C142.948 18.0803 142.468 18.2749 141.963 18.35L150.673 35.8524L137.268 41.143L137.567 42.3743L127.062 42.8023L126.658 18.3067H126.177L126.581 42.836L108.122 43.5911C108.093 39.8107 108.05 36.2756 108.026 34.3133V34.1017L106.895 8.87012H106.39L107.521 34.0295L88.5321 31.2976L93.0483 8.79797H91.7545H91.5141L87.0411 31.0812L81.0145 30.2154L80.9665 30.5425V30.7156L86.9401 31.5718L82.1304 55.447L80.8414 55.3508V57.8614L90.2299 58.5588V70.963L80.7885 73.0792V74.6231L91.7497 72.1413V58.6743L126.86 61.2763V75.6187H115.62L114.148 82.2994H105.01L80.7308 86.7146V88.2441L105.149 83.8H132.959L133.955 95.9685L105.034 98.7532L105.13 99.7488L134.036 96.9689L135.96 120.291L106.751 116.477L106.554 117.968L136.085 121.816L137.216 135.595L106.309 138.717L90.2684 139.852V118.838L105.467 109.974L104.707 108.676L89.8643 117.333L80.6153 116.111V117.617L89.7537 118.824V132.204L80.5288 133.166V134.677L89.7585 133.715V140.386L90.302 159.297L80.4037 163.174V164.79L90.3597 160.894L90.6579 171.197L80.3556 171.851V172.182L80.3989 172.851L90.6676 172.202L90.7541 175.213H91.2351L91.1485 172.168L130.973 169.653C130.9 171.605 130.824 173.5 130.756 175.213H131.819C131.882 173.601 131.959 171.658 132.04 169.585L140.635 169.042L141.867 175.213H142.376L141.14 169.013L160.677 167.777L160.898 175.213H163.409M132.055 168.599C132.088 167.709 132.122 166.8 132.156 165.891L139.986 165.915L140.414 168.07L132.055 168.599ZM140.919 168.037L140.438 165.632L139.269 154.622L138.61 146.595L159.965 144.989L160.624 166.796L140.919 168.037ZM145.767 135.244L157.003 134.114L156.69 138.524L146.618 139.611L145.767 135.244ZM145.286 135.297L147.162 144.916L138.553 145.575L137.769 136.057L145.286 135.297ZM159.946 143.955L147.667 144.878L146.83 140.593L157.647 139.424L158.032 134.003L160.74 133.734L159.778 137.803L159.946 143.955ZM145.402 109.325L147.595 119.161L136.465 120.315L135.667 110.527L145.402 109.325ZM148.1 119.108L145.902 109.267L162.255 107.252L163.25 117.53L148.1 119.108ZM159.364 77.3502L134.686 75.6428L137.033 62.0266L138.759 62.1565H159.552L161.221 62.6807L158.782 71.4439L159.364 77.3502ZM157.878 34.0632C157.854 36.6508 158.421 45.1879 166.607 48.1122L165.665 53.6482L160.571 52.3303L152.525 36.1746L157.878 34.0632ZM151.144 36.7325L159.321 53.1383L159.061 59.6362H142.804L138.476 41.749L151.144 36.7325ZM137.687 42.8793L141.775 59.6506H138.889L127.346 58.7945L127.091 43.3122L137.687 42.8793ZM126.572 43.3314L126.822 58.7608L108.064 57.3708C108.141 54.8698 108.127 49.305 108.064 44.0865L126.572 43.3314ZM88.4311 31.7882L107.511 34.5249C107.607 42.4464 107.689 53.6722 107.593 57.3324L83.6599 55.572L88.4311 31.7882ZM136.528 61.9881L133.026 82.2945H127.346V61.31L136.528 61.9881ZM116.837 77.1193H126.856V82.2945H115.697L116.837 77.1193ZM133.406 83.0545L134.426 77.129L159.513 78.8653L160.918 93.3712L134.464 95.9155L133.406 83.0545ZM161.014 94.3716L162.12 105.751L135.542 109.027L134.532 96.9352L161.014 94.3716ZM136.585 121.811L163.399 119.021L163.654 121.628L160.865 133.215L137.716 135.552L136.585 121.811ZM138.769 154.651L139.914 165.401H132.175C132.31 161.856 132.444 158.311 132.536 155.647C132.704 150.871 132.704 150.871 132.382 150.712L132.146 151.193L131.665 151.222C131.689 151.64 131.454 158.186 131.184 165.17L108.81 154.459L108.021 139.068L137.249 136.115L138.769 154.651ZM106.063 139.26L105.905 159.038L90.8263 159.754L90.2684 140.376L106.063 139.26ZM90.8503 160.716V160.264L106.41 159.523L106.573 139.227L107.535 139.13L108.338 154.805L131.16 165.713C131.122 166.675 131.083 167.666 131.05 168.633L91.1533 171.158L90.8503 160.716Z" fill="white"/>
    <path d="M113.6 160L91.8172 161.529V168.522L127.769 166.574L113.6 160Z" fill="#E0E0E0"/>
    <path d="M158.474 80.6882L136.686 79.3079L135.34 83.0498L136.076 94.1938L159.734 91.3849L158.474 80.6882Z" fill="#E0E0E0"/>
    <path d="M80.3554 151.539L80.3025 187.42V191.267C80.375 194.043 81.5258 196.682 83.511 198.624C85.4961 200.566 88.1596 201.659 90.9367 201.671L160.879 201.993C162.283 202 163.675 201.73 164.975 201.199C166.275 200.667 167.457 199.885 168.455 198.897C169.452 197.908 170.245 196.733 170.788 195.438C171.331 194.143 171.613 192.753 171.619 191.349L171.686 151.539H80.3554Z" fill="white"/>
    <path d="M105.866 33.212L105.505 12.718H94.8615L91.7737 31.1487L105.866 33.212Z" fill="#E0E0E0"/>
    <path d="M157.036 57.4334L158.119 52.9893L150.63 38.743L141.015 43.4709L144.223 56.9476L157.036 57.4334Z" fill="#EBEBEB"/>
    <path d="M91.8172 119.873C91.9326 120.517 91.8172 137.856 91.8172 137.856L105.847 136.971L104.216 113.288L91.8172 119.873Z" fill="#E0E0E0"/>
    <path d="M138.529 133.951L137.788 123.206L161.812 120.118V121.97L158.907 131.849L138.529 133.951Z" fill="#E0E0E0"/>
    <path d="M160.927 161.322L160.624 154.315L139.514 155.339C138.964 155.364 138.416 155.248 137.922 155.002L107.968 139.871C107.627 139.699 107.338 139.439 107.129 139.119C106.921 138.799 106.8 138.43 106.78 138.048L102.706 58.9822C102.694 58.7945 102.723 58.6065 102.791 58.4313C102.859 58.256 102.965 58.0977 103.1 57.9673C103.235 57.8369 103.395 57.7362 103.57 57.6715C103.746 57.6069 103.933 57.5799 104.12 57.5922L116.957 58.5541V44.5099H118.463V58.7417C118.462 58.9232 118.424 59.1026 118.351 59.2687C118.278 59.4349 118.171 59.5844 118.038 59.7079C117.905 59.8314 117.749 59.9263 117.577 59.9868C117.406 60.0473 117.225 60.0721 117.044 60.0596L104.216 59.0976L108.28 137.976C108.288 138.093 108.325 138.206 108.389 138.304C108.453 138.401 108.542 138.481 108.646 138.534L138.601 153.665C138.861 153.796 139.151 153.857 139.442 153.843L160.735 152.809C160.91 152.801 161.085 152.827 161.25 152.886C161.414 152.946 161.566 153.037 161.695 153.155C161.825 153.273 161.93 153.415 162.005 153.574C162.079 153.732 162.121 153.904 162.13 154.079L162.437 161.26L160.927 161.322Z" fill="white"/>
    <path d="M159.114 71.622C159.125 69.8421 158.725 68.0837 157.944 66.4843C157.163 64.8848 156.023 63.4876 154.613 62.4018C153.202 61.316 151.56 60.5711 149.814 60.2252C148.068 59.8793 146.266 59.9419 144.548 60.408C142.83 60.8741 141.244 61.7311 139.912 62.9121C138.58 64.093 137.54 65.5659 136.872 67.2157C136.204 68.8654 135.926 70.6473 136.061 72.4221C136.196 74.1969 136.739 75.9165 137.648 77.4465L137.682 77.4898C138.124 78.2305 138.678 78.7643 139.236 79.5483L145.931 88.4125C146.124 88.6704 146.375 88.8797 146.663 89.0238C146.952 89.168 147.27 89.243 147.592 89.243C147.915 89.243 148.233 89.168 148.521 89.0238C148.81 88.8797 149.06 88.6704 149.254 88.4125L155.834 79.6926C156.433 78.9853 156.991 78.2451 157.507 77.4753L157.531 77.4465C158.57 75.6811 159.116 73.6699 159.114 71.622ZM147.571 76.6385C146.567 76.6385 145.586 76.3409 144.752 75.7833C143.917 75.2257 143.267 74.4332 142.883 73.5061C142.499 72.5789 142.398 71.5586 142.594 70.5743C142.79 69.59 143.273 68.6859 143.983 67.9762C144.692 67.2666 145.596 66.7833 146.581 66.5875C147.565 66.3918 148.585 66.4922 149.512 66.8763C150.44 67.2603 151.232 67.9107 151.79 68.7452C152.347 69.5796 152.645 70.5607 152.645 71.5642C152.646 72.9079 152.114 74.1971 151.165 75.1486C150.216 76.1 148.929 76.6359 147.585 76.6385H147.571Z" fill="#EB6440"/>
    <path d="M97.0452 166.762C97.0455 165.959 96.8605 165.166 96.5049 164.446C96.1492 163.725 95.6322 163.097 94.9942 162.609C94.3563 162.12 93.6143 161.786 92.8261 161.631C92.0378 161.476 91.2245 161.504 90.4491 161.715C89.6738 161.925 88.9573 162.311 88.3553 162.843C87.7533 163.375 87.282 164.038 86.9779 164.782C86.6739 165.525 86.5453 166.329 86.6021 167.13C86.659 167.932 86.8997 168.709 87.3057 169.403C87.5077 169.744 87.7578 169.984 88.0127 170.364L91.0476 174.385C91.1376 174.499 91.2523 174.592 91.3831 174.655C91.5139 174.718 91.6574 174.751 91.8027 174.751C91.948 174.751 92.0915 174.718 92.2223 174.655C92.3531 174.592 92.4678 174.499 92.5578 174.385L95.5398 170.427C95.8118 170.106 96.0655 169.771 96.2997 169.422C96.7842 168.619 97.0418 167.7 97.0452 166.762ZM91.8171 169.037C91.3611 169.038 90.915 168.904 90.5354 168.651C90.1558 168.398 89.8598 168.038 89.6848 167.617C89.5098 167.196 89.4638 166.732 89.5525 166.285C89.6413 165.838 89.8608 165.427 90.1833 165.104C90.5058 164.782 90.9167 164.562 91.364 164.473C91.8114 164.385 92.275 164.431 92.6962 164.606C93.1174 164.781 93.4771 165.077 93.7299 165.456C93.9827 165.836 94.1171 166.282 94.1162 166.738C94.1162 167.348 93.8739 167.932 93.4428 168.364C93.0116 168.795 92.4269 169.037 91.8171 169.037Z" fill="#EB6440"/>
    <path d="M160.153 170.523C160.153 170.591 147.104 170.648 131.011 170.648C114.918 170.648 101.864 170.591 101.864 170.523C101.864 170.456 114.913 170.398 131.011 170.398C147.109 170.398 160.153 170.427 160.153 170.523Z" fill="#263238"/>
    <path d="M131.819 175.213C131.819 175.285 125.119 175.338 116.856 175.338C108.593 175.338 101.888 175.285 101.888 175.213C101.888 175.141 108.588 175.088 116.856 175.088C125.124 175.088 131.819 175.145 131.819 175.213Z" fill="#263238"/>
    <path d="M104.549 159.605L105.549 161.64L107.79 161.967L106.169 163.544L106.554 165.781L104.549 164.728L102.543 165.781L102.923 163.544L101.302 161.967L103.543 161.64L104.549 159.605Z" fill="#EB6440"/>
    <path d="M114.043 159.605L115.048 161.64L117.289 161.967L115.663 163.544L116.048 165.781L114.043 164.728L112.037 165.781L112.422 163.544L110.796 161.967L113.042 161.64L114.043 159.605Z" fill="#EB6440"/>
    <path d="M123.537 159.605L124.542 161.64L126.783 161.967L125.162 163.544L125.542 165.781L123.537 164.728L121.531 165.781L121.916 163.544L120.295 161.967L122.536 161.64L123.537 159.605Z" fill="#EB6440"/>
    <path d="M133.036 159.605L134.036 161.64L136.278 161.967L134.657 163.544L135.042 165.781L133.036 164.728L131.03 165.781L131.41 163.544L129.789 161.967L132.031 161.64L133.036 159.605Z" fill="#EB6440"/>
    <path d="M142.53 159.605L143.535 161.64L145.777 161.967L144.156 163.544L144.536 165.781L142.53 164.728L140.524 165.781L140.909 163.544L139.284 161.967L141.53 161.64L142.53 159.605Z" fill="#E0E0E0"/>
    <path d="M121.065 184.322C121.065 184.394 117.419 184.447 112.922 184.447C108.425 184.447 104.779 184.394 104.779 184.322C104.779 184.25 108.425 184.197 112.922 184.197C117.419 184.197 121.065 184.255 121.065 184.322Z" fill="#E0E0E0"/>
    <path d="M162.909 188.425C162.909 188.492 149.894 188.55 133.844 188.55C117.794 188.55 104.779 188.492 104.779 188.425C104.779 188.357 117.765 188.295 133.844 188.295C149.923 188.295 162.909 188.353 162.909 188.425Z" fill="#E0E0E0"/>
    <path d="M94.27 191.258C97.0113 191.258 99.2336 189.035 99.2336 186.294C99.2336 183.553 97.0113 181.331 94.27 181.331C91.5287 181.331 89.3064 183.553 89.3064 186.294C89.3064 189.035 91.5287 191.258 94.27 191.258Z" fill="#F5F5F5"/>
    <path d="M94.8518 186.155C95.1374 186.037 95.3815 185.837 95.5528 185.58C95.7242 185.323 95.815 185.021 95.8137 184.712C95.8169 184.521 95.7824 184.331 95.7122 184.153C95.642 183.975 95.5375 183.813 95.4046 183.676C95.2717 183.539 95.1131 183.429 94.9378 183.353C94.7625 183.277 94.5739 183.236 94.3828 183.233C94.1918 183.23 94.002 183.264 93.8242 183.334C93.6465 183.404 93.4843 183.509 93.347 183.642C93.2097 183.775 93.0999 183.933 93.0238 184.109C92.9478 184.284 92.907 184.473 92.9039 184.664C92.8986 184.967 92.9823 185.266 93.1447 185.522C93.3071 185.778 93.5411 185.982 93.8177 186.107C91.5716 186.419 91.6485 188.853 91.6485 188.853L96.9392 188.935C96.9392 188.935 97.0642 186.515 94.8518 186.155Z" fill="#E0E0E0"/>
    <path d="M126.336 196.847C126.271 196.845 126.209 196.817 126.163 196.77L123.758 194.259C123.736 194.237 123.718 194.21 123.706 194.181C123.694 194.151 123.687 194.12 123.687 194.088C123.687 194.056 123.694 194.025 123.706 193.996C123.718 193.966 123.736 193.94 123.758 193.917C123.78 193.895 123.807 193.877 123.836 193.865C123.864 193.853 123.895 193.847 123.927 193.847C123.958 193.847 123.989 193.853 124.018 193.865C124.047 193.877 124.073 193.895 124.095 193.917L126.332 196.245L128.525 193.961C128.571 193.916 128.632 193.892 128.696 193.892C128.759 193.892 128.821 193.916 128.866 193.961C128.889 193.983 128.907 194.01 128.919 194.039C128.931 194.068 128.937 194.1 128.937 194.131C128.937 194.163 128.931 194.195 128.919 194.224C128.907 194.253 128.889 194.28 128.866 194.302L126.529 196.77C126.505 196.796 126.475 196.817 126.442 196.831C126.408 196.844 126.372 196.85 126.336 196.847Z" fill="#263238"/>
    <path d="M48.9435 53.3283C48.1909 51.5535 47.597 49.7154 47.1688 47.8357C46.7373 45.9498 46.7819 43.9862 47.2986 42.1218C47.3852 41.8428 48.1451 39.9575 48.4385 39.9719C48.6453 39.9719 48.2077 41.7178 48.3231 41.8958C49.3725 43.6046 49.8758 45.5929 49.766 47.5952C49.7049 49.5311 49.4274 51.4541 48.9387 53.3283" fill="#263238"/>
    <path d="M55.8262 72.3412C52.8394 72.447 49.5304 66.9062 49.3572 63.929L48.3231 45.9842C47.8903 41.1745 50.3336 36.9131 55.1529 36.6149H55.6002C57.7727 36.6069 59.8689 37.4159 61.4727 38.8816C63.0764 40.3472 64.0705 42.3623 64.2576 44.5268C64.6087 48.6968 64.9405 53.3141 64.9213 55.5506C64.8828 60.1871 60.2463 60.923 60.2463 60.923C60.2463 60.923 60.2848 62.0004 60.3473 63.3567C60.4868 66.4108 60.2752 73.457 57.221 73.5532L55.8262 72.3412Z" fill="#FFBE9D"/>
    <path d="M60.2364 60.9265C58.0959 60.9292 55.9994 60.3183 54.1954 59.1661C54.1954 59.1661 55.6816 62.5329 60.3037 62.1L60.2364 60.9265Z" fill="#EB996E"/>
    <path d="M62.7566 48.3694C62.7593 48.5417 62.6943 48.7082 62.5756 48.8332C62.4569 48.9581 62.294 49.0316 62.1218 49.0379C62.0376 49.0444 61.953 49.0341 61.8728 49.0075C61.7927 48.981 61.7186 48.9387 61.655 48.8831C61.5914 48.8276 61.5395 48.7599 61.5024 48.6841C61.4653 48.6083 61.4437 48.5258 61.4388 48.4415C61.4362 48.355 61.4507 48.2688 61.4815 48.1878C61.5123 48.1069 61.5587 48.0328 61.6181 47.9699C61.6775 47.9069 61.7487 47.8562 61.8277 47.8208C61.9067 47.7854 61.9919 47.7658 62.0785 47.7633C62.1632 47.7568 62.2483 47.7675 62.3288 47.7947C62.4093 47.8219 62.4835 47.8651 62.5468 47.9217C62.6102 47.9783 62.6614 48.0472 62.6975 48.1241C62.7335 48.201 62.7537 48.2845 62.7566 48.3694Z" fill="#263238"/>
    <path d="M63.2616 46.4744C63.1798 46.561 62.6796 46.1906 61.9678 46.1954C61.2559 46.2002 60.7317 46.5561 60.6547 46.4696C60.5778 46.383 60.7028 46.2772 60.9289 46.1088C61.2367 45.8952 61.6027 45.781 61.9774 45.7818C62.3465 45.779 62.7069 45.8935 63.0067 46.1088C63.2279 46.2772 63.3049 46.4359 63.2616 46.4744Z" fill="#263238"/>
    <path d="M56.3068 48.6136C56.307 48.7865 56.2407 48.9528 56.1217 49.0782C56.0026 49.2035 55.8398 49.2783 55.6671 49.2869C55.583 49.2935 55.4983 49.2831 55.4182 49.2566C55.338 49.23 55.264 49.1877 55.2004 49.1322C55.1368 49.0766 55.0849 49.009 55.0478 48.9331C55.0107 48.8573 54.989 48.7748 54.9842 48.6905C54.9803 48.5178 55.0449 48.3506 55.1638 48.2254C55.2827 48.1001 55.4464 48.027 55.6191 48.022C55.7032 48.0148 55.788 48.0244 55.8684 48.0504C55.9488 48.0764 56.0232 48.1181 56.0873 48.1732C56.1513 48.2283 56.2038 48.2956 56.2415 48.3713C56.2792 48.4469 56.3014 48.5292 56.3068 48.6136Z" fill="#263238"/>
    <path d="M56.307 46.8186C56.2252 46.9052 55.7202 46.5349 55.0084 46.5397C54.2965 46.5445 53.7771 46.9004 53.7001 46.8138C53.6232 46.7272 53.7434 46.6214 53.9695 46.4531C54.2766 46.238 54.643 46.1237 55.018 46.126C55.3886 46.1232 55.7505 46.2377 56.0521 46.4531C56.2541 46.5974 56.307 46.7561 56.307 46.8186Z" fill="#263238"/>
    <path d="M58.8607 52.2337C59.2343 52.112 59.6226 52.0408 60.015 52.0221C60.1978 52.0221 60.371 51.9644 60.3998 51.8393C60.415 51.6518 60.3731 51.464 60.2796 51.3007C60.1064 50.863 59.9237 50.4013 59.7361 49.9155C58.981 47.9483 58.4327 46.3275 58.5144 46.2986C58.5962 46.2698 59.2695 47.8425 60.0247 49.8097C60.2026 50.2906 60.3806 50.7716 60.5441 51.2045C60.6578 51.4234 60.6918 51.6751 60.6403 51.9163C60.6141 51.9803 60.5736 52.0373 60.5219 52.0832C60.4702 52.1291 60.4087 52.1625 60.3421 52.1808C60.2418 52.2091 60.1384 52.2253 60.0343 52.2289C59.6447 52.2774 59.2507 52.279 58.8607 52.2337Z" fill="#263238"/>
    <path d="M56.7877 52.7538C56.9032 52.7538 56.9031 53.5185 57.5669 54.0668C58.2306 54.6151 59.0579 54.5478 59.0627 54.6295C59.0675 54.7113 58.8799 54.7834 58.5288 54.793C58.0762 54.8014 57.635 54.6498 57.2831 54.365C56.9468 54.0896 56.7298 53.695 56.6771 53.2636C56.629 52.9413 56.7156 52.7489 56.7877 52.7538Z" fill="#263238"/>
    <path d="M56.2398 43.9031C56.1676 44.0955 55.4558 44.0041 54.6237 44.1099C53.7916 44.2157 53.1087 44.4418 52.9981 44.2686C52.95 44.1869 53.0654 44.0041 53.3395 43.8165C53.701 43.5818 54.1132 43.4367 54.542 43.3933C54.9691 43.3386 55.4031 43.3882 55.8069 43.5376C56.1147 43.6578 56.2686 43.8117 56.2398 43.9031Z" fill="#263238"/>
    <path d="M62.9587 44.0987C62.8337 44.2574 62.3431 44.0987 61.7563 44.0987C61.1695 44.0987 60.6645 44.2093 60.5491 44.041C60.501 43.9592 60.5779 43.7957 60.7944 43.6418C61.0801 43.4562 61.4157 43.3622 61.7563 43.3725C62.1022 43.3796 62.4378 43.492 62.7182 43.6947C62.9443 43.8534 63.0405 44.017 62.9587 44.0987Z" fill="#263238"/>
    <path d="M48.7221 49.4092C48.6452 49.3755 45.5333 48.4809 45.6488 51.6505C45.7642 54.8201 48.9193 54.0553 48.9193 53.9591C48.9193 53.8629 48.7221 49.4092 48.7221 49.4092Z" fill="#FFBE9D"/>
    <path d="M47.9091 52.813C47.9091 52.813 47.8562 52.8515 47.7648 52.8996C47.6317 52.9507 47.4843 52.9507 47.3512 52.8996C47.1424 52.7757 46.9701 52.5987 46.8519 52.3867C46.7336 52.1747 46.6736 51.9351 46.6778 51.6923C46.6585 51.4217 46.7013 51.1503 46.8029 50.8987C46.8281 50.7985 46.8777 50.706 46.9474 50.6296C47.017 50.5533 47.1046 50.4953 47.2021 50.4611C47.265 50.4424 47.3325 50.446 47.393 50.4715C47.4535 50.4969 47.5033 50.5425 47.534 50.6006C47.5821 50.6871 47.5628 50.7497 47.5772 50.7545C47.5917 50.7593 47.6446 50.7016 47.6157 50.5717C47.5949 50.4924 47.5473 50.4228 47.4811 50.3745C47.4368 50.3435 47.3867 50.3215 47.3339 50.31C47.2811 50.2984 47.2265 50.2975 47.1732 50.3072C47.0448 50.3382 46.9263 50.4013 46.8288 50.4904C46.7312 50.5795 46.6578 50.6919 46.6153 50.817C46.4925 51.0968 46.4381 51.4018 46.4566 51.7068C46.4516 51.9892 46.5295 52.2669 46.6809 52.5055C46.8322 52.744 47.0502 52.9329 47.3079 53.0487C47.3907 53.0661 47.4762 53.0661 47.559 53.0487C47.6418 53.0313 47.7201 52.9969 47.7889 52.9477C47.9043 52.89 47.9187 52.8178 47.9091 52.813Z" fill="#EB996E"/>
    <path d="M61.9678 39.382C62.4488 39.0742 60.852 37.4822 59.563 36.9772C57.6391 36.198 54.6908 35.794 52.9593 36.3711C50.8719 37.0637 49.1597 38.194 48.1833 40.1612C47.2495 42.1667 46.8645 44.384 47.0675 46.5869C47.0693 47.2645 47.2537 47.9291 47.6013 48.5108C48.0823 49.1937 48.9432 49.5929 48.948 50.5645C48.9422 50.7415 48.972 50.9178 49.0357 51.083C49.0993 51.2483 49.1954 51.399 49.3184 51.5264C49.9244 52.1132 50.6074 51.5264 50.9104 50.9108C51.5501 49.6362 51.5645 48.1548 51.5597 46.7312C51.6145 45.7177 51.5024 44.7022 51.2278 43.7251C51.0499 43.2057 50.7805 42.7151 50.6314 42.186C50.5395 41.9255 50.5056 41.648 50.5322 41.373C50.5588 41.098 50.6452 40.8321 50.7853 40.594C50.858 40.4964 50.9402 40.4062 51.0306 40.3247C51.4548 39.9199 51.9791 39.6353 52.5496 39.5001C53.1202 39.3648 53.7164 39.3838 54.2772 39.5552C56.0904 40.1083 59.1782 40.9163 59.9478 40.2766C60.4994 39.8757 60.96 39.3627 61.2993 38.7712L61.9678 39.382Z" fill="#263238"/>
    <path d="M53.1083 35.9192C53.9615 35.5734 54.8749 35.4004 55.7955 35.4103C56.7161 35.4202 57.6255 35.6128 58.4711 35.9769C58.9236 36.1609 59.3345 36.4341 59.6791 36.7804C60.0237 37.1266 60.2949 37.5387 60.4767 37.9921C60.7797 38.9204 60.4334 40.094 59.5437 40.498L59.4859 40.5413C58.1537 41.0559 57.2687 40.9116 55.8979 40.5076C54.7484 40.1661 53.7095 39.512 52.5312 39.1753C51.2973 38.8148 49.9836 38.8333 48.7604 39.2282C49.8939 37.7625 51.3935 36.6211 53.1083 35.9192Z" fill="#263238"/>
    <path d="M49.126 38.7726C49.6004 38.5388 50.1176 38.4046 50.6458 38.3782C51.2186 38.3666 51.7884 38.4645 52.3244 38.6668C52.9822 38.927 53.6176 39.2407 54.2242 39.6047C54.8416 39.971 55.4846 40.2924 56.1481 40.5666C56.7018 40.789 57.2925 40.9049 57.8892 40.9081C58.2922 40.9115 58.6921 40.838 59.0676 40.6916C59.2078 40.6442 59.337 40.5689 59.4475 40.4704C58.9511 40.6562 58.4239 40.7459 57.894 40.7349C57.3213 40.707 56.758 40.5784 56.2299 40.355C55.5796 40.0756 54.9482 39.7542 54.3397 39.393C53.7291 39.0237 53.0849 38.7129 52.4158 38.4648C51.8514 38.2654 51.253 38.1804 50.6555 38.2147C50.2533 38.2386 49.8604 38.3451 49.5011 38.5273C49.3591 38.5796 49.2309 38.6635 49.126 38.7726Z" fill="#455A64"/>
    <path d="M50.4152 37.6711C50.8676 37.5004 51.3457 37.4076 51.8292 37.397C52.35 37.407 52.8654 37.5046 53.3539 37.6856C53.9547 37.9163 54.5288 38.2114 55.0661 38.5657C55.6481 38.9313 56.1964 39.3064 56.7254 39.6046C57.181 39.8775 57.6648 40.1 58.1683 40.2684C58.5157 40.3798 58.8764 40.4445 59.2409 40.4607C59.3746 40.4758 59.51 40.466 59.6401 40.4319C59.1607 40.3614 58.6878 40.252 58.2261 40.1048C57.7337 39.9197 57.2602 39.6877 56.812 39.4122C56.3022 39.1044 55.7635 38.7293 55.1719 38.3589C54.6251 37.995 54.0375 37.6964 53.4212 37.4691C52.9053 37.2892 52.361 37.2044 51.8148 37.219C51.4476 37.2329 51.0859 37.3127 50.747 37.4547C50.6226 37.503 50.5096 37.5767 50.4152 37.6711Z" fill="#455A64"/>
    <path d="M57.7833 36.3162C57.7833 36.3162 57.9468 36.5422 58.2354 36.8597C58.6228 37.2607 58.9544 37.7121 59.2214 38.2016C59.4797 38.6877 59.6042 39.2338 59.5821 39.7839C59.5581 40.2072 59.4475 40.4573 59.4811 40.4717C59.5148 40.4862 59.6783 40.2553 59.7553 39.8032C59.8319 39.2133 59.7208 38.6142 59.4378 38.0909C59.1613 37.5804 58.7965 37.1228 58.3605 36.7394C58.0334 36.446 57.8074 36.2921 57.7833 36.3162Z" fill="#455A64"/>
    <path d="M60.0539 37.7349C60.1256 38.2125 60.1385 38.697 60.0924 39.1778C59.969 39.6517 59.7847 40.1076 59.5441 40.5341C59.5441 40.5341 59.7124 40.462 59.8904 40.2359C60.1139 39.9361 60.2653 39.5888 60.3329 39.2211C60.4015 38.8527 60.3801 38.4731 60.2703 38.1148C60.1838 37.8647 60.0779 37.7204 60.0539 37.7349Z" fill="#455A64"/>
    <path d="M43.7198 193.159L44.2008 203.572C44.2008 203.572 33.7734 207.53 33.6676 209.459L53.8682 209.3L53.8249 193.053L43.7198 193.159Z" fill="#455A64"/>
    <path d="M50.4198 202.65C50.6228 202.705 50.7975 202.835 50.9083 203.013C51.019 203.192 51.0576 203.406 51.0162 203.612C50.967 203.81 50.8435 203.98 50.6714 204.089C50.4993 204.197 50.292 204.235 50.0928 204.194C49.8865 204.133 49.7105 203.997 49.5985 203.813C49.4866 203.629 49.4468 203.41 49.4867 203.199C49.5635 203.002 49.7133 202.842 49.905 202.752C50.0967 202.662 50.3155 202.65 50.516 202.718" fill="#E0E0E0"/>
    <path d="M53.8586 209.278L53.7913 207.643L34.4371 208.393C34.4371 208.393 33.5377 208.792 33.6435 209.422L53.8586 209.278Z" fill="white"/>
    <path d="M43.8498 203.461C43.8498 203.557 44.3307 203.601 44.8358 203.913C45.3408 204.226 45.5861 204.639 45.6726 204.601C45.7592 204.562 45.6149 203.99 45.0137 203.639C44.4125 203.288 43.8257 203.37 43.8498 203.461Z" fill="#263238"/>
    <path d="M41.7335 204.367C41.7335 204.463 42.1423 204.632 42.479 205.045C42.8157 205.459 42.9167 205.901 43.0177 205.897C43.1187 205.892 43.1716 205.329 42.7436 204.824C42.3155 204.319 41.7383 204.276 41.7335 204.367Z" fill="#263238"/>
    <path d="M40.5504 206.885C40.6418 206.885 40.7716 206.404 40.5167 205.87C40.2618 205.337 39.7953 205.125 39.752 205.207C39.7087 205.288 40.0021 205.572 40.2041 206.02C40.4061 206.467 40.4349 206.876 40.5504 206.885Z" fill="#263238"/>
    <path d="M44.0084 201.079C44.0516 201.171 44.4893 201.031 45.0617 201.079C45.634 201.127 46.0525 201.286 46.1054 201.2C46.1583 201.113 45.735 200.767 45.0761 200.719C44.4172 200.671 43.9603 201.002 44.0084 201.079Z" fill="#263238"/>
    <path d="M74.2518 193.159L73.7997 203.572C73.7997 203.572 84.2271 207.53 84.3281 209.459L64.1275 209.3L64.1756 193.053L74.2518 193.159Z" fill="#455A64"/>
    <path d="M67.5567 202.65C67.3612 202.708 67.1938 202.835 67.0864 203.008C66.979 203.181 66.9392 203.388 66.9747 203.588C67.026 203.785 67.1507 203.955 67.3233 204.064C67.4958 204.172 67.7032 204.21 67.903 204.17C68.1092 204.109 68.2853 203.973 68.3972 203.789C68.5091 203.605 68.5489 203.386 68.509 203.175C68.4322 202.977 68.2824 202.817 68.0907 202.728C67.8991 202.638 67.6802 202.626 67.4797 202.694" fill="#E0E0E0"/>
    <path d="M64.1129 209.278L64.1851 207.643L83.5392 208.393C83.5392 208.393 84.4338 208.792 84.328 209.422L64.1129 209.278Z" fill="white"/>
    <path d="M74.1266 203.461C74.1266 203.557 73.6457 203.601 73.1406 203.913C72.6356 204.226 72.3903 204.639 72.299 204.601C72.2076 204.562 72.3615 203.99 72.9579 203.639C73.5543 203.288 74.1507 203.37 74.1266 203.461Z" fill="#263238"/>
    <path d="M76.2433 204.367C76.2433 204.463 75.8345 204.632 75.4978 205.045C75.1611 205.459 75.0553 205.901 74.9591 205.897C74.8629 205.892 74.8004 205.329 75.2333 204.824C75.6661 204.319 76.2385 204.276 76.2433 204.367Z" fill="#263238"/>
    <path d="M77.426 206.885C77.3347 206.885 77.2 206.404 77.4597 205.87C77.7194 205.337 78.1812 205.125 78.2196 205.207C78.2581 205.288 77.9743 205.572 77.7675 206.02C77.5607 206.467 77.5222 206.876 77.426 206.885Z" fill="#263238"/>
    <path d="M39.4059 114.684C39.4059 115.319 43.4989 200.979 43.4989 200.979L54.1283 201.08L57.5816 128.228C57.5816 128.228 62.0258 166.508 62.0258 167.355C62.0258 168.201 63.2859 201.503 63.2859 201.503H74.5021V122.096L67.2875 110.466L39.4059 114.684Z" fill="#263238"/>
    <path d="M68.7783 201.511C68.7708 201.447 68.7708 201.382 68.7783 201.318C68.7783 201.179 68.7783 200.991 68.7783 200.751C68.7783 200.236 68.7783 199.505 68.7783 198.567C68.7495 196.667 68.6918 193.921 68.5956 190.53C68.3888 183.744 68.004 174.379 67.5278 164.034C67.0517 153.688 66.5659 144.314 66.2388 137.537C66.0753 134.171 65.9406 131.419 65.8492 129.51C65.8108 128.572 65.7819 127.836 65.7579 127.326C65.7579 127.086 65.7579 126.898 65.7579 126.759C65.7515 126.693 65.7515 126.627 65.7579 126.562C65.7728 126.625 65.7809 126.689 65.7819 126.754C65.7819 126.894 65.7819 127.081 65.8252 127.322C65.8541 127.836 65.9022 128.567 65.9599 129.505C66.0705 131.429 66.2292 134.151 66.4408 137.528C66.8208 144.305 67.3162 153.669 67.802 164.019C68.2877 174.37 68.6389 183.739 68.7976 190.525C68.8745 193.921 68.9034 196.667 68.9034 198.562C68.9034 199.524 68.9034 200.236 68.9034 200.751C68.9034 200.991 68.9034 201.179 68.9034 201.318C68.8695 201.387 68.8275 201.452 68.7783 201.511Z" fill="#455A64"/>
    <path d="M49.1933 126.562C49.2607 126.562 49.2559 143.232 49.1933 163.798C49.1308 184.364 49.0009 201.039 48.9336 201.039C48.8663 201.039 48.8711 184.369 48.9336 163.798C48.9961 143.227 49.126 126.557 49.1933 126.562Z" fill="#455A64"/>
    <path d="M58.4331 124.139C58.2826 124.234 58.1211 124.31 57.9521 124.365C57.6202 124.49 57.1345 124.668 56.5381 124.88L56.4274 124.918V124.798C56.3601 123.745 56.2783 122.335 56.2062 120.792C56.1244 119.118 56.0667 117.603 56.0379 116.506C56.0379 115.958 56.0379 115.511 56.0379 115.208C56.0155 115.048 56.0155 114.886 56.0379 114.727C56.0795 114.884 56.1037 115.045 56.11 115.208C56.1389 115.511 56.1725 115.953 56.211 116.501C56.2831 117.598 56.3697 119.113 56.4467 120.787C56.5236 122.331 56.5765 123.74 56.6054 124.793L56.4851 124.711C57.0912 124.519 57.5818 124.37 57.928 124.269C58.0906 124.206 58.2601 124.162 58.4331 124.139Z" fill="#455A64"/>
    <path d="M57.4855 115.047C57.4855 115.047 57.524 114.98 57.649 114.932C57.8334 114.878 58.0313 114.897 58.2021 114.985C58.338 115.047 58.4512 115.149 58.5262 115.279C58.6011 115.408 58.6341 115.557 58.6206 115.706C58.6054 115.888 58.5331 116.062 58.414 116.201C58.2948 116.34 58.1348 116.437 57.9568 116.48C57.7762 116.509 57.591 116.482 57.426 116.403C57.261 116.324 57.124 116.197 57.0334 116.038C56.9757 115.933 56.9408 115.817 56.9311 115.698C56.9214 115.579 56.9371 115.459 56.9771 115.346C57.0171 115.234 57.0805 115.131 57.1631 115.044C57.2458 114.958 57.3458 114.89 57.4566 114.845C57.5817 114.797 57.6538 114.807 57.6586 114.845C57.6634 114.884 57.3749 114.946 57.2017 115.326C57.1508 115.425 57.1267 115.536 57.1317 115.647C57.1368 115.759 57.1709 115.867 57.2306 115.961C57.3015 116.073 57.4032 116.162 57.5235 116.217C57.6438 116.273 57.7776 116.292 57.9087 116.274C58.035 116.24 58.1482 116.169 58.234 116.071C58.3197 115.972 58.3739 115.85 58.3897 115.72C58.4022 115.613 58.3828 115.504 58.3341 115.408C58.2854 115.311 58.2094 115.231 58.1155 115.177C57.9266 115.063 57.7042 115.017 57.4855 115.047Z" fill="#455A64"/>
    <path d="M63.2187 115.932C63.1514 115.932 63.06 115.557 63.0119 115.086C62.9638 114.614 62.9782 114.22 63.0455 114.21C63.1129 114.201 63.2043 114.585 63.2572 115.057C63.3101 115.528 63.2908 115.923 63.2187 115.932Z" fill="#455A64"/>
    <path d="M64.0893 115.846C64.0171 115.846 63.9642 115.442 63.9594 114.942C63.9546 114.442 64.0123 114.038 64.0797 114.038C64.147 114.038 64.2047 114.442 64.2047 114.942C64.2047 115.442 64.1566 115.846 64.0893 115.846Z" fill="#455A64"/>
    <path d="M49.025 116.441C48.7869 115.782 48.7094 115.077 48.7989 114.382C49.0369 115.041 49.1144 115.746 49.025 116.441Z" fill="#455A64"/>
    <path d="M50.0543 116.537C49.8348 116.226 49.7279 115.849 49.7513 115.469C49.6951 115.093 49.7716 114.708 49.9677 114.382C50.0145 114.739 50.0242 115.1 49.9966 115.46C50.0548 115.816 50.0741 116.177 50.0543 116.537Z" fill="#455A64"/>
    <path d="M36.8855 134.264C36.8855 134.264 36.5584 129.027 32.2634 129.57C27.9683 130.114 27.8529 133.976 27.8529 133.976L26.006 133.649C26.006 133.649 26.689 128.175 32.7395 128.329C38.7901 128.483 38.6698 134.635 38.6698 134.635L36.8855 134.264Z" fill="#455A64"/>
    <g opacity="0.3">
        <path d="M36.8855 134.264C36.8855 134.264 36.5584 129.027 32.2634 129.57C27.9683 130.114 27.8529 133.976 27.8529 133.976L26.006 133.649C26.006 133.649 26.689 128.175 32.7395 128.329C38.7901 128.483 38.6698 134.635 38.6698 134.635L36.8855 134.264Z" fill="black"/>
    </g>
    <path d="M16.7039 132.716L15.7612 157.447L48.4718 158.048L49.0297 133.61L16.7039 132.716Z" fill="#455A64"/>
    <path d="M49.0301 133.61C49.0301 133.61 49.0301 133.648 48.9724 133.711L48.7752 133.985C48.5828 134.245 48.3231 134.591 48.0008 135.033C47.3178 135.938 46.3463 137.255 45.0765 138.838C43.6209 140.721 41.9664 142.441 40.1418 143.97C39.0526 144.856 37.8589 145.605 36.5875 146.201C35.2 146.855 33.6988 147.232 32.1674 147.312C30.6417 147.359 29.124 147.075 27.7184 146.48C26.4148 145.93 25.2019 145.186 24.1208 144.273C22.3175 142.706 20.8021 140.835 19.643 138.746C18.8502 137.355 18.1278 135.925 17.4786 134.461L16.9544 133.268L16.8245 132.956C16.7957 132.883 16.786 132.845 16.7909 132.845C16.8124 132.877 16.8317 132.911 16.8486 132.946L17.0025 133.249L17.57 134.423C18.051 135.437 18.7676 136.919 19.7969 138.655C20.9669 140.709 22.4798 142.547 24.2699 144.09C25.3371 144.983 26.5319 145.71 27.8146 146.25C29.1834 146.824 30.6593 147.1 32.1433 147.058C33.6323 146.984 35.0928 146.621 36.4432 145.99C37.7081 145.41 38.8969 144.676 39.9831 143.806C41.8002 142.295 43.4541 140.597 44.9178 138.742C46.2068 137.178 47.2024 135.88 47.9046 134.99L48.7174 133.975L48.9387 133.711C48.9658 133.674 48.9964 133.64 49.0301 133.61Z" fill="#263238"/>
    <path d="M43.994 157.963C43.9219 157.963 44.9175 152.624 46.2113 146.068C47.5051 139.513 48.6161 134.208 48.6787 134.222C48.7412 134.237 47.7552 139.561 46.4614 146.117C45.1676 152.672 44.0614 157.977 43.994 157.963Z" fill="#263238"/>
    <path d="M48.8903 133.792C48.8986 133.873 48.8986 133.955 48.8903 134.037C48.8903 134.229 48.8903 134.465 48.8903 134.749C48.8662 135.365 48.8085 136.249 48.7315 137.351C48.5728 139.544 48.2939 142.574 47.9524 145.912C47.6109 149.25 47.3223 152.242 47.1011 154.469C47.0001 155.536 46.9183 156.392 46.8606 157.061L46.7884 157.768C46.7856 157.851 46.771 157.934 46.7451 158.013C46.7316 157.93 46.7316 157.846 46.7451 157.763C46.7451 157.571 46.7451 157.34 46.7451 157.056C46.7451 156.44 46.8269 155.551 46.9039 154.454C47.0626 152.256 47.3415 149.231 47.683 145.888C48.0245 142.545 48.3131 139.559 48.5343 137.336C48.6353 136.269 48.7171 135.413 48.7748 134.739C48.8085 134.46 48.8325 134.225 48.8518 134.037C48.8523 133.954 48.8653 133.871 48.8903 133.792Z" fill="#263238"/>
    <path d="M31.7556 146.385L30.7794 146.401L30.8105 148.219L31.7867 148.203L31.7556 146.385Z" fill="#263238"/>
    <path d="M49.0299 133.638C48.9211 133.65 48.8115 133.65 48.7028 133.638H47.7409L44.2827 133.59L32.8886 133.325L21.4945 132.984L18.0411 132.849L17.0792 132.801C16.9709 132.802 16.8628 132.79 16.757 132.768C16.8657 132.756 16.9753 132.756 17.084 132.768H18.0459L21.4993 132.82L32.8982 133.085L44.2923 133.426L47.7457 133.561L48.7076 133.609C48.8157 133.607 48.9238 133.617 49.0299 133.638Z" fill="#263238"/>
    <path d="M31.1042 119.891C31.1042 119.891 28.9591 125.831 28.8917 126.774C28.8244 127.716 27.8721 129.222 28.9543 129.573C28.9543 129.573 28.7715 130.304 29.9162 130.568C29.9162 130.568 29.9162 131.814 31.4264 131.679C31.4264 131.679 32.4605 132.694 33.3118 132.16C33.3118 132.16 34.6297 132.814 35.1684 131.853C35.5855 131.05 35.9486 130.221 36.2554 129.371L37.1115 130.044C37.4181 129.356 37.507 128.591 37.3664 127.851C37.1163 126.697 35.6541 125.234 35.9812 123.792C36.0656 123.271 36.2126 122.762 36.4189 122.276L31.1042 119.891Z" fill="#FFBE9D"/>
    <g opacity="0.3">
        <path d="M42.4023 141.748C41.1884 144.605 39.2666 147.106 36.8183 149.015C35.0916 150.41 32.9417 151.521 30.734 151.29C28.8102 151.088 27.1172 149.895 25.7127 148.553C22.8671 145.843 20.7895 142.428 19.691 138.655C19.691 138.655 24.9817 147.389 31.2775 147.269C36.9529 147.134 42.4023 141.748 42.4023 141.748Z" fill="black"/>
    </g>
    <path d="M64.6471 64.1154C64.6471 64.1154 73.2613 65.8949 74.3242 67.1984C75.1755 68.2372 79.6966 78.7752 79.6966 78.7752L83.3423 85.2394C84.1093 85.8615 84.6722 86.6991 84.9584 87.6443C85.4128 89.7636 85.6321 91.9266 85.6125 94.094C85.6125 94.094 84.9632 98.3458 82.3034 98.5237C81.0506 98.5744 79.8002 98.3761 78.6245 97.9401C77.4489 97.5042 76.3714 96.8394 75.4545 95.9842C73.9009 94.5942 70.1013 85.1721 70.236 84.6911L64.6471 64.1154Z" fill="#EB6440"/>
    <path d="M48.8667 62.2078L49.2419 61.7749L53.1666 66.219L56.3169 69.6676L60.2656 61.318L61.4103 62.1597C61.4103 62.1597 65.6621 94.3412 65.5899 94.7163C65.5178 95.0915 67.2348 112.656 67.2348 112.656C67.2348 112.656 58.1879 114.455 55.5666 113.618C52.9453 112.781 47.116 114.099 47.1545 113.83C47.193 113.561 44.6534 102.806 44.6534 102.806L45.3989 73.3133L48.8667 62.2078Z" fill="#FAFAFA"/>
    <path d="M65.7001 108.693C65.4781 108.663 65.2593 108.613 65.046 108.544C64.6324 108.434 64.036 108.256 63.3049 108.006C61.4052 107.36 59.5564 106.574 57.7738 105.654C55.9916 104.732 54.2796 103.681 52.6515 102.508C52.0262 102.056 51.5308 101.676 51.2086 101.402C51.0342 101.269 50.8732 101.119 50.7276 100.955C50.9232 101.063 51.1097 101.187 51.2855 101.325C51.6318 101.575 52.1416 101.936 52.7717 102.369C54.4241 103.49 56.1409 104.513 57.9132 105.433C59.6885 106.345 61.518 107.148 63.3915 107.837C64.1081 108.102 64.6949 108.318 65.0989 108.448C65.3062 108.512 65.5074 108.594 65.7001 108.693Z" fill="#263238"/>
    <path d="M56.3069 69.6671C56.3195 69.7886 56.3195 69.9111 56.3069 70.0327C56.3069 70.2924 56.3069 70.6435 56.3069 71.0764C56.3069 72.0142 56.3069 73.3225 56.278 74.9241C56.278 78.1754 56.254 82.6677 56.3165 87.6264C56.379 92.5852 56.4993 97.0822 56.5955 100.329C56.6436 101.935 56.682 103.243 56.7109 104.177C56.7109 104.609 56.7109 104.96 56.7109 105.22C56.7246 105.342 56.7246 105.464 56.7109 105.586C56.6881 105.467 56.6752 105.346 56.6724 105.225C56.6724 104.96 56.6291 104.614 56.6051 104.177C56.5474 103.272 56.4849 101.954 56.4127 100.329C56.2732 97.0774 56.1241 92.5852 56.0568 87.6216C55.9895 82.658 56.0279 78.1658 56.0953 74.9145C56.1289 73.2888 56.1626 71.9709 56.2011 71.0667C56.2011 70.6291 56.2347 70.2828 56.2444 70.0182C56.2545 69.8995 56.2754 69.782 56.3069 69.6671Z" fill="#263238"/>
    <path d="M58.3128 112.465C58.1571 111.35 58.0815 110.225 58.0867 109.099C58.0058 107.978 58.0058 106.853 58.0867 105.732C58.2424 106.847 58.318 107.972 58.3128 109.099C58.3937 110.219 58.3937 111.345 58.3128 112.465Z" fill="#263238"/>
    <path d="M48.6355 62.6091L45.7256 65.7931C45.7256 65.7931 42.0558 66.6877 37.9099 68.0681C37.0769 68.4131 36.3329 68.9424 35.7339 69.6164C35.1349 70.2903 34.6965 71.0913 34.4518 71.9591C34.1391 73.0124 39.425 98.5326 39.425 98.5326L38.5111 105.882L35.6927 127.078C35.6927 127.078 40.5793 128.819 43.7152 128.944C45.4803 129.016 45.7737 122.105 46.5192 117.314C47.2359 112.687 49.0924 97.8736 49.0924 93.7469C49.0924 89.6202 48.2315 69.7323 48.2315 69.3042C48.2315 68.8761 48.6355 62.6091 48.6355 62.6091Z" fill="#EB6440"/>
    <path d="M48.5248 99.8822C48.4755 99.7591 48.4369 99.632 48.4094 99.5023C48.3373 99.2281 48.2459 98.8674 48.1256 98.4105C47.8852 97.4485 47.5437 96.0585 47.13 94.3751C46.3076 90.941 45.2062 86.2372 43.9364 81.0427C43.5901 79.5662 43.2486 78.1329 42.9264 76.7573V76.7188V76.6852L45.3312 70.7404L45.4226 70.8799H43.0611H42.9023L42.9841 70.7452C43.946 69.1051 44.7396 67.7729 45.3024 66.8253L45.9421 65.7672C46.0112 65.64 46.0917 65.5193 46.1825 65.4065C46.1248 65.5403 46.059 65.6704 45.9853 65.7961L45.3841 66.8783C44.8455 67.8402 44.0807 69.1821 43.1428 70.8366L43.0611 70.7019H45.4226H45.5765L45.5188 70.8462C44.8214 72.6258 44.0278 74.6363 43.1765 76.8054V76.7333C43.5036 78.104 43.8402 79.5373 44.1913 81.0139L47.3128 94.3607C47.6976 96.0537 48.0102 97.4341 48.2315 98.4153C48.3325 98.8962 48.4142 99.2473 48.4719 99.5215C48.4978 99.6404 48.5155 99.7609 48.5248 99.8822Z" fill="#263238"/>
    <path d="M61.3908 62.0066L63.2569 63.7044L73.9584 66.7345L74.1027 83.8281L72.5059 100.965L75.7813 126.548C72.0682 128.592 66.5275 128.154 66.5275 128.154L63.9832 113.206C63.584 110.416 62.194 91.6149 62.194 91.6149L61.3908 62.0066Z" fill="#EB6440"/>
    <path d="M65.2386 96.7178C65.2392 96.5902 65.2521 96.4629 65.277 96.3378C65.3203 96.0733 65.3732 95.7125 65.4406 95.2652C65.5897 94.3033 65.7965 92.971 66.0514 91.3261C66.5324 87.9978 67.2009 83.3902 67.7733 78.2871C68.057 75.7332 68.2975 73.2995 68.4995 71.0726C68.5957 69.9664 68.6823 68.913 68.7689 67.9223C68.8074 67.4413 68.8843 66.9315 68.615 66.614C68.4585 66.4815 68.2708 66.3911 68.0696 66.3515C67.8684 66.312 67.6604 66.3245 67.4655 66.388C67.0703 66.4838 66.6648 66.5307 66.2582 66.5275C65.8899 66.4975 65.5346 66.3769 65.2241 66.1763C64.7447 65.8457 64.3333 65.4261 64.0121 64.9403C63.7428 64.5507 63.5311 64.238 63.435 64.0216C63.364 63.9159 63.3044 63.8031 63.257 63.6849C63.3364 63.7839 63.4088 63.8884 63.4734 63.9976C63.6129 64.1996 63.8101 64.5074 64.0891 64.8825C64.4149 65.3455 64.8243 65.7435 65.2963 66.0561C65.5869 66.2367 65.917 66.344 66.2582 66.3687C66.6527 66.3663 67.0453 66.3146 67.427 66.2148C67.6469 66.1709 67.8717 66.1564 68.0955 66.1715C68.3467 66.1877 68.5815 66.3017 68.7496 66.489C68.9121 66.6903 68.9989 66.9421 68.9949 67.2008C68.9997 67.4481 68.9901 67.6954 68.9661 67.9415C68.8843 68.9275 68.8025 69.9856 68.716 71.0918C68.5284 73.3139 68.2927 75.7524 68.0089 78.3063C67.4366 83.4142 66.7584 88.0219 66.2149 91.3454C65.936 93.0047 65.7003 94.3466 65.5272 95.2749C65.4406 95.7173 65.3684 96.0733 65.3155 96.3378C65.3022 96.4666 65.2764 96.5939 65.2386 96.7178Z" fill="#263238"/>
    <path d="M72.4816 78.7344C71.9054 78.8712 71.3124 78.923 70.7212 78.8883C70.1313 78.9396 69.537 78.9073 68.9561 78.7922C69.5349 78.6619 70.1288 78.6118 70.7212 78.6431C71.3094 78.5913 71.9019 78.622 72.4816 78.7344Z" fill="#263238"/>
    <g opacity="0.3">
        <path d="M74.3911 87.6672C75.1104 86.7104 76.1502 86.0445 77.3201 85.7914C77.6039 85.7337 77.9791 85.7433 78.0897 86.0078C78.1173 86.1179 78.1135 86.2335 78.0786 86.3415C78.0437 86.4495 77.9793 86.5455 77.8925 86.6187L77.5318 87.0563C76.4092 88.1209 75.7002 89.549 75.5309 91.0868C75.3116 90.3784 75.3194 89.6192 75.5531 88.9154C75.7868 88.2116 76.2348 87.5986 76.8344 87.1621C75.6897 87.393 74.8191 88.2924 74.0255 89.1485C73.9562 88.8909 73.9534 88.6198 74.0173 88.3607C74.0812 88.1016 74.2098 87.863 74.3911 87.6672Z" fill="black"/>
    </g>
    <path d="M73.5832 89.5733C73.5832 89.5733 73.7179 89.3617 73.9632 89.0491C74.2789 88.6365 74.6513 88.2706 75.0694 87.9621C75.489 87.6557 75.9486 87.4081 76.4353 87.2262C76.8105 87.0916 77.051 87.0387 77.051 87.0194C77.051 87.0002 76.9836 87.0194 76.873 87.0194C76.7106 87.0485 76.55 87.087 76.3921 87.1348C75.3786 87.4649 74.4983 88.1125 73.8814 88.9818C73.7902 89.1131 73.7067 89.2496 73.6313 89.3906C73.6217 89.5108 73.5736 89.5685 73.5832 89.5733Z" fill="#263238"/>
    <path d="M75.6753 92.1251C75.6753 92.1251 75.6753 91.7884 75.6753 91.2497C75.6941 90.9363 75.7343 90.6246 75.7956 90.3167C75.878 89.939 75.9873 89.5677 76.1226 89.2056C76.2696 88.8484 76.4432 88.5027 76.6421 88.1715C76.8078 87.9033 76.9909 87.6462 77.1904 87.402C77.5319 86.9884 77.7868 86.7719 77.7772 86.7527C77.7092 86.7951 77.6463 86.8451 77.5896 86.9018C77.5319 86.9499 77.4597 87.0124 77.3828 87.0894C77.3058 87.1663 77.2192 87.2481 77.1327 87.3539C76.9208 87.5935 76.7278 87.8492 76.5555 88.1186C76.3505 88.4529 76.1736 88.8036 76.0264 89.1671C75.8844 89.5335 75.7749 89.9118 75.6994 90.2974C75.6407 90.6149 75.6069 90.9366 75.5984 91.2594C75.5909 91.3811 75.5909 91.5032 75.5984 91.6249C75.5924 91.7178 75.5924 91.811 75.5984 91.9038C75.6149 91.9805 75.6408 92.0548 75.6753 92.1251Z" fill="#263238"/>
    <path d="M73.949 73.6694C73.9625 73.7571 73.9625 73.8463 73.949 73.934C73.949 74.1408 73.949 74.3909 73.949 74.6987C73.9201 75.4009 73.8817 76.3532 73.8336 77.5124C73.7085 79.9172 73.5402 83.1781 73.3526 86.7854C73.165 90.3927 72.939 93.6488 72.7947 96.0536C72.7129 97.208 72.6504 98.1603 72.5975 98.8577C72.5975 99.1655 72.5494 99.4204 72.535 99.6224C72.5325 99.7121 72.5179 99.8011 72.4917 99.8869C72.4848 99.7973 72.4848 99.7073 72.4917 99.6176C72.4917 99.4156 72.4917 99.1366 72.4917 98.8529C72.5205 98.1507 72.5638 97.1983 72.6119 96.0392C72.737 93.6344 72.9053 90.3734 73.0929 86.7662C73.2805 83.1589 73.5017 79.9076 73.646 77.5027C73.7278 76.3436 73.7951 75.3961 73.8432 74.6939C73.872 74.3861 73.8913 74.136 73.9105 73.934C73.9134 73.8446 73.9263 73.7559 73.949 73.6694Z" fill="#263238"/>
    <path d="M37.2508 68.6772C37.2508 68.6772 34.8172 69.5767 34.1534 73.2849C33.4897 76.9932 29.3438 122.372 29.3438 122.372L36.3562 122.776L39.8048 98.0788L37.2508 68.6772Z" fill="#EB6440"/>
    <path d="M39.8048 98.6307C39.8769 98.6307 39.1074 104.402 38.0877 111.516C37.0681 118.629 36.1639 124.372 36.1206 124.358C36.0773 124.343 36.8228 118.586 37.8376 111.477C38.8525 104.369 39.7374 98.6211 39.8048 98.6307Z" fill="#263238"/>
    <path d="M37.9002 76.9833C37.9723 76.9833 38.4533 81.7929 38.9776 87.781C39.5018 93.769 39.877 98.5979 39.8048 98.6076C39.7327 98.6172 39.2565 93.7979 38.7275 87.805C38.1984 81.8122 37.8329 76.9881 37.9002 76.9833Z" fill="#263238"/>
    <path d="M56.3071 69.9086C56.1209 69.7844 55.9469 69.6427 55.7876 69.4854L54.4361 68.2637L54.5852 68.2253C54.1524 69.4613 53.5511 71.1111 52.8826 72.9243L52.8057 73.1359L52.6662 72.9628L52.57 72.8377C51.4371 71.4279 50.4689 69.8933 49.6842 68.2637C49.3812 67.6385 49.1647 67.119 49.0301 66.7583C48.9479 66.5733 48.8866 66.3797 48.8473 66.1812C48.955 66.3519 49.0467 66.5323 49.1214 66.7198C49.285 67.0709 49.5206 67.5711 49.8429 68.1627C50.6708 69.7559 51.6535 71.2638 52.7768 72.6646L52.873 72.7848L52.6566 72.8185C53.3299 71.0053 53.9504 69.3652 54.4217 68.1435L54.4746 68.0136L54.5708 68.1098L55.8646 69.3892C56.0312 69.5451 56.1797 69.7194 56.3071 69.9086Z" fill="#263238"/>
    <path d="M61.4678 64.9761C61.4911 65.1645 61.4911 65.3552 61.4678 65.5436C61.4293 65.9573 61.3812 66.4719 61.3235 67.0779C61.1888 68.3765 60.982 70.1657 60.7463 72.1425V72.2964L60.703 72.6186L60.5155 72.3493C59.39 70.7333 58.3896 69.2663 57.6826 68.213H57.8172L56.7639 69.2663C56.6409 69.4022 56.5038 69.5247 56.3551 69.6318C56.4504 69.4753 56.5651 69.3315 56.6966 69.2038L57.6922 68.0927L57.7643 68.0158L57.8269 68.1024C58.5724 69.1316 59.5968 70.5793 60.7127 72.2002L60.4866 72.2531V72.104C60.7271 70.1272 60.9676 68.3428 61.1359 67.049C61.2273 66.443 61.2994 65.9332 61.362 65.5196C61.3772 65.3351 61.4127 65.1528 61.4678 64.9761Z" fill="#263238"/>
    <path d="M35.029 118.93C35.029 118.93 35.1204 118.901 35.2791 118.93C35.5061 118.997 35.6988 119.149 35.8178 119.353C35.9001 119.492 35.9555 119.646 35.9813 119.805C36.0109 119.999 35.9807 120.197 35.8948 120.373C35.7982 120.573 35.6473 120.742 35.4593 120.86C35.2713 120.978 35.0539 121.041 34.8318 121.041C34.6105 121.008 34.4053 120.906 34.2448 120.75C34.0844 120.594 33.9768 120.391 33.9372 120.171C33.9005 119.999 33.9078 119.821 33.9582 119.653C34.0086 119.485 34.1007 119.332 34.2258 119.209C34.3862 119.039 34.6003 118.931 34.8318 118.901C34.9953 118.901 35.0819 118.901 35.0771 118.935C34.7999 118.984 34.5464 119.122 34.3557 119.329C34.2605 119.438 34.193 119.569 34.1586 119.709C34.1243 119.85 34.1243 119.997 34.1585 120.137C34.1957 120.305 34.2818 120.458 34.4059 120.577C34.53 120.696 34.6866 120.776 34.8559 120.806C35.0289 120.801 35.1975 120.75 35.344 120.658C35.4904 120.566 35.6092 120.436 35.6879 120.281C35.7538 120.154 35.7881 120.012 35.7881 119.868C35.7881 119.724 35.7538 119.582 35.6879 119.454C35.4186 118.978 35.0098 118.968 35.029 118.93Z" fill="#263238"/>
    <path d="M73.4437 109.992C73.4437 109.992 67.0227 110.473 67.3017 110.372L69.1486 113.855L75.1319 113.431L73.4437 109.992Z" fill="#EB6440"/>
    <path d="M73.4438 109.992C73.4959 110.062 73.541 110.136 73.5784 110.214L73.9343 110.882C74.2614 111.517 74.6991 112.364 75.2233 113.388L75.2859 113.518H75.1416L69.1583 113.97H69.0766L69.0381 113.898L68.9708 113.773C68.3455 112.58 67.7443 111.45 67.196 110.406L67.3355 110.464C67.3355 110.464 67.3836 110.464 67.3691 110.339C67.3547 110.214 67.2922 110.276 67.3018 110.271H67.5808H67.9078L68.5475 110.238L69.7307 110.175L71.6834 110.069L72.9532 110.012C73.1053 110 73.258 110 73.4101 110.012C73.2627 110.053 73.111 110.077 72.958 110.084L71.693 110.204L69.7451 110.363L68.5571 110.449L67.9174 110.493H67.5904H67.4172H67.22C67.22 110.493 67.22 110.517 67.1479 110.416C67.0758 110.315 67.196 110.291 67.1816 110.291H67.2152L67.3066 110.262L67.3547 110.348L69.1439 113.715L69.2112 113.845L69.091 113.778L75.079 113.378L74.9973 113.523L73.8189 111.017L73.4967 110.31C73.4664 110.207 73.4486 110.1 73.4438 109.992Z" fill="#263238"/>
    <path d="M43.9891 110.815L38.1694 109.992L36.9381 113.855L42.8829 114.716L43.9891 110.815Z" fill="#EB6440"/>
    <path d="M43.9892 110.811C43.9822 110.899 43.9644 110.986 43.9363 111.07L43.7439 111.849C43.5708 112.528 43.3159 113.523 42.9792 114.735V114.817H42.8878L37.0056 113.99H36.9382H36.7939L36.8372 113.845C37.2797 112.47 37.703 111.166 38.0829 109.998L38.1118 109.906H38.2032C39.9491 110.161 41.416 110.387 42.4357 110.56L43.6141 110.758C43.7479 110.772 43.8799 110.799 44.0085 110.839C44.0085 110.839 43.8401 110.839 43.5275 110.801L42.3154 110.661C41.2862 110.536 39.8433 110.363 38.1503 110.132L38.2753 110.055C37.9002 111.229 37.4865 112.537 37.0537 113.903L36.9527 113.74H37.02L42.8974 114.601L42.7868 114.673C43.1283 113.514 43.4265 112.556 43.6381 111.878C43.7343 111.566 43.8161 111.306 43.8882 111.09C43.9144 110.994 43.9482 110.901 43.9892 110.811Z" fill="#263238"/>
    <path d="M84.4869 71.8005C84.5957 71.858 84.6915 71.9372 84.7684 72.0331C84.8453 72.1291 84.9018 72.2398 84.9342 72.3585C84.9764 72.543 84.9543 72.7364 84.8717 72.9068L82.2216 78.8082L80.4949 82.2808L75.3966 81.0495L78.6913 72.825C78.6913 72.825 78.9606 71.6899 79.9995 71.6899H84.0492C84.2023 71.6877 84.3533 71.7258 84.4869 71.8005Z" fill="#455A64"/>
    <path d="M83.3323 58.0203H83.996C84.0446 58.0193 84.092 58.0054 84.1334 57.9801C84.1748 57.9547 84.2087 57.9188 84.2317 57.876C84.2534 57.8356 84.2642 57.7901 84.263 57.7442C84.2619 57.6982 84.2487 57.6534 84.2249 57.6141C84.2012 57.5747 84.1675 57.5423 84.1274 57.5199C84.0873 57.4975 84.042 57.486 83.996 57.4865H83.3323C83.2817 57.4864 83.2321 57.5009 83.1895 57.5282C83.1469 57.5555 83.113 57.5944 83.0918 57.6404C83.0735 57.681 83.0656 57.7255 83.0687 57.77C83.0718 57.8145 83.0859 57.8574 83.1098 57.8951C83.1336 57.9327 83.1664 57.9639 83.2052 57.9858C83.2441 58.0076 83.2877 58.0195 83.3323 58.0203Z" fill="white"/>
    <path d="M84.203 88.2821C84.3857 87.8974 83.722 87.3202 83.722 87.3202C83.722 87.3202 82.914 83.4196 83.241 82.7558C83.5681 82.0921 83.4046 81.2744 83.4623 79.8989C83.52 78.5233 84.0202 78.0327 84.0202 78.0327C84.0202 78.0327 84.0635 77.1526 84.1741 76.4407C84.2309 75.9928 84.1138 75.5401 83.847 75.1758L82.231 78.86L81.9665 78.5281C81.2591 77.467 80.3701 76.539 79.3404 75.7866C78.8209 75.5077 78.4265 76.0271 78.2774 76.4311C78.1283 76.8351 78.7247 77.5373 79.0951 77.7922C79.4654 78.0472 80.057 79.6824 80.2735 80.2788C80.4899 80.8752 80.2735 81.0051 79.8983 81.2408C79.5231 81.4765 78.0947 80.2788 77.4021 79.9951C76.7845 79.6496 76.2247 79.2098 75.7427 78.6916C75.6119 78.5917 75.4559 78.5299 75.2921 78.5129C75.1284 78.496 74.9631 78.5245 74.8145 78.5955C74.271 78.8408 74.5163 79.8989 74.5163 79.8989C73.6553 80.553 74.1026 81.8228 74.1026 81.8228C74.1026 81.8228 73.2417 81.8901 73.184 82.1787C73.1263 82.4672 73.4197 84.016 73.9006 84.3911C74.3816 84.7663 76.4401 86.2092 76.4401 86.2092C76.8997 86.9074 77.5418 87.4663 78.2967 87.8252L78.7007 89.8501C79.5832 90.1085 80.5212 90.1085 81.4037 89.8501C82.4495 89.5606 83.4098 89.0227 84.203 88.2821Z" fill="#FFBE9D"/>
    <path d="M74.5211 79.7377C74.5211 79.7377 74.5211 79.7377 74.5211 79.7906C74.5147 79.8401 74.5147 79.8902 74.5211 79.9397C74.5518 80.1235 74.6242 80.2979 74.7327 80.4495C74.8918 80.6709 75.085 80.8657 75.305 81.0267C75.5503 81.2094 75.8293 81.3874 76.1323 81.5702C76.6476 81.8738 77.1845 82.139 77.7387 82.3637C77.9504 82.4455 78.1283 82.508 78.2486 82.5465L78.4409 82.5994C78.4409 82.5994 78.1812 82.484 77.7676 82.2964C77.2227 82.0556 76.6927 81.7826 76.1804 81.4788C75.653 81.213 75.1812 80.849 74.7904 80.4062C74.6422 80.2116 74.5491 79.9807 74.5211 79.7377Z" fill="#EB996E"/>
    <path d="M74.1363 81.8039C74.235 81.9649 74.3547 82.1121 74.4922 82.2416C74.8093 82.5706 75.1627 82.8626 75.5455 83.1121C75.9291 83.3616 76.3408 83.565 76.772 83.7181C76.9473 83.7918 77.1317 83.842 77.3203 83.8672C77.3203 83.8672 77.1183 83.7855 76.8008 83.6508C76.3826 83.4809 75.9816 83.2716 75.6032 83.0255C75.2259 82.781 74.8717 82.5024 74.5451 82.1935C74.2902 81.953 74.1459 81.7943 74.1363 81.8039Z" fill="#EB996E"/>
    <path d="M82.4621 66.548C82.5879 66.4483 82.6734 66.3065 82.7026 66.1488C82.7689 65.7755 82.7591 65.3927 82.6738 65.0233C82.6174 64.6529 82.5371 64.2866 82.4333 63.9267C82.3995 63.7746 82.3462 63.6274 82.2746 63.489C82.2915 63.6437 82.3221 63.7966 82.3659 63.9459C82.4285 64.2249 82.5102 64.6097 82.5776 65.0377C82.6569 65.3977 82.6748 65.7684 82.6305 66.1343C82.5939 66.2794 82.5372 66.4186 82.4621 66.548Z" fill="#EB996E"/>
    <path d="M80.4225 68.2697C80.4225 68.2697 80.4851 68.2697 80.5861 68.2697C80.7156 68.2265 80.825 68.1376 80.8939 68.0196C80.9615 67.9017 80.9853 67.7638 80.9612 67.63C80.9612 67.529 80.8987 67.4761 80.8843 67.4857C80.9036 67.6501 80.877 67.8166 80.8073 67.9667C80.663 68.2024 80.4129 68.2408 80.4225 68.2697Z" fill="#EB996E"/>
    <path d="M78.7155 85.1035C78.7155 85.1035 78.7924 85.142 78.9223 85.1035C79.0918 85.0793 79.248 84.9978 79.3648 84.8726C79.4816 84.7479 79.5513 84.5863 79.562 84.4157C79.562 84.2859 79.562 84.2089 79.5283 84.2137C79.4947 84.2185 79.5283 84.2907 79.4947 84.4061C79.4622 84.5541 79.3927 84.6915 79.2926 84.8053C79.1854 84.9129 79.0532 84.9922 78.9079 85.0362C78.8415 85.0517 78.777 85.0743 78.7155 85.1035Z" fill="#EB996E"/>
    <path d="M77.234 86.0162C77.234 86.0162 77.2966 86.045 77.3976 86.0162C77.5278 85.9747 77.642 85.8941 77.7246 85.7853C77.8082 85.6762 77.8538 85.5428 77.8545 85.4053C77.8545 85.2995 77.8208 85.2418 77.8112 85.2466C77.7928 85.4177 77.7352 85.5823 77.6429 85.7276C77.5309 85.8543 77.3909 85.9531 77.234 86.0162Z" fill="#EB996E"/>
    <path d="M78.3063 87.8744C78.4134 87.9459 78.5322 87.998 78.6574 88.0283C78.9516 88.1255 79.2521 88.2026 79.5568 88.2591C79.8605 88.3126 80.1674 88.3463 80.4755 88.3601C80.603 88.38 80.7327 88.38 80.8602 88.3601C80.8602 88.3313 80.2783 88.3072 79.5761 88.1774C78.8738 88.0475 78.3159 87.8455 78.3063 87.8744Z" fill="#EB996E"/>
    <path d="M76.7192 79.5955L76.7721 79.4753L76.9067 79.1194L77.3877 77.8015C77.7965 76.6761 78.3496 75.137 78.9557 73.444C79.0715 73.0271 79.3196 72.6591 79.6627 72.3955C80.0258 72.2204 80.4302 72.1489 80.8314 72.1886L82.914 72.2127H84.3184H84.684C84.7286 72.2197 84.774 72.2197 84.8186 72.2127H84.684H84.304L82.8996 72.1742L80.817 72.1309C80.6152 72.1167 80.4127 72.1167 80.211 72.1309C79.9948 72.1514 79.786 72.2205 79.6001 72.3329C79.2345 72.6032 78.9689 72.9872 78.845 73.4247C78.239 75.1322 77.6955 76.6761 77.3059 77.7967L76.8538 79.1242C76.8009 79.2733 76.7624 79.3935 76.7336 79.4849C76.7237 79.521 76.7189 79.5582 76.7192 79.5955Z" fill="#263238"/>
</svg>
