<svg width="390" height="721" viewBox="0 0 390 721" fill="none" xmlns="http://www.w3.org/2000/svg">
    <g opacity="0.5">
        <path d="M344.47 76.8874H282.071C282.071 76.8874 288.26 59.9827 297.78 59.9827C307.3 59.9827 310.282 71.6461 310.282 71.6461C310.282 71.6461 316.704 65.3114 321.982 65.3114C327.259 65.3114 331.852 73.6872 331.852 73.6872C331.852 73.6872 339.309 69.1822 344.47 76.8874Z" fill="#EBEBEB"/>
        <path d="M331.815 39.0906H302.656C302.656 39.0906 309.173 29.614 314.32 29.614C319.466 29.614 320.975 35.9123 320.975 35.9123C320.975 35.9123 324.62 32.9964 327.952 33.4994C331.283 34.0024 331.815 39.0906 331.815 39.0906Z" fill="#EBEBEB"/>
        <path d="M102.818 53.1814H46.0166C46.0166 53.1814 53.8238 35.8174 62.1195 34.7313C70.4151 33.6451 74.4171 47.634 74.4171 47.634C74.4171 47.634 79.7823 42.6916 84.0031 42.6916C88.2238 42.6916 91.4823 49.2013 91.4823 49.2013C91.4823 49.2013 99.9237 44.74 102.818 53.1814Z" fill="#EBEBEB"/>
        <path d="M144.165 17.2579H105.792C105.792 17.2579 112.353 4.67591 119.533 4.48638C126.713 4.29685 130.468 14.014 130.468 14.014C130.468 14.014 141.57 5.08413 144.165 17.2579Z" fill="#EBEBEB"/>
        <path d="M163.73 63.2265H137.83C137.83 63.2265 142.284 54.7341 147.11 54.6101C151.935 54.4862 154.472 61.0396 154.472 61.0396C154.472 61.0396 161.98 55.0111 163.73 63.2265Z" fill="#EBEBEB"/>
        <path d="M279.898 74.9775H256.739V196.365H279.898V74.9775Z" fill="#DBDBDB"/>
        <path d="M264.838 78.9211H260.333V83.5574H264.838V78.9211Z" fill="#EBEBEB"/>
        <path d="M270.597 78.9211H266.092V83.5574H270.597V78.9211Z" fill="#EBEBEB"/>
        <path d="M264.838 86.7939H260.333V91.4302H264.838V86.7939Z" fill="#EBEBEB"/>
        <path d="M270.597 86.7939H266.092V91.4302H270.597V86.7939Z" fill="#EBEBEB"/>
        <path d="M264.838 94.6597H260.333V99.2959H264.838V94.6597Z" fill="#EBEBEB"/>
        <path d="M270.597 94.6597H266.092V99.2959H270.597V94.6597Z" fill="#EBEBEB"/>
        <path d="M264.838 102.532H260.333V107.169H264.838V102.532Z" fill="#EBEBEB"/>
        <path d="M270.597 102.532H266.092V107.169H270.597V102.532Z" fill="#EBEBEB"/>
        <path d="M264.838 110.398H260.333V115.034H264.838V110.398Z" fill="#EBEBEB"/>
        <path d="M270.597 110.398H266.092V115.034H270.597V110.398Z" fill="#EBEBEB"/>
        <path d="M264.838 118.271H260.333V122.907H264.838V118.271Z" fill="#EBEBEB"/>
        <path d="M270.597 118.271H266.092V122.907H270.597V118.271Z" fill="#EBEBEB"/>
        <path d="M264.838 126.136H260.333V130.773H264.838V126.136Z" fill="#EBEBEB"/>
        <path d="M270.597 126.136H266.092V130.773H270.597V126.136Z" fill="#EBEBEB"/>
        <path d="M264.838 134.009H260.333V138.645H264.838V134.009Z" fill="#EBEBEB"/>
        <path d="M270.597 134.009H266.092V138.645H270.597V134.009Z" fill="#EBEBEB"/>
        <path d="M264.838 141.875H260.333V146.511H264.838V141.875Z" fill="#EBEBEB"/>
        <path d="M270.597 141.875H266.092V146.511H270.597V141.875Z" fill="#EBEBEB"/>
        <path d="M264.838 149.748H260.333V154.384H264.838V149.748Z" fill="#EBEBEB"/>
        <path d="M270.597 149.748H266.092V154.384H270.597V149.748Z" fill="#EBEBEB"/>
        <path d="M264.838 157.613H260.333V162.249H264.838V157.613Z" fill="#EBEBEB"/>
        <path d="M270.597 157.613H266.092V162.249H270.597V157.613Z" fill="#EBEBEB"/>
        <path d="M264.838 165.486H260.333V170.122H264.838V165.486Z" fill="#EBEBEB"/>
        <path d="M270.597 165.486H266.092V170.122H270.597V165.486Z" fill="#EBEBEB"/>
        <path d="M264.838 173.352H260.333V177.988H264.838V173.352Z" fill="#EBEBEB"/>
        <path d="M270.597 173.352H266.092V177.988H270.597V173.352Z" fill="#EBEBEB"/>
        <path d="M264.838 181.224H260.333V185.861H264.838V181.224Z" fill="#EBEBEB"/>
        <path d="M271.792 185.861H276.297V181.224H271.792V185.861Z" fill="#EBEBEB"/>
        <path d="M271.792 177.995H276.297V173.359H271.792V177.995Z" fill="#EBEBEB"/>
        <path d="M271.792 170.122H276.297V165.486H271.792V170.122Z" fill="#EBEBEB"/>
        <path d="M271.792 162.257H276.297V157.62H271.792V162.257Z" fill="#EBEBEB"/>
        <path d="M271.792 154.377H276.297V149.74H271.792V154.377Z" fill="#EBEBEB"/>
        <path d="M271.792 146.511H276.297V141.875H271.792V146.511Z" fill="#EBEBEB"/>
        <path d="M271.792 138.638H276.297V134.002H271.792V138.638Z" fill="#EBEBEB"/>
        <path d="M271.792 130.773H276.297V126.136H271.792V130.773Z" fill="#EBEBEB"/>
        <path d="M271.792 122.9H276.297V118.264H271.792V122.9Z" fill="#EBEBEB"/>
        <path d="M271.792 115.034H276.297V110.398H271.792V115.034Z" fill="#EBEBEB"/>
        <path d="M271.792 107.161H276.297V102.525H271.792V107.161Z" fill="#EBEBEB"/>
        <path d="M271.792 99.2959H276.297V94.6597H271.792V99.2959Z" fill="#EBEBEB"/>
        <path d="M271.792 91.4231H276.297V86.7869H271.792V91.4231Z" fill="#EBEBEB"/>
        <path d="M271.792 83.5576H276.297V78.9214H271.792V83.5576Z" fill="#EBEBEB"/>
        <path d="M270.597 181.224H266.092V185.861H270.597V181.224Z" fill="#EBEBEB"/>
        <path d="M298.152 74.9775H279.891V196.365H298.152V74.9775Z" fill="#A6A6A6"/>
        <path d="M292.546 185.861H296.264V181.224H292.546V185.861Z" fill="#C7C7C7"/>
        <path d="M287.8 185.861H291.518V181.224H287.8V185.861Z" fill="#C7C7C7"/>
        <path d="M292.546 177.995H296.264V173.359H292.546V177.995Z" fill="#C7C7C7"/>
        <path d="M287.8 177.995H291.518V173.359H287.8V177.995Z" fill="#C7C7C7"/>
        <path d="M292.546 170.122H296.264V165.486H292.546V170.122Z" fill="#C7C7C7"/>
        <path d="M287.8 170.122H291.518V165.486H287.8V170.122Z" fill="#C7C7C7"/>
        <path d="M292.546 162.257H296.264V157.62H292.546V162.257Z" fill="#C7C7C7"/>
        <path d="M287.8 162.257H291.518V157.62H287.8V162.257Z" fill="#C7C7C7"/>
        <path d="M292.546 154.377H296.264V149.74H292.546V154.377Z" fill="#C7C7C7"/>
        <path d="M287.8 154.377H291.518V149.74H287.8V154.377Z" fill="#C7C7C7"/>
        <path d="M292.546 146.511H296.264V141.875H292.546V146.511Z" fill="#C7C7C7"/>
        <path d="M287.8 146.511H291.518V141.875H287.8V146.511Z" fill="#C7C7C7"/>
        <path d="M292.546 138.638H296.264V134.002H292.546V138.638Z" fill="#C7C7C7"/>
        <path d="M287.8 138.638H291.518V134.002H287.8V138.638Z" fill="#C7C7C7"/>
        <path d="M292.546 130.773H296.264V126.136H292.546V130.773Z" fill="#C7C7C7"/>
        <path d="M287.8 130.773H291.518V126.136H287.8V130.773Z" fill="#C7C7C7"/>
        <path d="M292.546 122.9H296.264V118.264H292.546V122.9Z" fill="#C7C7C7"/>
        <path d="M287.8 122.9H291.518V118.264H287.8V122.9Z" fill="#C7C7C7"/>
        <path d="M292.546 115.034H296.264V110.398H292.546V115.034Z" fill="#C7C7C7"/>
        <path d="M287.8 115.034H291.518V110.398H287.8V115.034Z" fill="#C7C7C7"/>
        <path d="M292.546 107.161H296.264V102.525H292.546V107.161Z" fill="#C7C7C7"/>
        <path d="M287.8 107.161H291.518V102.525H287.8V107.161Z" fill="#C7C7C7"/>
        <path d="M292.546 99.2959H296.264V94.6597H292.546V99.2959Z" fill="#C7C7C7"/>
        <path d="M287.8 99.2959H291.518V94.6597H287.8V99.2959Z" fill="#C7C7C7"/>
        <path d="M292.546 91.4231H296.264V86.7869H292.546V91.4231Z" fill="#C7C7C7"/>
        <path d="M287.8 91.4231H291.518V86.7869H287.8V91.4231Z" fill="#C7C7C7"/>
        <path d="M292.546 83.5576H296.264V78.9214H292.546V83.5576Z" fill="#C7C7C7"/>
        <path d="M286.802 78.9211H283.084V83.5574H286.802V78.9211Z" fill="#C7C7C7"/>
        <path d="M286.802 86.7939H283.084V91.4302H286.802V86.7939Z" fill="#C7C7C7"/>
        <path d="M286.802 94.6597H283.084V99.2959H286.802V94.6597Z" fill="#C7C7C7"/>
        <path d="M286.802 102.532H283.084V107.169H286.802V102.532Z" fill="#C7C7C7"/>
        <path d="M286.802 110.398H283.084V115.034H286.802V110.398Z" fill="#C7C7C7"/>
        <path d="M286.802 118.271H283.084V122.907H286.802V118.271Z" fill="#C7C7C7"/>
        <path d="M286.802 126.136H283.084V130.773H286.802V126.136Z" fill="#C7C7C7"/>
        <path d="M286.802 134.009H283.084V138.645H286.802V134.009Z" fill="#C7C7C7"/>
        <path d="M286.802 141.875H283.084V146.511H286.802V141.875Z" fill="#C7C7C7"/>
        <path d="M286.802 149.748H283.084V154.384H286.802V149.748Z" fill="#C7C7C7"/>
        <path d="M286.802 157.613H283.084V162.249H286.802V157.613Z" fill="#C7C7C7"/>
        <path d="M286.802 165.486H283.084V170.122H286.802V165.486Z" fill="#C7C7C7"/>
        <path d="M286.802 173.352H283.084V177.988H286.802V173.352Z" fill="#C7C7C7"/>
        <path d="M286.802 181.224H283.084V185.861H286.802V181.224Z" fill="#C7C7C7"/>
        <path d="M287.8 83.5576H291.518V78.9214H287.8V83.5576Z" fill="#C7C7C7"/>
        <path d="M115.472 68.4314H88.0779V196.365H115.472V68.4314Z" fill="#EBEBEB"/>
        <path d="M115.473 65.6321H87.422V68.4313H115.473V65.6321Z" fill="#C7C7C7"/>
        <path d="M93.3339 72.5647H90.5565V196.372H93.3339V72.5647Z" fill="white"/>
        <path d="M98.2472 72.5647H95.4698V196.372H98.2472V72.5647Z" fill="white"/>
        <path d="M103.168 72.5647H100.39V196.372H103.168V72.5647Z" fill="white"/>
        <path d="M108.081 72.5647H105.303V196.372H108.081V72.5647Z" fill="white"/>
        <path d="M113.001 72.5647H110.224V196.372H113.001V72.5647Z" fill="white"/>
        <path d="M93.3339 76.1001H90.5565V81.6257H93.3339V76.1001Z" fill="#EBEBEB"/>
        <path d="M98.2472 76.1001H95.4698V81.6257H98.2472V76.1001Z" fill="#EBEBEB"/>
        <path d="M103.168 76.1001H100.39V81.6257H103.168V76.1001Z" fill="#EBEBEB"/>
        <path d="M108.081 76.1001H105.303V81.6257H108.081V76.1001Z" fill="#EBEBEB"/>
        <path d="M113.001 76.1001H110.224V81.6257H113.001V76.1001Z" fill="#EBEBEB"/>
        <path d="M93.3339 85.0881H90.5565V90.621H93.3339V85.0881Z" fill="#EBEBEB"/>
        <path d="M98.2472 85.0881H95.4698V90.621H98.2472V85.0881Z" fill="#EBEBEB"/>
        <path d="M103.168 85.0881H100.39V90.621H103.168V85.0881Z" fill="#EBEBEB"/>
        <path d="M108.081 85.0881H105.303V90.621H108.081V85.0881Z" fill="#EBEBEB"/>
        <path d="M113.001 85.0881H110.224V90.621H113.001V85.0881Z" fill="#EBEBEB"/>
        <path d="M93.3339 94.0764H90.5565V99.602H93.3339V94.0764Z" fill="#EBEBEB"/>
        <path d="M98.2472 94.0764H95.4698V99.602H98.2472V94.0764Z" fill="#EBEBEB"/>
        <path d="M103.168 94.0764H100.39V99.602H103.168V94.0764Z" fill="#EBEBEB"/>
        <path d="M108.081 94.0764H105.303V99.602H108.081V94.0764Z" fill="#EBEBEB"/>
        <path d="M113.001 94.0764H110.224V99.602H113.001V94.0764Z" fill="#EBEBEB"/>
        <path d="M93.3339 103.057H90.5565V108.59H93.3339V103.057Z" fill="#EBEBEB"/>
        <path d="M98.2472 103.057H95.4698V108.59H98.2472V103.057Z" fill="#EBEBEB"/>
        <path d="M103.168 103.057H100.39V108.59H103.168V103.057Z" fill="#EBEBEB"/>
        <path d="M108.081 103.057H105.303V108.59H108.081V103.057Z" fill="#EBEBEB"/>
        <path d="M113.001 103.057H110.224V108.59H113.001V103.057Z" fill="#EBEBEB"/>
        <path d="M93.3339 112.046H90.5565V117.578H93.3339V112.046Z" fill="#EBEBEB"/>
        <path d="M98.2472 112.046H95.4698V117.578H98.2472V112.046Z" fill="#EBEBEB"/>
        <path d="M103.168 112.046H100.39V117.578H103.168V112.046Z" fill="#EBEBEB"/>
        <path d="M108.081 112.046H105.303V117.578H108.081V112.046Z" fill="#EBEBEB"/>
        <path d="M113.001 112.046H110.224V117.578H113.001V112.046Z" fill="#EBEBEB"/>
        <path d="M93.3339 121.034H90.5565V126.566H93.3339V121.034Z" fill="#EBEBEB"/>
        <path d="M98.2472 121.034H95.4698V126.566H98.2472V121.034Z" fill="#EBEBEB"/>
        <path d="M103.168 121.034H100.39V126.566H103.168V121.034Z" fill="#EBEBEB"/>
        <path d="M108.081 121.034H105.303V126.566H108.081V121.034Z" fill="#EBEBEB"/>
        <path d="M113.001 121.034H110.224V126.566H113.001V121.034Z" fill="#EBEBEB"/>
        <path d="M93.3339 130.022H90.5565V135.555H93.3339V130.022Z" fill="#EBEBEB"/>
        <path d="M98.2472 130.022H95.4698V135.555H98.2472V130.022Z" fill="#EBEBEB"/>
        <path d="M103.168 130.022H100.39V135.555H103.168V130.022Z" fill="#EBEBEB"/>
        <path d="M108.081 130.022H105.303V135.555H108.081V130.022Z" fill="#EBEBEB"/>
        <path d="M113.001 130.022H110.224V135.555H113.001V130.022Z" fill="#EBEBEB"/>
        <path d="M93.3339 139.003H90.5565V144.536H93.3339V139.003Z" fill="#EBEBEB"/>
        <path d="M98.2472 139.003H95.4698V144.536H98.2472V139.003Z" fill="#EBEBEB"/>
        <path d="M103.168 139.003H100.39V144.536H103.168V139.003Z" fill="#EBEBEB"/>
        <path d="M108.081 139.003H105.303V144.536H108.081V139.003Z" fill="#EBEBEB"/>
        <path d="M113.001 139.003H110.224V144.536H113.001V139.003Z" fill="#EBEBEB"/>
        <path d="M93.3339 147.991H90.5565V153.516H93.3339V147.991Z" fill="#EBEBEB"/>
        <path d="M98.2472 147.991H95.4698V153.516H98.2472V147.991Z" fill="#EBEBEB"/>
        <path d="M103.168 147.991H100.39V153.516H103.168V147.991Z" fill="#EBEBEB"/>
        <path d="M108.081 147.991H105.303V153.516H108.081V147.991Z" fill="#EBEBEB"/>
        <path d="M113.001 147.991H110.224V153.516H113.001V147.991Z" fill="#EBEBEB"/>
        <path d="M93.3339 156.979H90.5565V162.512H93.3339V156.979Z" fill="#EBEBEB"/>
        <path d="M98.2472 156.979H95.4698V162.512H98.2472V156.979Z" fill="#EBEBEB"/>
        <path d="M103.168 156.979H100.39V162.512H103.168V156.979Z" fill="#EBEBEB"/>
        <path d="M108.081 156.979H105.303V162.512H108.081V156.979Z" fill="#EBEBEB"/>
        <path d="M113.001 156.979H110.224V162.512H113.001V156.979Z" fill="#EBEBEB"/>
        <path d="M93.3339 165.967H90.5565V171.493H93.3339V165.967Z" fill="#EBEBEB"/>
        <path d="M98.2472 165.967H95.4698V171.493H98.2472V165.967Z" fill="#EBEBEB"/>
        <path d="M103.168 165.967H100.39V171.493H103.168V165.967Z" fill="#EBEBEB"/>
        <path d="M108.081 165.967H105.303V171.493H108.081V165.967Z" fill="#EBEBEB"/>
        <path d="M113.001 165.967H110.224V171.493H113.001V165.967Z" fill="#EBEBEB"/>
        <path d="M93.3339 174.948H90.5565V180.474H93.3339V174.948Z" fill="#EBEBEB"/>
        <path d="M98.2472 174.948H95.4698V180.474H98.2472V174.948Z" fill="#EBEBEB"/>
        <path d="M103.168 174.948H100.39V180.474H103.168V174.948Z" fill="#EBEBEB"/>
        <path d="M108.081 174.948H105.303V180.474H108.081V174.948Z" fill="#EBEBEB"/>
        <path d="M113.001 174.948H110.224V180.474H113.001V174.948Z" fill="#EBEBEB"/>
        <path d="M93.3339 183.936H90.5565V189.469H93.3339V183.936Z" fill="#EBEBEB"/>
        <path d="M98.2472 183.936H95.4698V189.469H98.2472V183.936Z" fill="#EBEBEB"/>
        <path d="M103.168 183.936H100.39V189.469H103.168V183.936Z" fill="#EBEBEB"/>
        <path d="M108.081 183.936H105.303V189.469H108.081V183.936Z" fill="#EBEBEB"/>
        <path d="M113.001 183.936H110.224V189.469H113.001V183.936Z" fill="#EBEBEB"/>
        <path d="M93.3339 192.924H90.5565V196.372H93.3339V192.924Z" fill="#EBEBEB"/>
        <path d="M98.2472 192.924H95.4698V196.372H98.2472V192.924Z" fill="#EBEBEB"/>
        <path d="M103.168 192.924H100.39V196.372H103.168V192.924Z" fill="#EBEBEB"/>
        <path d="M108.081 192.924H105.303V196.372H108.081V192.924Z" fill="#EBEBEB"/>
        <path d="M113.001 192.924H110.224V196.372H113.001V192.924Z" fill="#EBEBEB"/>
        <path d="M133.063 68.4314H115.473V196.365H133.063V68.4314Z" fill="#DBDBDB"/>
        <path d="M133.821 65.6321H115.473V68.4313H133.821V65.6321Z" fill="#C7C7C7"/>
        <path d="M120.729 72.5647H117.951V196.372H120.729V72.5647Z" fill="#C7C7C7"/>
        <path d="M125.649 72.5647H122.872V196.372H125.649V72.5647Z" fill="#C7C7C7"/>
        <path d="M130.562 72.5647H127.785V196.372H130.562V72.5647Z" fill="#C7C7C7"/>
        <path d="M120.729 76.1001H117.951V81.6257H120.729V76.1001Z" fill="#DBDBDB"/>
        <path d="M125.649 76.1001H122.872V81.6257H125.649V76.1001Z" fill="#DBDBDB"/>
        <path d="M130.562 76.1001H127.785V81.6257H130.562V76.1001Z" fill="#DBDBDB"/>
        <path d="M120.729 85.0881H117.951V90.621H120.729V85.0881Z" fill="#DBDBDB"/>
        <path d="M125.649 85.0881H122.872V90.621H125.649V85.0881Z" fill="#DBDBDB"/>
        <path d="M130.562 85.0881H127.785V90.621H130.562V85.0881Z" fill="#DBDBDB"/>
        <path d="M120.729 94.0764H117.951V99.602H120.729V94.0764Z" fill="#DBDBDB"/>
        <path d="M125.649 94.0764H122.872V99.602H125.649V94.0764Z" fill="#DBDBDB"/>
        <path d="M130.562 94.0764H127.785V99.602H130.562V94.0764Z" fill="#DBDBDB"/>
        <path d="M120.729 103.057H117.951V108.59H120.729V103.057Z" fill="#DBDBDB"/>
        <path d="M125.649 103.057H122.872V108.59H125.649V103.057Z" fill="#DBDBDB"/>
        <path d="M130.562 103.057H127.785V108.59H130.562V103.057Z" fill="#DBDBDB"/>
        <path d="M120.729 112.046H117.951V117.578H120.729V112.046Z" fill="#DBDBDB"/>
        <path d="M125.649 112.046H122.872V117.578H125.649V112.046Z" fill="#DBDBDB"/>
        <path d="M130.562 112.046H127.785V117.578H130.562V112.046Z" fill="#DBDBDB"/>
        <path d="M120.729 121.034H117.951V126.566H120.729V121.034Z" fill="#DBDBDB"/>
        <path d="M125.649 121.034H122.872V126.566H125.649V121.034Z" fill="#DBDBDB"/>
        <path d="M130.562 121.034H127.785V126.566H130.562V121.034Z" fill="#DBDBDB"/>
        <path d="M120.729 130.022H117.951V135.555H120.729V130.022Z" fill="#DBDBDB"/>
        <path d="M125.649 130.022H122.872V135.555H125.649V130.022Z" fill="#DBDBDB"/>
        <path d="M130.562 130.022H127.785V135.555H130.562V130.022Z" fill="#DBDBDB"/>
        <path d="M120.729 139.003H117.951V144.536H120.729V139.003Z" fill="#DBDBDB"/>
        <path d="M125.649 139.003H122.872V144.536H125.649V139.003Z" fill="#DBDBDB"/>
        <path d="M130.562 139.003H127.785V144.536H130.562V139.003Z" fill="#DBDBDB"/>
        <path d="M120.729 147.991H117.951V153.516H120.729V147.991Z" fill="#DBDBDB"/>
        <path d="M125.649 147.991H122.872V153.516H125.649V147.991Z" fill="#DBDBDB"/>
        <path d="M130.562 147.991H127.785V153.516H130.562V147.991Z" fill="#DBDBDB"/>
        <path d="M120.729 156.979H117.951V162.512H120.729V156.979Z" fill="#DBDBDB"/>
        <path d="M125.649 156.979H122.872V162.512H125.649V156.979Z" fill="#DBDBDB"/>
        <path d="M130.562 156.979H127.785V162.512H130.562V156.979Z" fill="#DBDBDB"/>
        <path d="M120.729 165.967H117.951V171.493H120.729V165.967Z" fill="#DBDBDB"/>
        <path d="M125.649 165.967H122.872V171.493H125.649V165.967Z" fill="#DBDBDB"/>
        <path d="M130.562 165.967H127.785V171.493H130.562V165.967Z" fill="#DBDBDB"/>
        <path d="M120.729 174.948H117.951V180.474H120.729V174.948Z" fill="#DBDBDB"/>
        <path d="M125.649 174.948H122.872V180.474H125.649V174.948Z" fill="#DBDBDB"/>
        <path d="M130.562 174.948H127.785V180.474H130.562V174.948Z" fill="#DBDBDB"/>
        <path d="M120.729 183.936H117.951V189.469H120.729V183.936Z" fill="#DBDBDB"/>
        <path d="M125.649 183.936H122.872V189.469H125.649V183.936Z" fill="#DBDBDB"/>
        <path d="M130.562 183.936H127.785V189.469H130.562V183.936Z" fill="#DBDBDB"/>
        <path d="M120.729 192.924H117.951V196.372H120.729V192.924Z" fill="#DBDBDB"/>
        <path d="M125.649 192.924H122.872V196.372H125.649V192.924Z" fill="#DBDBDB"/>
        <path d="M130.562 192.924H127.785V196.372H130.562V192.924Z" fill="#DBDBDB"/>
        <path d="M80.9632 115.45H53.6853V196.365H80.9632V115.45Z" fill="#EBEBEB"/>
        <path d="M80.9706 108.59H57.5708V115.45H80.9706V108.59Z" fill="#C7C7C7"/>
        <path d="M77.9749 119.029H56.6818V196.365H77.9749V119.029Z" fill="#DBDBDB"/>
        <path d="M77.9749 126.413H56.6818V128.243H77.9749V126.413Z" fill="white"/>
        <path d="M77.9749 133.98H56.6818V135.81H77.9749V133.98Z" fill="white"/>
        <path d="M77.9749 141.554H56.6818V143.384H77.9749V141.554Z" fill="white"/>
        <path d="M77.9749 149.121H56.6818V150.95H77.9749V149.121Z" fill="white"/>
        <path d="M77.9749 156.695H56.6818V158.524H77.9749V156.695Z" fill="white"/>
        <path d="M77.9749 164.261H56.6818V166.091H77.9749V164.261Z" fill="white"/>
        <path d="M77.9749 171.835H56.6818V173.665H77.9749V171.835Z" fill="white"/>
        <path d="M77.9749 179.402H56.6818V181.232H77.9749V179.402Z" fill="white"/>
        <path d="M77.9749 186.969H56.6818V188.798H77.9749V186.969Z" fill="white"/>
        <path d="M77.9749 194.543H56.6818V196.372H77.9749V194.543Z" fill="white"/>
        <path d="M98.0502 115.45H80.9633V196.365H98.0502V115.45Z" fill="#DBDBDB"/>
        <path d="M95.4843 108.59H80.9633V115.45H95.4843V108.59Z" fill="#A6A6A6"/>
        <path d="M96.4614 119.029H83.3254V196.365H96.4614V119.029Z" fill="#C7C7C7"/>
        <path d="M96.4614 126.413H83.3254V128.243H96.4614V126.413Z" fill="white"/>
        <path d="M96.4614 133.98H83.3254V135.81H96.4614V133.98Z" fill="white"/>
        <path d="M96.4614 141.554H83.3254V143.384H96.4614V141.554Z" fill="white"/>
        <path d="M96.4614 149.121H83.3254V150.95H96.4614V149.121Z" fill="white"/>
        <path d="M96.4614 156.695H83.3254V158.524H96.4614V156.695Z" fill="white"/>
        <path d="M96.4614 164.261H83.3254V166.091H96.4614V164.261Z" fill="white"/>
        <path d="M96.4614 171.835H83.3254V173.665H96.4614V171.835Z" fill="white"/>
        <path d="M96.4614 179.402H83.3254V181.232H96.4614V179.402Z" fill="white"/>
        <path d="M96.4614 186.969H83.3254V188.798H96.4614V186.969Z" fill="white"/>
        <path d="M96.4614 194.543H83.3254V196.372H96.4614V194.543Z" fill="white"/>
        <path d="M157.418 148.997H136.329V196.365H157.418V148.997Z" fill="#DBDBDB"/>
        <path d="M143.378 153.101H139.645V156.002H143.378V153.101Z" fill="#C7C7C7"/>
        <path d="M143.378 159.297H139.645V162.198H143.378V159.297Z" fill="#C7C7C7"/>
        <path d="M143.378 165.493H139.645V168.395H143.378V165.493Z" fill="#C7C7C7"/>
        <path d="M143.378 171.697H139.645V174.598H143.378V171.697Z" fill="#C7C7C7"/>
        <path d="M143.378 177.893H139.645V180.794H143.378V177.893Z" fill="#C7C7C7"/>
        <path d="M143.378 184.097H139.645V186.998H143.378V184.097Z" fill="#C7C7C7"/>
        <path d="M143.378 190.293H139.645V193.194H143.378V190.293Z" fill="#C7C7C7"/>
        <path d="M148.75 153.101H145.018V156.002H148.75V153.101Z" fill="#C7C7C7"/>
        <path d="M148.75 159.297H145.018V162.198H148.75V159.297Z" fill="#C7C7C7"/>
        <path d="M148.75 165.493H145.018V168.395H148.75V165.493Z" fill="#C7C7C7"/>
        <path d="M148.75 171.697H145.018V174.598H148.75V171.697Z" fill="#C7C7C7"/>
        <path d="M148.75 177.893H145.018V180.794H148.75V177.893Z" fill="#C7C7C7"/>
        <path d="M148.75 184.097H145.018V186.998H148.75V184.097Z" fill="#C7C7C7"/>
        <path d="M148.75 190.293H145.018V193.194H148.75V190.293Z" fill="#C7C7C7"/>
        <path d="M154.1 153.101H150.368V156.002H154.1V153.101Z" fill="#C7C7C7"/>
        <path d="M154.1 159.297H150.368V162.198H154.1V159.297Z" fill="#C7C7C7"/>
        <path d="M154.1 165.493H150.368V168.395H154.1V165.493Z" fill="#C7C7C7"/>
        <path d="M154.1 171.697H150.368V174.598H154.1V171.697Z" fill="#C7C7C7"/>
        <path d="M154.1 177.893H150.368V180.794H154.1V177.893Z" fill="#C7C7C7"/>
        <path d="M154.1 184.097H150.368V186.998H154.1V184.097Z" fill="#C7C7C7"/>
        <path d="M154.1 190.293H150.368V193.194H154.1V190.293Z" fill="#C7C7C7"/>
        <path d="M172.216 148.997H157.417V196.365H172.216V148.997Z" fill="#A6A6A6"/>
        <path d="M167.659 192.735H170.699V189.834H167.659V192.735Z" fill="#C7C7C7"/>
        <path d="M167.659 186.531H170.699V183.63H167.659V186.531Z" fill="#C7C7C7"/>
        <path d="M167.659 180.335H170.699V177.434H167.659V180.335Z" fill="#C7C7C7"/>
        <path d="M167.659 174.139H170.699V171.237H167.659V174.139Z" fill="#C7C7C7"/>
        <path d="M167.659 167.935H170.699V165.034H167.659V167.935Z" fill="#C7C7C7"/>
        <path d="M167.659 161.732H170.699V158.831H167.659V161.732Z" fill="#C7C7C7"/>
        <path d="M167.659 155.543H170.699V152.642H167.659V155.543Z" fill="#C7C7C7"/>
        <path d="M163.293 192.735H166.333V189.834H163.293V192.735Z" fill="#C7C7C7"/>
        <path d="M163.293 186.531H166.333V183.63H163.293V186.531Z" fill="#C7C7C7"/>
        <path d="M163.293 180.335H166.333V177.434H163.293V180.335Z" fill="#C7C7C7"/>
        <path d="M163.293 174.139H166.333V171.237H163.293V174.139Z" fill="#C7C7C7"/>
        <path d="M163.293 167.935H166.333V165.034H163.293V167.935Z" fill="#C7C7C7"/>
        <path d="M163.293 161.732H166.333V158.831H163.293V161.732Z" fill="#C7C7C7"/>
        <path d="M163.293 155.543H166.333V152.642H163.293V155.543Z" fill="#C7C7C7"/>
        <path d="M158.934 192.735H161.973V189.834H158.934V192.735Z" fill="#C7C7C7"/>
        <path d="M158.934 186.531H161.973V183.63H158.934V186.531Z" fill="#C7C7C7"/>
        <path d="M158.934 180.335H161.973V177.434H158.934V180.335Z" fill="#C7C7C7"/>
        <path d="M158.934 174.139H161.973V171.237H158.934V174.139Z" fill="#C7C7C7"/>
        <path d="M158.934 167.935H161.973V165.034H158.934V167.935Z" fill="#C7C7C7"/>
        <path d="M158.934 161.732H161.973V158.831H158.934V161.732Z" fill="#C7C7C7"/>
        <path d="M158.934 155.543H161.973V152.642H158.934V155.543Z" fill="#C7C7C7"/>
        <path d="M314.313 94.6597H299.741V111.871H314.313V94.6597Z" fill="#DBDBDB"/>
        <path d="M323.542 94.6597H314.306V112.497H323.542V94.6597Z" fill="#C7C7C7"/>
        <path d="M324.161 102.263H314.991V112.505H324.161V102.263Z" fill="#DBDBDB"/>
        <path d="M329.876 102.263H324.161V112.505H329.876V102.263Z" fill="#C7C7C7"/>
        <path d="M317.71 110.755H294.15V196.372H317.71V110.755Z" fill="#EBEBEB"/>
        <path d="M304.253 114.436H296.847V117.462H304.253V114.436Z" fill="white"/>
        <path d="M313.73 114.436H306.324V117.462H313.73V114.436Z" fill="white"/>
        <path d="M304.253 119.576H296.847V122.601H304.253V119.576Z" fill="white"/>
        <path d="M313.73 119.576H306.324V122.601H313.73V119.576Z" fill="white"/>
        <path d="M304.253 124.708H296.847V127.733H304.253V124.708Z" fill="white"/>
        <path d="M313.73 124.708H306.324V127.733H313.73V124.708Z" fill="white"/>
        <path d="M304.253 129.847H296.847V132.872H304.253V129.847Z" fill="white"/>
        <path d="M313.73 129.847H306.324V132.872H313.73V129.847Z" fill="white"/>
        <path d="M304.253 134.986H296.847V138.011H304.253V134.986Z" fill="white"/>
        <path d="M313.73 134.986H306.324V138.011H313.73V134.986Z" fill="white"/>
        <path d="M304.253 140.125H296.847V143.151H304.253V140.125Z" fill="white"/>
        <path d="M313.73 140.125H306.324V143.151H313.73V140.125Z" fill="white"/>
        <path d="M304.253 145.265H296.847V148.29H304.253V145.265Z" fill="white"/>
        <path d="M313.73 145.265H306.324V148.29H313.73V145.265Z" fill="white"/>
        <path d="M304.253 150.404H296.847V153.429H304.253V150.404Z" fill="white"/>
        <path d="M313.73 150.404H306.324V153.429H313.73V150.404Z" fill="white"/>
        <path d="M304.253 155.543H296.847V158.568H304.253V155.543Z" fill="white"/>
        <path d="M313.73 155.543H306.324V158.568H313.73V155.543Z" fill="white"/>
        <path d="M304.253 160.682H296.847V163.707H304.253V160.682Z" fill="white"/>
        <path d="M313.73 160.682H306.324V163.707H313.73V160.682Z" fill="white"/>
        <path d="M304.253 165.821H296.847V168.847H304.253V165.821Z" fill="white"/>
        <path d="M313.73 165.821H306.324V168.847H313.73V165.821Z" fill="white"/>
        <path d="M304.253 170.961H296.847V173.986H304.253V170.961Z" fill="white"/>
        <path d="M313.73 170.961H306.324V173.986H313.73V170.961Z" fill="white"/>
        <path d="M304.253 176.1H296.847V179.125H304.253V176.1Z" fill="white"/>
        <path d="M313.73 176.1H306.324V179.125H313.73V176.1Z" fill="white"/>
        <path d="M304.253 181.239H296.847V184.264H304.253V181.239Z" fill="white"/>
        <path d="M313.73 181.239H306.324V184.264H313.73V181.239Z" fill="white"/>
        <path d="M336.801 110.755H317.71V196.372H336.801V110.755Z" fill="#C7C7C7"/>
        <path d="M328.805 184.271H334.884V181.246H328.805V184.271Z" fill="#EBEBEB"/>
        <path d="M321.027 184.271H327.106V181.246H321.027V184.271Z" fill="#EBEBEB"/>
        <path d="M328.805 179.132H334.884V176.107H328.805V179.132Z" fill="#EBEBEB"/>
        <path d="M321.027 179.132H327.106V176.107H321.027V179.132Z" fill="#EBEBEB"/>
        <path d="M328.805 173.993H334.884V170.968H328.805V173.993Z" fill="#EBEBEB"/>
        <path d="M321.027 173.993H327.106V170.968H321.027V173.993Z" fill="#EBEBEB"/>
        <path d="M328.805 168.854H334.884V165.829H328.805V168.854Z" fill="#EBEBEB"/>
        <path d="M321.027 168.854H327.106V165.829H321.027V168.854Z" fill="#EBEBEB"/>
        <path d="M328.805 163.715H334.884V160.689H328.805V163.715Z" fill="#EBEBEB"/>
        <path d="M321.027 163.715H327.106V160.689H321.027V163.715Z" fill="#EBEBEB"/>
        <path d="M328.805 158.575H334.884V155.55H328.805V158.575Z" fill="#EBEBEB"/>
        <path d="M321.027 158.575H327.106V155.55H321.027V158.575Z" fill="#EBEBEB"/>
        <path d="M328.805 153.436H334.884V150.411H328.805V153.436Z" fill="#EBEBEB"/>
        <path d="M321.027 153.436H327.106V150.411H321.027V153.436Z" fill="#EBEBEB"/>
        <path d="M328.805 148.297H334.884V145.272H328.805V148.297Z" fill="#EBEBEB"/>
        <path d="M321.027 148.297H327.106V145.272H321.027V148.297Z" fill="#EBEBEB"/>
        <path d="M328.805 143.158H334.884V140.133H328.805V143.158Z" fill="#EBEBEB"/>
        <path d="M321.027 143.158H327.106V140.133H321.027V143.158Z" fill="#EBEBEB"/>
        <path d="M328.805 138.019H334.884V134.993H328.805V138.019Z" fill="#EBEBEB"/>
        <path d="M321.027 138.019H327.106V134.993H321.027V138.019Z" fill="#EBEBEB"/>
        <path d="M328.805 132.879H334.884V129.854H328.805V132.879Z" fill="#EBEBEB"/>
        <path d="M321.027 132.879H327.106V129.854H321.027V132.879Z" fill="#EBEBEB"/>
        <path d="M328.805 127.74H334.884V124.715H328.805V127.74Z" fill="#EBEBEB"/>
        <path d="M321.027 127.74H327.106V124.715H321.027V127.74Z" fill="#EBEBEB"/>
        <path d="M328.805 122.594H334.884V119.568H328.805V122.594Z" fill="#EBEBEB"/>
        <path d="M321.027 122.594H327.106V119.568H321.027V122.594Z" fill="#EBEBEB"/>
        <path d="M328.805 117.454H334.884V114.429H328.805V117.454Z" fill="#EBEBEB"/>
        <path d="M321.027 117.454H327.106V114.429H321.027V117.454Z" fill="#EBEBEB"/>
        <path d="M218.038 140.577H190.25V196.365H218.038V140.577Z" fill="#C7C7C7"/>
        <path d="M199.544 145.41H194.624V148.829H199.544V145.41Z" fill="#DBDBDB"/>
        <path d="M199.544 152.707H194.624V156.126H199.544V152.707Z" fill="#DBDBDB"/>
        <path d="M199.544 160.011H194.624V163.43H199.544V160.011Z" fill="#DBDBDB"/>
        <path d="M199.544 167.308H194.624V170.727H199.544V167.308Z" fill="#DBDBDB"/>
        <path d="M199.544 174.613H194.624V178.032H199.544V174.613Z" fill="#DBDBDB"/>
        <path d="M199.544 181.91H194.624V185.329H199.544V181.91Z" fill="#DBDBDB"/>
        <path d="M199.544 189.214H194.624V192.633H199.544V189.214Z" fill="#DBDBDB"/>
        <path d="M206.615 145.41H201.695V148.829H206.615V145.41Z" fill="#DBDBDB"/>
        <path d="M206.615 152.707H201.695V156.126H206.615V152.707Z" fill="#DBDBDB"/>
        <path d="M206.615 160.011H201.695V163.43H206.615V160.011Z" fill="#DBDBDB"/>
        <path d="M206.615 167.308H201.695V170.727H206.615V167.308Z" fill="#DBDBDB"/>
        <path d="M206.615 174.613H201.695V178.032H206.615V174.613Z" fill="#DBDBDB"/>
        <path d="M206.615 181.91H201.695V185.329H206.615V181.91Z" fill="#DBDBDB"/>
        <path d="M206.615 189.214H201.695V192.633H206.615V189.214Z" fill="#DBDBDB"/>
        <path d="M213.672 145.41H208.751V148.829H213.672V145.41Z" fill="#DBDBDB"/>
        <path d="M213.672 152.707H208.751V156.126H213.672V152.707Z" fill="#DBDBDB"/>
        <path d="M213.672 160.011H208.751V163.43H213.672V160.011Z" fill="#DBDBDB"/>
        <path d="M213.672 167.308H208.751V170.727H213.672V167.308Z" fill="#DBDBDB"/>
        <path d="M213.672 174.613H208.751V178.032H213.672V174.613Z" fill="#DBDBDB"/>
        <path d="M213.672 181.91H208.751V185.329H213.672V181.91Z" fill="#DBDBDB"/>
        <path d="M213.672 189.214H208.751V192.633H213.672V189.214Z" fill="#DBDBDB"/>
        <path d="M218.038 134.767H199.537V140.577H218.038V134.767Z" fill="#DBDBDB"/>
        <path d="M218.038 131.166H206.309V134.767H218.038V131.166Z" fill="#EBEBEB"/>
        <path d="M237.531 140.577H218.038V196.365H237.531V140.577Z" fill="#A6A6A6"/>
        <path d="M231.539 192.086H235.541V188.667H231.539V192.086Z" fill="#C7C7C7"/>
        <path d="M231.539 184.782H235.541V181.363H231.539V184.782Z" fill="#C7C7C7"/>
        <path d="M231.539 177.485H235.541V174.066H231.539V177.485Z" fill="#C7C7C7"/>
        <path d="M231.539 170.181H235.541V166.762H231.539V170.181Z" fill="#C7C7C7"/>
        <path d="M231.539 162.884H235.541V159.465H231.539V162.884Z" fill="#C7C7C7"/>
        <path d="M231.539 155.579H235.541V152.16H231.539V155.579Z" fill="#C7C7C7"/>
        <path d="M231.539 148.282H235.541V144.864H231.539V148.282Z" fill="#C7C7C7"/>
        <path d="M225.773 192.086H229.775V188.667H225.773V192.086Z" fill="#C7C7C7"/>
        <path d="M225.773 184.782H229.775V181.363H225.773V184.782Z" fill="#C7C7C7"/>
        <path d="M225.773 177.485H229.775V174.066H225.773V177.485Z" fill="#C7C7C7"/>
        <path d="M225.773 170.181H229.775V166.762H225.773V170.181Z" fill="#C7C7C7"/>
        <path d="M225.773 162.884H229.775V159.465H225.773V162.884Z" fill="#C7C7C7"/>
        <path d="M225.773 155.579H229.775V152.16H225.773V155.579Z" fill="#C7C7C7"/>
        <path d="M225.773 148.282H229.775V144.864H225.773V148.282Z" fill="#C7C7C7"/>
        <path d="M220.028 192.086H224.03V188.667H220.028V192.086Z" fill="#C7C7C7"/>
        <path d="M220.028 184.782H224.03V181.363H220.028V184.782Z" fill="#C7C7C7"/>
        <path d="M220.028 177.485H224.03V174.066H220.028V177.485Z" fill="#C7C7C7"/>
        <path d="M220.028 170.181H224.03V166.762H220.028V170.181Z" fill="#C7C7C7"/>
        <path d="M220.028 162.884H224.03V159.465H220.028V162.884Z" fill="#C7C7C7"/>
        <path d="M220.028 155.579H224.03V152.16H220.028V155.579Z" fill="#C7C7C7"/>
        <path d="M220.028 148.282H224.03V144.864H220.028V148.282Z" fill="#C7C7C7"/>
        <path d="M234.579 134.767H218.038V140.577H234.579V134.767Z" fill="#C7C7C7"/>
        <path d="M227.005 131.166H218.038V134.767H227.005V131.166Z" fill="#DBDBDB"/>
        <path d="M197.726 215.426C280.98 215.426 348.47 212.436 348.47 208.747C348.47 205.059 280.98 202.069 197.726 202.069C114.472 202.069 46.9819 205.059 46.9819 208.747C46.9819 212.436 114.472 215.426 197.726 215.426Z" fill="#EBEBEB"/>
        <path d="M77.4567 195.512C77.4567 195.512 76.8444 192.655 75.6197 192.21C74.3951 191.765 73.6442 193.055 73.6442 193.055C73.6442 193.055 73.36 190.322 71.6177 189.498C69.8755 188.674 68.5779 190.358 68.5779 190.358C68.5779 190.358 67.2439 186.888 64.8602 186.888C62.4765 186.888 61.281 191.991 61.281 191.991C61.281 191.991 59.8741 190.475 58.4307 191.328C56.9874 192.181 56.9728 195.534 56.9728 195.534L77.4567 195.512Z" fill="#37474F"/>
        <path d="M280.722 195.512C280.722 195.512 280.11 192.655 278.885 192.21C277.66 191.765 276.917 193.055 276.917 193.055C276.917 193.055 276.625 190.322 274.89 189.498C273.155 188.674 271.85 190.358 271.85 190.358C271.85 190.358 270.516 186.888 268.133 186.888C265.749 186.888 264.546 191.991 264.546 191.991C264.546 191.991 263.147 190.475 261.703 191.328C260.26 192.181 260.245 195.534 260.245 195.534L280.722 195.512Z" fill="#455A64"/>
        <path d="M131.605 195.512H110.064C110.064 195.512 110.793 192.48 112.2 192.261C112.63 192.223 113.061 192.317 113.436 192.531C113.811 192.744 114.112 193.067 114.299 193.456C114.299 193.456 114.233 189.221 116.901 188.499C119.569 187.778 121.8 191.517 121.8 191.517C121.8 191.517 123.477 189.389 125.751 189.527C128.025 189.666 128.616 193.172 128.616 193.172C128.616 193.172 130.686 191.933 131.605 195.512Z" fill="#37474F"/>
        <path d="M58.3142 195.512H46.9788C46.9788 195.512 46.9788 193.828 48.1159 193.376C48.419 193.246 48.7563 193.217 49.077 193.294C49.3978 193.372 49.6847 193.552 49.8946 193.806C49.8946 193.806 50.3466 190.701 52.4241 190.701C54.5017 190.701 55.5004 193.325 55.5004 193.325C55.6766 193.07 55.9238 192.872 56.2113 192.755C56.4989 192.638 56.8143 192.609 57.1187 192.669C58.2705 192.844 58.3142 195.512 58.3142 195.512Z" fill="#455A64"/>
        <path d="M140.498 195.512H129.163C129.163 195.512 129.163 193.828 130.3 193.376C130.603 193.246 130.94 193.217 131.261 193.294C131.582 193.372 131.869 193.552 132.078 193.806C132.078 193.806 132.538 190.701 134.615 190.701C136.693 190.701 137.655 193.325 137.655 193.325C137.831 193.07 138.078 192.872 138.366 192.755C138.654 192.638 138.969 192.609 139.273 192.669C140.454 192.844 140.498 195.512 140.498 195.512Z" fill="#455A64"/>
        <path d="M326.968 195.512H315.632C315.632 195.512 315.632 193.828 316.769 193.376C317.072 193.246 317.41 193.217 317.73 193.294C318.051 193.372 318.338 193.552 318.548 193.806C318.548 193.806 319 190.701 321.077 190.701C323.155 190.701 324.154 193.376 324.154 193.376C324.329 193.12 324.576 192.921 324.864 192.805C325.152 192.688 325.468 192.659 325.772 192.72C326.924 192.844 326.968 195.512 326.968 195.512Z" fill="#455A64"/>
        <path d="M343.507 195.512H324.817C324.817 195.512 324.86 192.735 326.697 191.998C327.196 191.786 327.751 191.743 328.277 191.874C328.804 192.006 329.273 192.305 329.613 192.727C329.613 192.727 330.342 187.625 333.79 187.625C337.238 187.625 338.849 192.042 338.849 192.042C339.139 191.621 339.547 191.293 340.021 191.1C340.495 190.907 341.015 190.857 341.517 190.956C343.434 191.138 343.507 195.512 343.507 195.512Z" fill="#37474F"/>
        <path d="M347.328 195.483H43.1516V200.783H347.328V195.483Z" fill="#C7C7C7"/>
        <path d="M64.4813 195.512C64.9574 197.247 64.9574 199.077 64.4813 200.812C64.225 199.953 64.1021 199.061 64.1168 198.166C64.1057 197.268 64.2286 196.374 64.4813 195.512Z" fill="#263238"/>
        <path d="M88.2529 195.512C88.5056 196.374 88.6284 197.268 88.6174 198.166C88.6321 199.061 88.5091 199.953 88.2529 200.812C87.7767 199.077 87.7767 197.247 88.2529 195.512Z" fill="#263238"/>
        <path d="M112.032 195.512C112.508 197.247 112.508 199.077 112.032 200.812C111.775 199.953 111.653 199.061 111.667 198.166C111.656 197.268 111.779 196.374 112.032 195.512Z" fill="#263238"/>
        <path d="M135.803 195.512C136.056 196.374 136.179 197.268 136.168 198.166C136.183 199.061 136.06 199.953 135.803 200.812C135.327 199.077 135.327 197.247 135.803 195.512Z" fill="#263238"/>
        <path d="M159.582 195.512C160.059 197.247 160.059 199.077 159.582 200.812C159.326 199.953 159.203 199.061 159.218 198.166C159.207 197.268 159.33 196.374 159.582 195.512Z" fill="#263238"/>
        <path d="M183.354 195.512C183.607 196.374 183.73 197.268 183.719 198.166C183.733 199.061 183.61 199.953 183.354 200.812C182.878 199.077 182.878 197.247 183.354 195.512Z" fill="#263238"/>
        <path d="M207.133 195.512C207.609 197.247 207.609 199.077 207.133 200.812C206.877 199.953 206.754 199.061 206.768 198.166C206.757 197.268 206.88 196.374 207.133 195.512Z" fill="#263238"/>
        <path d="M230.904 195.512C231.157 196.374 231.28 197.268 231.269 198.166C231.284 199.061 231.161 199.953 230.904 200.812C230.428 199.077 230.428 197.247 230.904 195.512Z" fill="#263238"/>
        <path d="M254.683 195.512C255.159 197.247 255.159 199.077 254.683 200.812C254.427 199.953 254.304 199.061 254.319 198.166C254.308 197.268 254.431 196.374 254.683 195.512Z" fill="#263238"/>
        <path d="M278.455 195.512C278.707 196.374 278.83 197.268 278.819 198.166C278.834 199.061 278.711 199.953 278.455 200.812C277.978 199.077 277.978 197.247 278.455 195.512Z" fill="#263238"/>
        <path d="M302.234 195.512C302.71 197.247 302.71 199.077 302.234 200.812C301.977 199.953 301.855 199.061 301.869 198.166C301.858 197.268 301.981 196.374 302.234 195.512Z" fill="#263238"/>
        <path d="M326.005 195.512C326.258 196.374 326.381 197.268 326.37 198.166C326.385 199.061 326.262 199.953 326.005 200.812C325.529 199.077 325.529 197.247 326.005 195.512Z" fill="#263238"/>
        <path d="M42 200.783L80.3072 200.608L118.622 200.542L195.243 200.418L271.865 200.542L310.18 200.608L348.487 200.783L310.18 200.965L271.865 201.03L195.243 201.147L118.622 201.023L80.3072 200.965L42 200.783Z" fill="#263238"/>
        <path d="M163.323 118.99C165 120.416 166.249 122.28 166.928 124.375C167.608 126.469 167.692 128.711 167.171 130.85C166.65 132.99 165.545 134.942 163.979 136.49C162.413 138.038 160.448 139.119 158.302 139.615L155.661 145.009L153.103 139.651C151.19 139.242 149.41 138.363 147.923 137.092C146.717 136.086 145.721 134.851 144.994 133.459C144.268 132.066 143.824 130.543 143.69 128.978C143.556 127.413 143.733 125.837 144.212 124.341C144.69 122.845 145.461 121.458 146.479 120.262C147.497 119.065 148.741 118.082 150.142 117.37C151.542 116.658 153.069 116.23 154.635 116.112C156.202 115.994 157.776 116.187 159.267 116.681C160.758 117.175 162.137 117.96 163.323 118.99Z" fill="white"/>
        <path d="M163.323 118.99C165 120.418 166.251 122.281 166.936 124.374C167.107 124.895 167.246 125.427 167.35 125.966C167.437 126.506 167.494 127.051 167.519 127.598C167.612 129.806 167.099 131.997 166.035 133.934C165.765 134.415 165.461 134.875 165.124 135.311C164.803 135.761 164.445 136.184 164.054 136.575C162.485 138.155 160.505 139.264 158.338 139.779L158.456 139.692L155.851 145.101L155.661 145.495L155.472 145.101L152.913 139.753L153.077 139.876C150.831 139.392 148.771 138.275 147.141 136.657C145.51 135.039 144.378 132.988 143.878 130.746C143.377 128.504 143.53 126.165 144.318 124.007C145.106 121.85 146.495 119.963 148.323 118.571C149.774 117.481 151.451 116.731 153.23 116.375C155.001 116.021 156.829 116.072 158.577 116.525C160.324 116.978 161.947 117.821 163.323 118.99ZM163.323 118.99C161.952 117.825 160.334 116.99 158.59 116.548C156.847 116.106 155.025 116.069 153.266 116.441C151.506 116.813 149.855 117.582 148.439 118.691C147.023 119.801 145.881 121.219 145.098 122.839C144.325 124.434 143.924 126.184 143.926 127.957C143.946 129.728 144.351 131.475 145.114 133.074C145.889 134.666 147.015 136.061 148.406 137.156C149.798 138.25 151.419 139.016 153.149 139.395H153.261L153.312 139.497L155.871 144.866H155.487L158.164 139.487L158.2 139.415H158.277C160.399 138.948 162.349 137.897 163.906 136.38C164.295 136.003 164.654 135.595 164.981 135.162C165.998 133.881 166.726 132.396 167.115 130.807C167.39 129.75 167.505 128.659 167.458 127.568C167.442 127.022 167.391 126.479 167.304 125.94C167.202 125.406 167.069 124.878 166.905 124.359C166.226 122.275 164.986 120.418 163.323 118.99Z" fill="#263238"/>
        <path d="M160.129 126.344C159.904 124.082 158.343 121.825 155.595 121.825C152.847 121.825 151.296 124.082 151.071 126.344C150.723 129.845 153.082 132.997 155.595 135.904C158.118 133.013 160.477 129.845 160.129 126.344ZM155.595 128.862C155.104 128.861 154.625 128.715 154.217 128.442C153.81 128.168 153.493 127.78 153.305 127.327C153.118 126.873 153.07 126.374 153.166 125.893C153.263 125.412 153.499 124.97 153.847 124.623C154.194 124.277 154.636 124.041 155.118 123.945C155.599 123.85 156.098 123.9 156.551 124.088C157.004 124.276 157.392 124.594 157.664 125.002C157.937 125.41 158.082 125.89 158.082 126.38C158.083 126.707 158.019 127.03 157.894 127.332C157.769 127.634 157.586 127.908 157.355 128.139C157.124 128.369 156.849 128.552 156.547 128.676C156.245 128.8 155.922 128.864 155.595 128.862Z" fill="#EB6440"/>
    </g>
    <g filter="url(#filter0_d_1_2009)">
        <path d="M170.23 208.348L179.084 208.348C107.65 265.146 95.832 303.401 264.455 315.84C346.925 325.1 466.5 321.672 462 436.672C516 951.172 205.5 658.172 205.5 658.172C462 573.172 380.994 409.241 232.5 384.172C-4.59997 344.145 82.457 253.246 170.23 208.348Z" fill="#272739"/>
    </g>
    <path d="M-120.853 577.172C144.465 598.763 260.719 641.537 401.192 779.759L306.045 1024.94L-216 822.358L-120.853 577.172Z" fill="#272739"/>
    <path d="M175.19 208.543C91.8026 256.592 56.9866 326.789 231.609 343.29C447.088 363.652 425.5 434.172 392 485.172" stroke="url(#paint0_linear_1_2009)" stroke-dasharray="8 8"/>
    <path d="M194.155 639.248C187.603 640.729 169.574 650.541 164.244 661.927L159.012 660.447C163.161 649.744 190.527 634.65 194.155 639.248Z" fill="#D9D9D9"/>
    <path d="M145.397 675.544C129.023 683.041 87.126 718.722 79.4177 751.533L64.874 750.533C69.8619 720.164 133.343 665.481 145.397 675.544Z" fill="#D9D9D9"/>
    <path d="M307.773 693.65C360.29 660.789 425.969 592.762 432.224 543.488" stroke="url(#paint1_linear_1_2009)" stroke-width="2" stroke-dasharray="8 8"/>
    <mask id="path-428-outside-1_1_2009" maskUnits="userSpaceOnUse" x="155.126" y="149" width="114" height="51" fill="black">
        <path d="M162.99 182.104C164.046 178.488 165.694 175.448 167.934 172.984C170.174 170.488 172.254 169.24 174.174 169.24C176.126 169.24 177.502 169.832 178.302 171.016C179.134 172.168 179.55 173.752 179.55 175.768C179.55 177.752 179.23 180.552 178.59 184.168C177.982 187.784 177.678 190.424 177.678 192.088C177.678 193.72 177.886 194.92 178.302 195.688C178.718 196.424 179.422 197.064 180.414 197.608C179.998 197.64 179.406 197.656 178.638 197.656C175.95 197.656 174.03 197.24 172.878 196.408C171.758 195.576 171.198 194.12 171.198 192.04C171.198 190.856 171.518 188.552 172.158 185.128C172.798 181.672 173.118 179.096 173.118 177.4C173.118 175.288 172.478 174.232 171.198 174.232C170.43 174.232 169.582 174.664 168.654 175.528C167.726 176.392 166.83 177.576 165.966 179.08C165.134 180.552 164.43 182.456 163.854 184.792C163.278 187.128 162.99 189.464 162.99 191.8C162.99 194.104 163.086 195.816 163.278 196.936C162.254 197 161.582 197.032 161.262 197.032C159.438 197.032 158.126 196.728 157.326 196.12C156.526 195.48 156.126 194.472 156.126 193.096C156.126 191.72 156.398 189.096 156.942 185.224C158.67 173.32 159.534 164.28 159.534 158.104C159.534 155.32 159.342 153.448 158.958 152.488C161.358 153.128 162.99 154.104 163.854 155.416C164.75 156.696 165.198 158.52 165.198 160.888C165.198 162.488 164.878 165.848 164.238 170.968C163.63 176.088 163.214 179.8 162.99 182.104Z"/>
        <path d="M191.65 187.24C191.65 191.048 192.802 192.952 195.106 192.952C196.322 192.952 197.506 192.296 198.658 190.984C199.81 189.672 200.738 187.912 201.442 185.704C202.178 183.496 202.802 181.144 203.314 178.648C203.858 176.12 204.258 173.448 204.514 170.632C204.962 165.192 205.186 160.952 205.186 157.912C205.186 154.84 205.058 152.536 204.802 151C207.106 151.512 208.722 152.6 209.65 154.264C210.578 155.928 211.042 158.024 211.042 160.552C211.042 163.08 210.498 167.784 209.41 174.664C208.354 181.544 207.826 186.568 207.826 189.736C207.826 192.904 207.97 195.592 208.258 197.8C205.986 197.192 204.418 196.104 203.554 194.536C202.722 192.936 202.306 190.936 202.306 188.536C201.314 191.288 199.826 193.464 197.842 195.064C195.858 196.664 193.81 197.464 191.698 197.464C189.586 197.464 187.858 196.664 186.514 195.064C185.202 193.432 184.546 191.048 184.546 187.912C184.546 182.952 185.906 178.696 188.626 175.144C191.346 171.56 194.562 169.768 198.274 169.768C199.33 169.768 200.994 170.024 203.266 170.536C201.282 171.048 199.506 171.944 197.938 173.224C196.402 174.472 195.202 175.912 194.338 177.544C192.546 180.776 191.65 184.008 191.65 187.24Z"/>
        <path d="M233.901 169.24C235.789 169.24 237.133 169.832 237.933 171.016C238.765 172.168 239.181 173.752 239.181 175.768C239.181 177.752 238.861 180.552 238.221 184.168C237.613 187.784 237.309 190.424 237.309 192.088C237.309 193.72 237.517 194.92 237.933 195.688C238.349 196.424 239.053 197.064 240.045 197.608C239.629 197.64 239.037 197.656 238.269 197.656C235.581 197.656 233.661 197.24 232.509 196.408C231.389 195.576 230.829 194.12 230.829 192.04C230.829 190.856 231.149 188.552 231.789 185.128C232.429 181.672 232.749 179.096 232.749 177.4C232.749 175.288 232.109 174.232 230.829 174.232C230.093 174.232 229.261 174.664 228.333 175.528C227.405 176.392 226.509 177.576 225.645 179.08C224.781 180.552 224.061 182.456 223.485 184.792C222.909 187.128 222.621 189.464 222.621 191.8C222.621 194.104 222.717 195.816 222.909 196.936C221.885 197 221.213 197.032 220.893 197.032C219.069 197.032 217.757 196.712 216.957 196.072C216.157 195.432 215.757 194.376 215.757 192.904C215.757 192.264 216.093 189.8 216.765 185.512C217.437 181.224 217.773 177.816 217.773 175.288C217.773 172.728 217.501 170.376 216.957 168.232C219.293 168.968 220.925 170.024 221.853 171.4C222.781 172.744 223.245 174.296 223.245 176.056C223.245 177.784 223.053 179.8 222.669 182.104C223.725 178.52 225.389 175.48 227.661 172.984C229.933 170.488 232.013 169.24 233.901 169.24Z"/>
        <path d="M256.411 185.128C254.875 185.128 253.371 184.952 251.899 184.6C251.867 184.92 251.851 185.416 251.851 186.088C251.851 188.744 252.347 190.744 253.339 192.088C254.331 193.432 255.515 194.104 256.891 194.104C258.267 194.104 259.579 193.688 260.827 192.856C262.075 192.024 263.163 190.872 264.091 189.4C265.243 189.656 265.819 190.248 265.819 191.176C263.003 195.496 259.371 197.656 254.923 197.656C252.235 197.656 249.883 196.632 247.867 194.584C245.851 192.504 244.843 189.624 244.843 185.944C244.843 183.192 245.371 180.584 246.427 178.12C247.483 175.624 249.163 173.528 251.467 171.832C253.771 170.104 256.315 169.24 259.099 169.24C261.915 169.24 263.979 169.88 265.291 171.16C266.603 172.44 267.259 174.12 267.259 176.2C267.259 179.208 266.203 181.448 264.091 182.92C262.011 184.392 259.451 185.128 256.411 185.128ZM258.427 172.216C256.795 172.216 255.419 173.224 254.299 175.24C253.179 177.256 252.443 179.704 252.091 182.584H252.811C255.595 182.584 257.643 181.864 258.955 180.424C260.299 178.984 260.971 177.256 260.971 175.24C260.971 174.408 260.747 173.704 260.299 173.128C259.883 172.52 259.259 172.216 258.427 172.216Z"/>
    </mask>
    <path opacity="0.3" d="M131 267C131 271.549 129.651 275.996 127.124 279.778C124.597 283.56 121.004 286.508 116.802 288.249C112.599 289.99 107.975 290.446 103.513 289.558C99.0514 288.671 94.9532 286.48 91.7366 283.263C88.52 280.047 86.3294 275.949 85.442 271.487C84.5545 267.025 85.01 262.401 86.7508 258.198C88.4916 253.996 91.4395 250.403 95.2219 247.876C99.0042 245.349 103.451 244 108 244C114.1 244 119.95 246.423 124.263 250.737C128.577 255.05 131 260.9 131 267Z" fill="#0487E2"/>
    <path d="M108.001 280.001C115.18 280.001 121.001 274.181 121.001 267.001C121.001 259.821 115.18 254.001 108.001 254.001C100.821 254.001 95.0007 259.821 95.0007 267.001C95.0007 274.181 100.821 280.001 108.001 280.001Z" fill="#0487E2"/>
    <path d="M108.573 261.25L113.75 272.75H111.045L110.199 270.62H105.801L104.955 272.75H102.25L107.427 261.25H108.573ZM108.008 265.117L106.614 268.61H109.402L108.008 265.117Z" fill="white"/>
    <path opacity="0.3" d="M374 660.5C374 666.532 372.211 672.429 368.86 677.445C365.508 682.461 360.745 686.37 355.172 688.678C349.599 690.987 343.466 691.591 337.55 690.414C331.633 689.237 326.199 686.332 321.933 682.067C317.668 677.801 314.763 672.367 313.586 666.45C312.409 660.534 313.013 654.401 315.322 648.828C317.63 643.255 321.539 638.492 326.555 635.14C331.571 631.789 337.468 630 343.5 630C351.589 630 359.347 633.213 365.067 638.933C370.787 644.653 374 652.411 374 660.5Z" fill="#0487E2"/>
    <path d="M343.501 677.741C353.022 677.741 360.74 670.022 360.74 660.501C360.74 650.981 353.022 643.262 343.501 643.262C333.98 643.262 326.262 650.981 326.262 660.501C326.262 670.022 333.98 677.741 343.501 677.741Z" fill="#0487E2"/>
    <path d="M344.259 652.875L351.125 668.125H347.538L346.416 665.301H340.584L339.462 668.125H335.875L342.741 652.875H344.259ZM343.511 658.004L341.663 662.635H345.359L343.511 658.004Z" fill="white"/>
    <path fill-rule="evenodd" clip-rule="evenodd" d="M331.875 316.602C328.783 313.546 325.065 312 320.72 312C316.376 312 312.659 313.546 309.603 316.602C306.509 319.658 304.965 323.375 305.001 327.756C305.001 330.664 305.7 333.279 307.063 335.634C307.137 335.744 307.246 335.892 307.357 336.077L320.426 356.25L334.305 335.818C335.74 333.426 336.477 330.739 336.477 327.756C336.477 323.375 334.93 319.658 331.875 316.602Z" fill="#EB6440"/>
    <path d="M320.496 337.991C325.74 337.991 329.991 333.74 329.991 328.496C329.991 323.251 325.74 319 320.496 319C315.251 319 311 323.251 311 328.496C311 333.74 315.251 337.991 320.496 337.991Z" fill="white"/>
    <path d="M320.274 323C320.946 323 321.533 323.131 322.033 323.394C322.534 323.646 322.922 323.998 323.198 324.45C323.482 324.902 323.625 325.422 323.625 326.01C323.625 326.535 323.508 327.003 323.275 327.413C323.051 327.822 322.766 328.138 322.421 328.358C322.68 328.442 322.93 328.584 323.172 328.784C323.413 328.973 323.612 329.23 323.767 329.556C323.922 329.871 324 330.276 324 330.769C324 331.358 323.853 331.899 323.56 332.393C323.267 332.876 322.857 333.265 322.331 333.559C321.805 333.853 321.192 334 320.494 334C320.114 334 319.704 333.979 319.264 333.937C318.824 333.905 318.406 333.858 318.009 333.795C317.612 333.722 317.276 333.648 317 333.574V323.394C317.483 323.268 318.005 323.173 318.566 323.11C319.126 323.037 319.696 323 320.274 323ZM320.274 325.001C319.722 325.001 319.23 325.054 318.799 325.159V327.712H320.416C320.856 327.712 321.201 327.581 321.451 327.318C321.71 327.055 321.839 326.719 321.839 326.309C321.839 325.889 321.684 325.569 321.373 325.348C321.071 325.117 320.705 325.001 320.274 325.001ZM318.799 331.841C319.04 331.915 319.316 331.967 319.627 331.999C319.946 332.02 320.2 332.03 320.39 332.03C320.89 332.03 321.3 331.909 321.619 331.668C321.947 331.426 322.111 331.085 322.111 330.643C322.111 330.202 321.943 329.876 321.606 329.666C321.27 329.446 320.864 329.335 320.39 329.335H318.799V331.841Z" fill="#EB6440"/>
    <path fill-rule="evenodd" clip-rule="evenodd" d="M182.704 546.396C173.27 537.073 161.926 532.356 148.67 532.356C135.417 532.356 124.078 537.074 114.754 546.396C105.316 555.719 100.604 567.059 100.714 580.426C100.714 589.297 102.848 597.274 107.006 604.46C107.23 604.797 107.564 605.248 107.903 605.81L147.772 667.356L190.118 605.021C194.496 597.723 196.744 589.526 196.744 580.426C196.744 567.059 192.023 555.72 182.704 546.396Z" fill="#EB6440"/>
    <path fill-rule="evenodd" clip-rule="evenodd" d="M147.944 560.005C141.542 559.89 136.147 562.141 131.655 566.747C127.163 571.237 124.919 576.63 124.919 583.032C124.919 589.431 127.163 594.823 131.655 599.43C136.149 603.921 141.542 606.166 147.944 606.166C154.342 606.165 159.736 603.923 164.339 599.43C168.832 594.823 171.08 589.433 171.08 583.032C171.08 576.63 168.832 571.24 164.339 566.747C159.737 562.139 154.342 559.891 147.944 560.005Z" fill="white"/>
    <path d="M147.987 611.651C163.986 611.651 176.957 598.681 176.957 582.682C176.957 566.682 163.986 553.712 147.987 553.712C131.987 553.712 119.017 566.682 119.017 582.682C119.017 598.681 131.987 611.651 147.987 611.651Z" fill="white"/>
    <path d="M147.309 565.915C149.362 565.915 151.151 566.316 152.678 567.117C154.204 567.887 155.388 568.96 156.23 570.339C157.099 571.717 157.533 573.303 157.533 575.098C157.533 576.701 157.178 578.127 156.467 579.377C155.783 580.628 154.915 581.589 153.862 582.262C154.651 582.519 155.415 582.951 156.151 583.56C156.888 584.137 157.494 584.923 157.967 585.916C158.441 586.878 158.678 588.112 158.678 589.618C158.678 591.413 158.23 593.064 157.336 594.571C156.441 596.045 155.191 597.231 153.586 598.128C151.98 599.026 150.112 599.475 147.98 599.475C146.822 599.475 145.572 599.41 144.23 599.282C142.888 599.186 141.612 599.042 140.401 598.85C139.19 598.625 138.164 598.401 137.322 598.176V567.117C138.796 566.733 140.388 566.444 142.098 566.252C143.809 566.027 145.546 565.915 147.309 565.915ZM147.309 572.021C145.625 572.021 144.125 572.182 142.809 572.502V580.291H147.743C149.085 580.291 150.138 579.89 150.901 579.089C151.691 578.288 152.086 577.262 152.086 576.012C152.086 574.73 151.612 573.752 150.664 573.079C149.743 572.374 148.625 572.021 147.309 572.021ZM142.809 592.888C143.546 593.112 144.388 593.272 145.335 593.369C146.309 593.433 147.085 593.465 147.664 593.465C149.191 593.465 150.441 593.096 151.414 592.359C152.414 591.622 152.914 590.58 152.914 589.234C152.914 587.888 152.401 586.894 151.375 586.253C150.349 585.58 149.112 585.243 147.664 585.243H142.809V592.888Z" fill="#EB6440"/>
    <defs>
        <filter id="filter0_d_1_2009" x="54.3624" y="205.348" width="428.944" height="572.902" filterUnits="userSpaceOnUse" color-interpolation-filters="sRGB">
            <feFlood flood-opacity="0" result="BackgroundImageFix"/>
            <feColorMatrix in="SourceAlpha" type="matrix" values="0 0 0 0 0 0 0 0 0 0 0 0 0 0 0 0 0 0 127 0" result="hardAlpha"/>
            <feOffset dx="-5" dy="17"/>
            <feGaussianBlur stdDeviation="10"/>
            <feComposite in2="hardAlpha" operator="out"/>
            <feColorMatrix type="matrix" values="0 0 0 0 0.152941 0 0 0 0 0.152941 0 0 0 0 0.223529 0 0 0 0.46 0"/>
            <feBlend mode="normal" in2="BackgroundImageFix" result="effect1_dropShadow_1_2009"/>
            <feBlend mode="normal" in="SourceGraphic" in2="effect1_dropShadow_1_2009" result="shape"/>
        </filter>
        <linearGradient id="paint0_linear_1_2009" x1="125.592" y1="251.322" x2="119.082" y2="330.06" gradientUnits="userSpaceOnUse">
            <stop stop-color="white" stop-opacity="0.07"/>
            <stop offset="1" stop-color="white"/>
        </linearGradient>
        <linearGradient id="paint1_linear_1_2009" x1="211.816" y1="748.917" x2="268.962" y2="774.089" gradientUnits="userSpaceOnUse">
            <stop stop-color="white" stop-opacity="0.07"/>
            <stop offset="1" stop-color="white"/>
        </linearGradient>
    </defs>
</svg>
